<svg width="162" height="103" viewBox="0 0 162 103" fill="none" xmlns="http://www.w3.org/2000/svg">
<path d="M61.6718 91.4984C61.5916 87.7337 61.5275 84.796 61.4792 82.5051C61.6079 81.7715 61.7784 81.3095 61.9771 80.8206C62.4532 78.7447 62.7015 73.751 62.4033 70.5247C62.2439 68.8009 62.1292 67.1672 61.8369 65.6305C61.4602 63.6498 60.2565 60.0773 60.2926 57.2038C60.36 51.8445 60.498 49.837 60.6825 47.5275C60.8249 45.7444 60.972 44.0834 61.0622 42.118C61.1736 39.6926 61.4276 38.2656 61.4813 36.4586C61.5616 33.7587 61.9005 32.4113 62.1271 31.0712C62.3974 29.472 62.2149 26.4327 62.6797 24.5117C63.0295 23.0657 63.2792 21.6693 63.3856 20.1984C63.5 18.6174 63.7907 17.2289 63.9641 15.7748C64.1494 14.221 65.9241 12.7934 65.481 11.6081C65.43 11.4717 65.0657 11.4126 64.6946 11.3701C63.0739 11.1846 60.7451 10.9785 58.7605 10.6753C55.182 10.1286 49.5547 8.8922 45.1567 8.10076C36.5432 6.55072 30.2837 5.64298 28.5098 5.43457C23.4625 4.84157 20.9724 4.75106 18.7992 4.49723C15.2302 4.08037 12.8582 3.76902 10.5499 3.67883C6.13335 3.50628 4.57841 3.14297 4.50036 3.86381C4.24234 6.24678 4.02702 8.32867 3.96598 9.88122C3.89209 11.761 3.42235 14.4158 3.68333 18.9018C3.81314 21.1331 3.87287 23.0797 4.47745 28.2203C4.92575 32.032 5.94199 38.9479 6.20813 43.2791C6.57566 49.2606 6.162 51.59 6.03061 53.0846C5.81738 55.5103 5.56478 62.7003 5.66166 67.0655C5.74576 70.8554 5.91496 72.7216 5.99799 74.7463C6.09866 77.2009 6.36641 79.6945 6.42137 81.8759C6.49886 84.9511 7.66557 88.0315 6.84576 91.5513C6.58327 92.6784 4.59214 93.753 5.33956 94.1305C6.29584 94.6135 7.70625 94.8404 9.1531 95.1022C11.3217 95.4946 14.2983 96.676 20.0333 96.8744C23.5037 96.9944 29.3598 97.0181 32.8463 97.056C38.8733 97.1216 40.4189 97.5419 43.9755 97.5859C53.0623 97.6984 54.5681 97.7511 56.484 97.9719C58.2449 98.1749 60.6535 99.1438 61.4143 97.8492C61.7433 97.2896 61.7521 95.2674 61.6718 91.4984Z" fill="#F2EFE8"/>
<path d="M57.4467 78.893C57.3747 80.6581 57.5354 82.9437 57.7257 84.6902C57.7847 85.2295 57.9908 84.9501 58.0413 85.3305C58.1395 86.0632 58.0502 86.7504 58.1642 87.482C58.2029 87.7193 58.5323 87.4153 58.5652 87.6651C58.7344 88.9779 58.6913 90.2328 58.7733 91.5601C58.7777 91.6308 58.7823 91.701 58.7874 91.7708C58.8607 92.7912 58.9269 93.8102 58.9674 94.7912C58.9871 95.2807 59.0002 95.764 58.9965 96.197C58.9949 96.411 58.9878 96.6157 58.9778 96.7605C58.9734 96.831 58.9671 96.8871 58.9711 96.8888C58.9853 96.8814 58.9589 96.8561 59.1487 96.5176C59.2586 96.3324 59.502 96.1064 59.6955 96.0156C59.8908 95.9184 59.9943 95.9191 59.9999 95.9239C60.0093 95.943 59.734 95.9566 59.4168 95.9183C58.7483 95.8506 57.913 95.6383 56.767 95.5167C53.3715 95.2358 50.3311 95.3715 47.1538 95.3689C46.1676 95.3765 45.0953 95.43 44.0016 95.4766C42.588 95.5453 41.1536 95.5042 39.7732 95.3197C39.4958 95.2828 39.6839 95.0014 39.6327 94.9731C38.8173 94.5395 39.0548 95.1538 38.4966 95.1946C36.659 95.3271 34.6872 95.3267 32.8659 95.2584C32.4877 95.2438 32.1164 95.2246 31.7532 95.2014C30.8698 95.1442 31.7617 94.5666 30.8689 94.8874C30.8068 94.909 31.0285 95.224 30.7855 95.2553C30.2338 95.3256 29.1956 95.2608 28.7698 95.2817C27.9497 95.3236 27.8148 95.3193 27.0404 95.315C25.982 95.3117 24.7219 95.4523 23.5904 95.3627C23.3495 95.3426 23.6754 95.0272 23.2899 94.966C22.905 94.9053 21.8886 94.912 21.5445 94.9788C21.1997 95.046 21.3392 95.3017 21.2771 95.358C20.9865 95.6284 20.4864 95.5153 20.0856 95.3611C19.7823 95.2444 19.5486 95.1032 19.4826 95.0928C16.8337 94.6761 14.5908 94.7133 12.1127 94.0951C11.2877 93.8949 10.4475 93.6313 9.45742 93.4203C8.32507 93.1818 7.23222 92.9615 6.4905 92.701C6.35357 92.6533 6.2319 92.6048 6.13308 92.5594C6.25125 92.6277 6.56971 92.7825 6.80175 93.2951C7.02377 93.8229 6.89108 94.2561 6.8377 94.3936C6.70977 94.681 6.7148 94.5963 6.7508 94.5605C6.8311 94.4495 7.01762 94.2459 7.20878 94.0295C7.58105 93.5623 8.12173 93.1273 8.44526 91.9239C8.63124 90.9927 8.71711 90.0446 8.73895 89.0707C8.74316 88.8126 9.12006 89.1191 9.12368 88.798C9.13284 86.1185 8.46412 83.8055 8.29458 81.8287C8.2405 81.1432 8.15945 80.4725 8.06225 79.8124C8.0172 79.5109 7.71145 79.9221 7.64653 79.6231C7.33173 78.1566 6.6949 76.0475 7.21956 74.6962C7.34595 74.3537 7.53405 74.0568 7.80614 73.8258C7.68372 72.5703 7.5359 71.1014 7.20095 70.0187C6.98495 69.3224 6.65116 70.0194 6.77208 69.1468C6.79935 68.9495 7.12421 69.1926 7.14144 68.8983C7.17702 68.2935 7.16382 67.6654 7.15852 67.0323C7.15329 66.382 7.16168 65.7243 7.24433 65.1001C7.27803 64.8517 7.56139 64.9191 7.61238 64.8485C8.02482 64.2617 7.35131 63.2737 7.30482 63.0571C6.95593 61.4126 7.13079 60.2134 7.17034 58.6837C7.17973 58.3296 7.5461 58.7599 7.5689 58.4209C7.68325 56.6933 7.72336 54.8647 7.69505 53.231C7.69455 53.2033 7.69413 53.1751 7.69379 53.1463C7.69068 52.7806 7.33537 53.0838 7.31815 52.9037C7.25138 52.0912 7.88735 51.9534 7.82277 51.1276C7.80943 50.9515 7.52515 51.0278 7.49723 50.9942C7.05754 50.4772 7.7552 50.0987 7.7766 49.969C8.05314 48.3779 7.33869 47.3682 7.39947 45.8624C7.4066 45.6803 7.7702 46.0761 7.76842 45.5706C7.76465 44.7836 7.73751 43.9862 7.69025 43.188C7.52344 40.5162 7.09177 37.8725 6.56666 35.3801C6.45988 34.8757 6.24391 35.2725 6.20764 35.2444C5.63822 34.7862 6.27016 34.3637 6.27431 34.1937C6.28984 32.8609 5.56404 31.7158 6.25336 30.724C6.09304 29.8377 5.9517 28.9418 5.83269 28.0609C5.40948 24.9631 5.22269 21.9421 4.95237 18.828C4.8047 17.3397 4.67999 15.857 4.548 14.352C4.54274 14.283 4.20221 14.3917 4.19335 14.2522C4.09815 12.5698 4.6085 12.9295 5.33276 11.88C5.51656 11.6195 4.82331 10.6818 4.77048 10.6009C4.5828 10.3055 4.06525 10.5617 4.03157 10.4656C3.93627 10.1806 4.0873 10.0295 4.32274 9.89524C4.73706 9.66574 5.41164 9.52373 5.45504 8.88848C5.45447 8.85666 5.14255 8.96841 5.11828 8.88156C5.04195 8.61202 5.1824 8.3602 5.09968 8.09311C4.90886 7.48184 4.12992 7.19088 4.68424 6.32218C4.75642 6.21212 5.66777 6.48224 5.71803 5.56709C5.73009 5.33892 5.80743 4.62768 5.86264 4.01131C5.8589 4.16636 5.70371 4.50975 5.52426 4.64568C5.35181 4.78908 5.26438 4.79893 5.23838 4.80708C5.18679 4.81305 5.26704 4.78671 5.31053 4.77317C5.61344 4.69464 5.393 4.40571 5.40813 4.3912C6.50006 3.99112 6.12516 3.83768 6.75303 3.27291C7.40122 2.72146 7.14651 4.11172 7.38787 4.28301C7.62882 4.45442 8.54733 4.18054 8.77597 4.07802C9.00357 3.97604 8.73755 3.76959 8.93862 3.71581C10.2585 3.36075 9.479 4.4403 9.89691 4.68331C10.108 4.80246 10.3023 4.85249 10.5039 4.85704C11.2158 4.87257 11.8941 4.24832 12.6298 4.23058C12.8806 4.22498 12.657 4.44288 12.8752 4.48473C13.7373 4.64947 14.299 4.38414 15.2611 4.79247C15.4191 4.85899 16.1506 5.5733 16.7264 5.17957C16.808 5.12259 16.6294 4.84058 17.0089 4.82698C17.4551 4.81103 18.1714 4.84604 18.7479 4.93678C18.9085 4.96205 19.0586 4.9906 19.1887 5.02323C19.6315 5.13314 19.0723 5.50614 19.653 5.43011C19.9104 5.39504 19.4688 5.10257 19.9477 5.05665C20.424 5.01111 21.6125 5.11906 22.0642 5.16521C22.5161 5.21163 22.2405 5.51371 22.2758 5.53852C22.4874 5.68119 23.3339 5.91072 23.4121 5.91768C25.1187 6.08566 26.7681 6.15895 28.4136 6.25319C30.4379 6.38065 32.4827 6.5708 34.5325 6.99175C34.8259 7.05174 34.576 7.35817 34.6202 7.3708C35.5932 7.6695 34.9548 6.64901 35.6965 6.45931C35.4864 7.12766 35.9178 7.06899 36.6116 7.2585C36.9436 7.3501 36.7166 7.58512 36.743 7.61722C37.1843 8.10198 37.6139 7.63933 37.7252 7.54851C38.1177 7.21168 38.411 7.73494 38.6773 7.51094C38.9478 7.28968 38.4873 6.81759 39.1664 6.93631C39.3148 7.21277 38.7071 7.76814 39.2 7.95744C40.6568 8.51522 43.2127 8.71482 45.0144 8.89169C45.5212 8.94082 45.9672 8.98944 46.3118 9.0424C47.8638 9.28247 48.3544 9.42842 49.2713 9.51733C50.9285 9.68037 50.2387 10.0344 51.2058 10.451C52.1766 10.8683 51.9143 9.60954 52.1094 9.38892C52.3014 9.16773 52.4072 9.45557 52.6119 9.35354C52.8159 9.2514 52.4663 9.00599 52.8929 9.03676C53.3189 9.06791 54.3732 9.73445 54.47 10.0235C54.6782 10.6371 54.0487 11.12 55.1986 11.1269C55.2651 11.1268 55.1147 10.7818 55.3659 10.7971C56.4657 10.8684 57.5797 11.0056 58.6942 11.1092C59.5947 11.1923 60.491 11.2454 61.3739 11.2498C61.6461 11.2504 61.4441 10.8795 61.6027 10.8759C63.2523 10.8323 62.6113 11.3483 63.435 12.0877C63.3373 11.2998 63.7656 10.834 64.7547 10.845C64.8727 10.8472 65.0008 10.8565 65.1488 10.8825C65.2821 10.9065 65.3999 10.942 65.5203 11.0054C65.6322 11.0756 65.8039 11.1439 65.9084 11.4483C65.8911 11.8116 65.6584 11.9138 65.4442 12.2035C65.367 12.3127 65.4213 12.8926 65.209 12.9042C64.5378 12.9301 64.2492 12.1584 63.8393 13.3594C63.8206 13.415 64.1864 13.4201 64.1018 13.6003C63.6948 14.5166 63.1941 14.65 62.8301 15.6396C62.7462 15.8377 62.6687 16.0713 62.6075 16.3768C62.4336 17.2543 62.429 18.8795 62.4575 20.1313C62.4617 20.2985 62.4609 20.4581 62.4545 20.6067C63.429 20.6653 63.0774 21.7997 62.3369 22.1296C62.246 22.8539 62.0505 23.6186 61.9567 24.3368C61.9516 24.3724 61.9471 24.408 61.943 24.4437C61.9125 24.7317 62.2279 24.6039 62.2497 24.6461C62.6126 25.2459 61.9366 25.4829 61.8885 25.6646C61.4372 27.5299 62.0086 29.1162 61.3451 30.7081C61.329 30.7422 61.0382 30.7577 60.9517 30.8725C60.9021 30.9494 60.9112 31.0664 61.0528 31.2562C61.0805 31.2928 61.4846 30.782 61.3621 31.5906C61.226 32.4074 61.3298 34.0297 60.9541 35.1649C60.8748 35.3945 60.4529 35.9154 60.559 36.4312C60.5801 36.5268 60.6207 36.6211 60.6876 36.7143C60.7425 36.7894 60.9391 36.7174 61.0418 36.8287C61.3673 37.1932 60.6759 37.3357 61.2217 37.7847C61.7695 38.2384 62.111 39.1455 61.6142 40.2492C61.5996 40.2849 61.0381 40.5118 61.0203 40.8771C61.0031 41.233 61.021 41.6819 61.0345 42.1167C61.0429 42.3911 61.0452 42.6594 61.0309 42.894C61.0128 43.1835 60.6885 42.9792 60.6796 43.0291C60.4273 44.6537 60.5049 45.9041 60.5172 47.5144C60.5195 47.8146 60.5196 48.1272 60.5154 48.4566C60.5102 48.839 59.9787 49.9126 60.3037 50.6773C60.6615 51.5088 62.3357 50.7528 61.8749 52.5828C61.6932 53.3193 59.5792 54.2264 60.6369 55.6054C60.5724 56.1448 60.5442 56.6766 60.5366 57.2069C60.5297 59.2175 61.274 61.0608 61.4802 63.16C61.4922 63.2781 61.0194 63.7862 61.0947 64.0538C61.2075 64.4515 61.5259 64.6061 61.6108 64.89C61.687 65.1404 61.7456 65.3901 61.7878 65.6399C61.9446 66.5748 61.91 67.486 62.0304 68.4176C62.0868 68.8669 62.3525 68.6831 62.4172 69.221C62.4705 69.6693 62.2437 70.016 62.3099 70.5333C62.3229 70.634 62.347 70.7446 62.3862 70.864C62.5644 71.3982 63.3512 71.9265 63.4576 72.6779C62.7099 72.7252 62.7421 73.2328 62.5389 74.1294C62.4992 74.3015 62.2405 74.1147 62.2082 74.1957C62.0713 74.5237 62.2814 74.8327 62.1272 75.1425C62.0901 75.2178 61.8347 75.2142 61.7899 75.2747C61.4009 75.7856 61.9309 76.6739 62.0205 76.8313C62.3649 77.4289 62.0129 77.6734 62.1245 78.1243C62.2337 78.579 62.4801 77.9352 62.5229 78.4599C62.5778 79.1982 62.5052 80.0685 62.3243 80.9002C62.322 80.9116 62.3112 80.9439 62.3071 80.9547C62.1616 81.315 62.0395 81.6532 61.9604 81.9792C61.8659 82.3807 61.6001 82.0314 61.5789 82.0869C61.3331 82.8334 61.5332 83.6338 61.1371 84.1293C61.0765 84.2151 61.0006 84.2916 60.9052 84.3577C62.645 85.0224 60.7247 84.8965 61.0455 86.1874C61.0713 86.2874 61.898 86.4401 62.0296 86.0526C62.1611 85.6649 61.913 85.0689 62.1151 84.5379C62.1347 84.4864 62.2818 84.3351 62.4521 84.173L62.4501 84.214C62.6995 83.9948 62.9996 83.7678 63.0322 83.7171C63.465 83.0708 62.2657 82.817 62.2028 82.7576C61.537 82.1767 62.589 81.57 62.7226 81.426C62.7788 81.349 62.8328 81.2705 62.8849 81.1895C62.8962 81.1597 62.9259 81.0708 62.9322 81.0396C63.3251 80.0429 63.2785 79.1884 63.53 78.3662C63.7045 77.7741 64.5179 77.7743 64.5258 77.2892C64.5381 75.6751 63.4183 75.1206 64.4062 73.6312C64.6123 73.3088 65.512 73.6206 64.7885 72.4603C64.7436 72.3827 64.0764 71.5482 64.4428 71.0179C64.4892 70.9499 64.7476 70.9338 64.7632 70.8463C64.7967 70.6507 64.7898 70.4723 64.7679 70.3061C64.7278 70.0124 64.6351 69.739 64.6663 69.3523C64.7133 68.7683 64.7971 68.0459 64.632 67.3612C64.5339 66.948 63.9832 66.4669 63.8361 66.2845C63.5872 65.9772 63.6416 65.608 63.6221 65.291C63.6074 65.0667 63.5582 64.8743 63.364 64.7724C62.8812 64.519 62.4217 65.3136 61.9567 64.506C62.6029 64.317 63.2557 64.08 63.8995 63.8659C63.3999 61.9535 62.7198 60.2665 62.5556 58.5662C62.5375 58.3593 62.9189 58.5295 62.911 58.313C62.8979 57.919 62.8464 57.5676 62.8118 57.2355C62.7688 56.6579 62.7199 56.082 62.7894 55.4541C62.886 54.5911 63.2902 53.6633 63.4157 52.7767C62.6633 52.2068 62.9761 50.8953 62.9658 49.9444C62.9621 49.6099 62.7558 49.6187 62.7047 49.3769C62.5198 48.46 63.1693 48.9305 63.2937 48.6921C63.5085 48.2814 63.3918 47.9998 63.1835 47.7273C62.8735 47.3218 62.3616 46.9406 62.4459 46.1779C62.453 46.1114 63.3364 45.3434 63.3957 45.2301C63.7825 44.5195 63.1203 45.0876 63.0931 44.6234C63.042 43.7791 62.8856 43.1862 63.1651 42.2145C63.1668 42.2087 63.1685 42.203 63.1703 42.1972C63.2534 41.9261 63.7994 41.3216 63.4468 40.7688C63.4005 40.6957 63.1272 40.7126 63.1157 40.6557C62.9364 39.6148 63.7933 39.6645 64.1364 39.0908C64.4839 38.5168 63.9756 37.4548 63.8138 37.2417C63.405 36.682 63.6039 37.6407 63.556 37.6641C63.0203 37.9592 63.1652 37.2545 63.1409 36.696C62.912 36.6652 62.752 36.5862 62.6549 36.4935C62.3983 36.2663 62.5866 35.9564 63.1178 36.161C63.1715 36.183 63.1473 36.3597 63.1374 36.5079C63.1323 36.5885 63.1298 36.659 63.1409 36.696C63.24 36.6422 63.3291 36.5823 63.4078 36.5159C63.9928 36.0827 64.0208 35.4571 63.4161 34.6783C63.1009 34.2623 62.6277 34.578 62.9393 33.4167C63.0895 32.8909 63.6248 33.1908 63.8591 32.7504C64.0552 32.3837 64.1545 31.9383 64.208 31.423C64.3199 30.3209 64.1231 29.4542 64.2113 28.6901C64.2573 28.2624 64.5571 28.6907 64.5993 28.3999C64.7125 27.6356 64.5016 26.9687 64.6851 26.2876C64.7022 26.2275 65.0161 26.4058 65.0404 26.1995C65.0925 25.781 65.1418 25.404 65.1934 25.1198C65.4679 23.7818 65.617 22.4311 65.7589 20.8842C65.7729 20.7305 65.7912 20.5588 65.8111 20.3739C65.9009 19.5521 66.2125 18.3603 66.3099 17.5232C66.3608 17.0797 66.3884 16.5859 66.3946 16.0647C66.289 16.1001 66.3579 15.6183 66.6151 15.0783C66.8553 14.5101 67.2653 13.9178 67.587 12.8696C67.8723 11.8464 67.7312 11.1094 67.7407 10.7632C67.2247 9.51994 66.7946 9.4499 66.5473 9.19816C66.2799 8.99675 66.0629 8.86836 65.834 8.75611C65.4897 8.58922 65.2464 8.52424 65.0243 8.49007C64.2492 8.37104 63.2894 8.80423 63.1323 8.88521C63.1251 8.88849 63.9127 9.04932 63.4708 9.1731C63.1873 9.49795 63.1411 8.88768 63.1323 8.88521C63.0021 8.95098 61.4256 8.85681 61.1288 8.75591C60.9659 8.70206 61.0959 8.40283 61.0107 8.38058C60.3901 8.22037 59.7758 8.07324 59.1792 7.93429C57.8051 7.61446 56.3662 7.33687 54.8887 7.15539C54.8506 7.15444 54.84 7.5083 54.7509 7.50174C53.5004 7.41753 52.7986 6.84142 51.8357 6.39142C50.8728 5.94119 50.0483 5.86412 49.3294 6.3342C48.576 6.10872 47.4178 6.15499 46.7482 6.19364C46.0804 6.23236 46.1116 5.54755 46.0583 5.52394C45.9176 5.46204 45.7818 5.40697 45.6503 5.35789C44.1944 4.81425 43.1525 4.96766 41.4758 4.73555C40.6071 4.61612 38.913 4.23107 37.9866 4.00439C37.257 3.82406 36.7852 3.90919 36.118 3.69926C36.0279 3.67109 36.1688 3.3869 36.1425 3.37089C35.4387 2.89192 35.6865 3.68116 35.509 3.78685C34.8653 4.17209 34.4727 4.36908 33.5333 3.99619C33.3103 3.90956 32.8221 2.75736 32.4124 2.63368C31.884 2.4756 32.0331 2.88361 31.4851 2.71036C31.4403 2.69628 31.4754 2.46293 31.1316 2.42421C30.4129 2.34208 29.6875 2.27699 28.888 2.21518C27.9144 2.14464 26.9357 2.07519 25.9782 1.96507C25.748 1.93957 26.0843 1.5975 25.7469 1.55421C24.1802 1.35158 22.4351 1.22558 20.9492 1.2767C20.5853 1.28978 20.7882 1.57001 20.7032 1.64069C20.1783 2.06817 19.5831 1.32158 19.4834 1.29666C19.3811 1.27206 19.2799 1.24875 19.1812 1.22675C16.6324 0.692714 14.5528 0.95204 11.6884 0.471774C11.597 0.45625 11.1677 0.192406 10.6905 0.0813062C10.3622 -0.0034318 10.0263 -0.00395679 9.78822 0.259348C9.75193 0.299574 9.2145 0.916756 8.78819 0.451878C8.76304 0.422816 9.0962 0.110708 8.54377 0.112453C7.97981 0.11515 7.1224 -0.170202 6.20368 0.157706C6.05066 0.210496 5.81265 0.388426 5.42468 0.506091C5.22544 0.567438 5.00397 0.606375 4.62498 0.650289C4.42311 0.677765 4.20361 0.694697 3.82632 0.792501C3.47047 0.896166 2.87162 1.06924 2.218 1.74906C2.15928 1.78884 1.46348 2.56501 1.28711 3.51588C0.947067 3.84141 0.375557 4.50297 0.937279 4.87199C1.0611 4.95278 1.90659 4.96797 1.38588 5.81027C1.28539 5.97166 1.12894 5.64364 0.96727 6.08057C0.718773 6.75317 0.857414 7.68876 0.420967 8.55043C0.352798 8.68172 -0.138649 9.19422 0.038147 9.72682C0.0620956 9.77053 0.096756 9.81645 0.144463 9.86403C0.209099 9.92967 0.497559 9.82144 0.516579 10.0407C0.598724 11.1123 0.256645 12.5241 0.387352 13.8778C0.432587 14.3619 0.898209 14.1363 1.00092 14.6353C1.10242 15.1361 1.2057 16.128 1.00453 16.6454C0.802727 17.1657 0.066925 16.6052 0.0243454 17.3962C-0.00413513 17.9711 -0.00341034 18.5447 0.0206146 19.1149C0.102127 21.7089 0.621544 24.5152 0.975174 27.1536C1.03731 27.6264 0.734917 27.2645 0.809509 27.964C0.83297 28.1828 0.855087 28.4005 0.879539 28.6434C1.15202 31.3068 1.50983 35.14 2.24886 37.0776C2.89704 38.7701 2.96857 36.5325 3.30626 37.8468C3.46788 38.4824 2.70669 39.2726 2.69678 39.4277C2.59162 40.9602 3.06589 41.9674 3.0406 43.2882C3.03452 43.5345 2.73282 43.3535 2.68112 43.4958C2.67649 43.5095 2.6739 43.5261 2.67375 43.5459C2.66375 44.3539 2.85587 45.1876 2.85059 45.9445C2.84726 46.2911 2.58415 46.2248 2.61141 46.541C2.67173 47.2809 2.78349 47.9304 3.0137 48.6468C3.03455 48.7133 3.36908 48.2762 3.3691 48.8229C3.36742 49.7067 3.5444 50.7827 3.18488 51.7856C3.07943 52.0935 2.49933 52.0058 2.80256 52.8009C2.80728 52.8121 2.81221 52.8235 2.81736 52.8351C2.89114 52.9992 3.61579 52.8646 2.93794 53.6769C2.82286 53.8139 1.90797 55.1697 2.41724 55.8758C2.55055 56.0613 3.11662 56.5411 3.00883 56.9315C2.99203 56.9841 2.68002 56.7581 2.63589 57.0819C2.48621 58.2279 2.483 59.4323 2.35489 60.6093C2.32015 60.9243 1.99909 60.4465 1.95814 60.9164C1.84505 62.2091 1.90825 63.8314 2.01487 65.1126C2.0549 65.5827 2.32903 65.2563 2.359 65.2909C2.84731 65.8419 2.19463 66.1715 2.15862 66.3596C2.10759 66.6338 2.08804 66.8972 2.08735 67.1449C2.08518 67.9333 2.26926 68.6156 2.23646 69.4168C2.2257 69.7085 1.90501 69.5142 1.87928 69.5731C1.63009 70.1823 2.17437 69.7138 2.25177 70.0895C2.47047 71.1394 2.51201 72.3206 2.53049 73.3542C2.5363 73.7327 2.15033 73.3292 2.15948 73.6671C2.16915 74.0845 2.18125 74.496 2.19394 74.9023C2.25094 76.6451 2.44992 78.3198 2.70756 79.8289C2.76931 80.1872 3.03357 79.9423 3.10218 80.0135C3.58282 80.5084 3.01066 81.2847 2.95778 81.4493C2.89586 81.6518 2.86675 81.8188 2.85703 81.9657C2.83647 82.5488 2.98891 82.9266 3.01818 83.5482C3.22609 86.6142 3.77713 88.9773 3.37619 90.7432C3.50994 90.2527 3.63422 90.1604 3.63949 90.1513C3.65126 90.1491 3.58643 90.2427 3.4754 90.3708C3.36224 90.5033 3.20731 90.6673 2.97857 90.9254C2.8614 91.0598 2.7254 91.2129 2.53397 91.4736C2.3563 91.7723 2.03628 92.0031 1.75666 93.2336C1.61071 93.8609 1.72235 95.102 2.29978 95.9188C2.87112 96.7525 3.39873 97.0204 3.77697 97.2243C6.05619 98.2061 7.31215 98.1427 8.56361 98.3601C10.5458 98.6709 13.4171 99.4048 16.2723 99.749C16.5548 99.7858 16.2256 100.122 16.4715 100.159C17.6251 100.32 18.768 100.401 19.9102 100.434C21.8442 100.488 23.722 100.48 25.625 100.572C25.8688 100.584 25.5128 100.932 25.9044 100.962C26.7071 101.025 27.7241 101.015 28.5338 100.91C28.9299 100.859 28.4021 100.552 28.8005 100.507C29.7261 100.402 30.7163 100.385 31.6621 100.45C32.0633 100.479 31.4517 100.834 31.9768 100.843C32.252 100.848 32.5333 100.854 32.8049 100.86C36.0554 100.899 38.872 101.199 42.5507 100.975C42.8177 100.954 43.0768 100.231 43.6287 100.383C43.6665 100.587 43.6601 100.826 43.6747 101.044C43.7597 101.047 43.8456 101.05 43.9326 101.053C48.0602 101.221 52.4516 100.988 56.1033 101.274C56.6343 101.31 57.5708 101.559 58.8421 101.724C59.16 101.758 58.5444 102.084 59.1969 102.149C59.7686 102.189 60.4457 102.242 61.4487 102.011C62.4167 101.827 63.9323 100.933 64.5871 99.7141C64.944 99.0823 65.0096 98.7571 65.0924 98.4716C65.1643 98.1917 65.2002 97.9858 65.2302 97.7944C65.2872 97.4189 65.311 97.1209 65.3286 96.8411C65.3614 96.2846 65.3613 95.8045 65.3485 95.326C65.3205 94.3797 65.2332 93.48 65.0807 92.5704C65.0383 92.3158 64.3581 92.4568 64.4465 91.713C64.4508 91.6789 64.4586 91.5778 64.4702 91.4387C64.5029 91.0453 64.5673 90.3936 64.6722 90.1738C64.6937 90.1345 65.0169 90.3295 65.0185 89.9725C65.0224 87.8896 64.9027 85.7236 64.6634 83.6463C64.6243 83.3136 64.2923 83.6751 64.2615 83.4394C64.0455 81.7551 64.2643 79.9043 63.928 78.3072C63.7024 77.2328 63.1221 77.6432 62.5363 77.0782C62.4533 76.9973 62.4336 76.3377 62.0976 76.3017C61.2515 76.2166 60.3283 76.5545 59.4261 76.4256C59.2306 76.3995 59.4378 75.4724 58.9697 76.0233C58.9378 76.0595 58.7871 76.7339 58.6304 76.8956C58.5218 77.0115 58.1774 76.8123 58.0394 77.0423C57.9016 77.2798 58.1917 77.5248 58.0323 77.9097C57.8712 78.2962 57.4791 78.1347 57.4467 78.893ZM43.7493 6.38255C43.1022 6.60011 43.2227 5.40659 43.8117 5.80104C43.8401 5.82155 43.7827 6.37218 43.7493 6.38255ZM61.9206 60.4826C61.2546 59.8403 61.95 59.2184 62.4334 59.656C62.9189 60.078 62.1228 60.6714 61.9206 60.4826ZM63.0996 68.5635C62.5963 67.6919 64.2668 67.3609 64.0253 68.3952C64.0115 68.4551 63.1287 68.6147 63.0996 68.5635ZM62.4172 79.7399C62.4011 79.7307 62.3764 79.2518 62.3919 79.239C62.7669 78.9757 62.8161 79.9367 62.4172 79.7399ZM62.9039 76.6727C62.6921 76.3751 62.9892 75.5633 63.2602 75.9306C63.4798 76.2291 63.1693 77.0471 62.9039 76.6727ZM12.7052 3.65095C12.6942 3.66763 12.3479 3.6547 12.3631 3.55507C12.4124 3.23292 12.8884 3.36572 12.7052 3.65095ZM61.5045 90.1758C61.5708 88.1422 60.2059 86.8874 60.2635 89.0591C60.2712 89.4544 60.754 88.2342 60.8543 88.7425C61.036 89.6776 60.1187 90.2262 60.5136 91.1945C60.5871 91.3726 61.5054 90.2955 61.5067 90.1724C61.506 90.1735 61.5052 90.1747 61.5045 90.1758ZM43.1602 7.73784C43.1451 7.75119 42.675 7.68391 42.6644 7.66619C42.475 7.24735 43.4283 7.38369 43.1602 7.73784ZM4.1825 15.5988C4.21239 15.6245 4.24151 16.7214 4.21425 16.7545C3.59232 17.3408 3.52927 15.0952 4.1825 15.5988ZM62.4785 20.6273C62.0514 21.0907 61.929 21.652 62.3368 22.1273C62.3924 21.628 62.4542 21.1286 62.4785 20.6273Z" fill="#3B60FF"/>
<path d="M65.6849 38.3677C66.9471 38.687 68.6653 38.8868 69.9793 38.9813C70.3906 39.0113 70.2273 38.7643 70.513 38.776C71.0726 38.7996 71.5587 39.0006 72.1112 39.0113C72.2952 39.014 72.141 38.6404 72.3317 38.6507C72.3573 38.6521 72.3828 38.6537 72.4081 38.6553C73.4308 38.7251 74.3474 39 75.3716 39.1537C76.6859 39.3506 77.9995 39.5739 79.3102 39.812C82.426 40.3971 85.709 41.4142 88.9364 42.4621C89.4101 42.6178 89.8747 42.773 90.3471 42.9338C91.9881 43.4899 94.056 43.986 95.6594 44.8124C95.847 44.9091 95.6163 45.1315 95.6436 45.1695C96.0738 45.7565 96.1159 45.1278 96.5246 45.2166C97.4669 45.4207 98.3984 45.7494 99.4355 46.1204C100.103 46.3522 100.744 46.6259 101.333 46.9148C101.924 47.2073 101.093 47.5013 101.829 47.447C101.88 47.444 101.844 47.0908 102.024 47.1288C102.432 47.2148 103.129 47.5709 103.432 47.6749C104.016 47.8736 104.109 47.9181 104.646 48.1505C105.381 48.4666 106.316 48.7175 107.079 49.1387C107.241 49.2293 106.885 49.4212 107.133 49.5926C107.38 49.7637 108.111 50.0607 108.386 50.0994C108.66 50.1382 108.658 49.8616 108.725 49.8278C109.274 49.5382 109.845 50.5219 109.95 50.5837C110.392 50.8446 110.837 51.0622 111.286 51.2495C112.725 51.8486 114.158 52.1548 115.635 52.663C117.101 53.1667 118.664 53.7817 120.201 54.0822C120.881 54.2133 121.554 54.2928 122.256 54.3085C123.64 54.3521 124.886 53.8843 125.948 53.3909C126.128 53.3065 126.082 53.7489 126.305 53.6439C126.761 53.4266 127.172 53.2024 127.553 52.9939C128.213 52.5611 129.897 52.417 131.597 51.2075C132.201 50.7831 132.664 50.1426 132.899 49.5574C133.029 49.2224 132.541 49.4873 132.637 49.1651C133.012 47.7576 132.561 46.2999 133.081 45.48C133.238 45.3683 133.505 45.4444 133.829 45.6957C133.891 45.4845 134.897 44.9577 135.541 44.4543C135.974 44.1148 135.379 43.9275 136.045 43.8773C136.196 43.866 136.108 44.2244 136.326 44.1857C136.942 44.0761 137.58 43.8684 138.227 43.7013C138.55 43.618 138.863 43.5494 139.179 43.5101C139.37 43.4875 139.404 43.7734 139.471 43.8062C140.03 44.0683 140.562 43.191 140.703 43.0956C141.803 42.3704 142.726 42.234 143.842 41.8756C144.103 41.7918 143.909 42.251 144.162 42.1841C145.471 41.8346 146.792 41.3775 147.953 40.9131C148.212 40.8098 147.888 40.5556 148.009 40.4901C148.088 40.4478 148.164 40.4245 148.233 40.4153C148.654 40.3571 148.919 40.7337 149.383 40.5149C149.499 40.4614 149.371 40.2058 149.386 40.1712C149.632 39.627 150.078 40.2245 150.168 40.2207C151.281 40.1996 152.065 39.3063 152.799 39.3831C152.78 39.3916 152.833 39.6602 152.724 39.7292C152.704 39.7396 152.674 39.7434 152.628 39.7304C152.453 39.6925 152.253 39.4988 152.225 39.4386C152.185 39.3724 152.209 39.4166 152.22 39.5055C152.248 39.6897 152.258 40.0166 152.256 40.3628C152.262 41.0767 152.184 41.8593 152.387 42.9205C152.635 44.0153 152.963 45.0473 153.32 46.0361C153.453 46.4054 153.644 46.0721 153.681 46.0882C154.27 46.3597 153.671 46.7715 153.677 46.904C153.741 47.928 154.528 48.6993 153.911 49.559C154.483 51.3031 154.925 53.0679 155.382 54.8307C155.931 56.9818 156.086 59.2986 156.457 61.6536C156.465 61.7061 156.802 61.6189 156.815 61.7241C156.967 63.0045 156.449 62.7445 155.769 63.5355C155.598 63.7327 156.32 64.4235 156.371 64.4847C156.561 64.709 157.075 64.5308 157.11 64.6043C157.377 65.214 155.744 64.9759 155.671 65.7431C155.671 65.768 155.983 65.6944 156.007 65.7633C156.081 65.9759 155.941 66.1629 156.024 66.3694C156.216 66.8471 156.994 67.0995 156.451 67.7449C156.386 67.8269 155.574 67.6005 155.449 68.1938C155.442 68.2244 155.437 68.259 155.436 68.2984C155.437 68.5459 155.246 69.7135 155.24 70.0545C155.24 70.3931 155.578 70.2228 155.586 70.2481C155.808 71.2195 156.033 70.9118 156.516 71.4908C156.991 72.078 155.648 71.648 155.455 71.7944C155.263 71.9414 155.424 72.668 155.49 72.8591C155.558 73.0488 155.797 72.8966 155.821 73.057C155.967 74.1261 155.036 73.2865 154.736 73.5298C154.023 74.0793 154.831 74.936 154.661 75.6244C154.615 75.8069 154.455 75.5767 154.372 75.7169C154.363 75.731 154.355 75.745 154.347 75.7589C154.06 76.246 154.121 76.7471 153.468 77.0637C153.347 77.1341 152.587 77.0152 152.598 77.5716C152.597 77.6548 152.874 77.7737 152.694 77.9772C152.428 78.2844 151.802 78.7102 151.356 78.8466C151.028 78.9492 151.17 78.3899 150.856 78.7073C150.715 78.8492 151.145 78.9036 150.87 79.152C150.767 79.2462 150.584 79.3659 150.382 79.4906C150.099 79.671 149.709 79.7853 149.514 79.829C149.196 79.8979 149.298 79.5388 149.267 79.5243C149.094 79.4433 148.491 79.3752 148.438 79.3765C147.948 79.4234 147.445 79.4517 146.94 79.4691C145.93 79.6175 144.649 78.1608 143.509 76.8681C143.108 76.4219 142.7 75.9793 142.285 75.5306C142.125 75.3587 142.473 75.2188 142.451 75.19C141.953 74.5318 141.804 75.629 141.197 75.4914C141.716 75.0262 141.39 74.8994 141.014 74.4866C140.833 74.2878 141.116 74.1737 141.115 74.1371C141.066 73.5683 140.522 73.8058 140.401 73.8453C139.95 73.9896 140.032 73.4519 139.731 73.5457C139.429 73.6359 139.489 74.1948 139.091 73.8537C139.142 73.5713 139.849 73.3216 139.625 72.9926C139.501 72.809 139.349 72.6229 139.18 72.4337C138.023 71.1753 135.995 70.2782 135.172 69.6916C134.817 69.449 134.557 69.2556 134.341 69.0921C133.954 68.7983 133.699 68.6024 133.308 68.3738C132.197 67.7311 132.86 67.631 132.346 66.9777C131.822 66.3256 131.45 67.5187 131.209 67.6583C130.971 67.801 131.024 67.5177 130.831 67.5529C130.639 67.5891 130.781 67.8995 130.489 67.7597C130.201 67.6191 129.723 66.7605 129.764 66.4745C129.846 65.9559 130.342 65.6745 129.946 65.4192C129.878 65.3758 129.784 65.3332 129.655 65.291C129.605 65.2751 129.587 65.6275 129.403 65.5534C128.732 65.2905 128.05 64.9591 127.206 64.8811C126.226 64.8162 125.375 65.1566 124.643 65.5342C124.458 65.6324 124.75 65.8952 124.645 65.9558C123.558 66.5924 123.743 65.9091 122.94 65.4902C123.288 66.1825 123.209 66.7918 122.386 67.0312C122.303 67.0541 122.21 67.0725 122.113 67.0853C121.534 67.1588 121.592 66.7702 121.201 66.5425C121.084 66.4737 120.706 66.7661 120.618 66.595C120.333 66.0356 120.659 65.3635 119.717 65.6895C119.675 65.7046 119.832 66.0118 119.687 66.041C118.744 66.2294 118.595 65.6289 117.556 65.6183C116.983 65.6124 116.106 65.8372 115.313 66.0246C114.975 66.1038 114.652 66.1786 114.376 66.2239C114.488 67.1863 113.606 67.0562 113.167 66.4378C112.568 66.538 111.914 66.5887 111.352 66.7632C111.156 66.8233 111.328 67.0823 111.307 67.116C110.993 67.6426 110.642 67.0376 110.508 67.032C109.256 67.0027 108.296 67.5158 107.136 67.4766C106.976 67.47 106.81 67.4506 106.642 67.4145C106.592 67.404 106.428 66.7487 106.152 67.2815C106.133 67.318 106.604 67.5664 105.995 67.6688C105.39 67.7712 104.247 68.2422 103.355 67.9939C103.138 67.935 102.573 67.427 102.175 67.8812C102.122 67.9429 102.197 68.1317 102.121 68.2444C101.878 68.6036 101.69 67.933 101.413 68.5297C101.136 69.1265 100.506 69.5982 99.603 69.2484C99.5746 69.2384 99.3358 68.7109 99.0606 68.7345C98.9933 68.7403 98.9215 68.7487 98.8462 68.7588C98.4312 68.8145 97.9259 68.9234 97.5355 68.9431C97.3141 68.9541 97.4362 68.6112 97.3975 68.6073C95.8998 68.5065 94.8634 68.8731 93.2801 69.1009C92.9898 69.1434 92.1257 68.7379 91.5831 69.1299C90.9843 69.5581 91.7146 71.171 90.2527 70.8499C89.7775 70.7457 89.159 69.4015 88.4254 69.4455C88.2482 69.4562 88.0558 69.5515 87.8564 69.7707C85.8452 69.5566 84.0008 70.1518 81.9801 69.814C81.8893 69.799 81.5901 69.2227 81.3778 69.2353C81.0628 69.2552 80.8944 69.5313 80.67 69.5542C79.7273 69.657 78.8581 69.4429 77.947 69.4996C77.5994 69.5206 77.7313 69.7993 77.3163 69.8244C76.9049 69.8493 76.6227 69.4847 76.0661 69.677C75.6521 69.8234 75.2414 70.5915 74.6881 70.6939C74.646 69.9472 74.263 69.9719 73.5739 69.7938C73.4432 69.7592 73.5747 69.4951 73.5125 69.4653C73.255 69.3385 73.0309 69.561 72.7812 69.423C72.7225 69.3898 72.7116 69.1346 72.6639 69.0931C72.3022 68.7855 71.7805 69.1709 71.5597 69.3631C71.5206 69.3973 71.4915 69.425 71.4748 69.4412C71.0545 69.8467 70.8258 69.5323 70.4984 69.7101C70.1746 69.8889 70.6933 70.0303 70.3102 70.1558C69.5194 70.4158 68.4756 70.5001 67.6419 70.585C67.3094 70.617 67.5076 70.2576 67.4593 70.2543C67.017 70.2365 66.5828 70.3945 66.2167 70.3299C66.0132 70.3048 65.8271 70.2157 65.6611 69.9916C65.4129 71.7947 65.2262 69.8665 64.2968 70.3782C64.2241 70.4198 64.2762 71.253 64.581 71.3241C64.8841 71.3957 65.2776 71.0713 65.6968 71.2103C65.7764 71.2352 66.1782 71.6836 66.3699 71.8958L66.2861 71.9018C66.3418 71.9604 66.3834 72.0008 66.4008 72.0099C67.0569 72.3448 67.0578 71.0955 67.0837 71.0265C67.39 70.2688 68.1429 71.0389 68.3331 71.077C69.1869 71.2564 69.8548 71.0034 70.5366 71.1336C70.9826 71.2179 71.0842 72.0259 71.4096 71.9787C71.5129 71.9642 71.6085 71.9411 71.6997 71.912C72.5503 71.6414 72.9911 70.788 74.0013 71.6489C74.2396 71.8522 74.0335 72.7458 74.8584 72.026C74.9066 71.9807 75.5181 71.3264 75.8939 71.7217C75.9401 71.7716 75.9448 72.0304 76.0048 72.0507C76.4116 72.1818 76.6743 71.9694 77.1159 72.0581C77.558 72.1468 78.0893 72.2821 78.5879 72.1832C78.89 72.124 79.2662 71.6333 79.4089 71.5121C79.8089 71.1631 80.2601 71.711 80.5047 71.2936C80.7514 70.8741 80.2385 70.2566 80.9016 69.9745C80.9412 70.6463 81.0133 71.3351 81.0682 72.0104C82.5364 71.9544 83.9752 71.705 85.4526 71.6994C85.6347 71.6993 85.4575 72.0652 85.6525 72.0745C86.4815 72.1119 87.1974 71.8362 88.0622 71.9153C88.2065 71.9286 88.3521 71.9556 88.4974 71.9905C89.0566 72.1187 89.649 72.3494 90.2116 72.3998C90.6106 71.6123 91.6653 71.819 92.414 71.7037C92.6764 71.6639 92.6461 71.4598 92.8292 71.3816C93.5191 71.0913 93.2298 71.7901 93.4295 71.8851C94.2867 72.2898 94.2591 70.7489 95.2333 70.7263C95.2839 70.7246 95.965 71.5045 96.0525 71.5504C96.6227 71.8493 96.1261 71.2597 96.4656 71.1784C97.0854 71.0299 97.512 70.8083 98.2583 71.0068C98.4033 71.046 98.6899 71.272 98.9843 71.2968C99.1353 71.3092 99.2827 71.2704 99.4176 71.1301C99.4702 71.0754 99.4247 70.8063 99.4683 70.788C100.257 70.4791 100.328 71.3283 100.806 71.5898C101.286 71.8512 101.966 71.2198 102.102 71.041C102.454 70.5789 101.797 70.8726 101.774 70.8307C101.5 70.3344 102.027 70.3906 102.422 70.3209C102.424 69.4838 102.983 69.4956 102.832 70.2516C102.816 70.3343 102.498 70.2777 102.422 70.3209C102.825 71.1158 103.457 71.1783 104.08 70.3591C104.371 69.9738 104.032 69.5867 105.014 69.6496C105.462 69.6749 105.348 70.2648 105.762 70.3781C106.323 70.5299 106.96 70.3468 107.586 70.1385C107.977 70.0021 108.363 69.8683 108.726 69.8435C109.05 69.8214 108.791 70.183 109.013 70.179C109.605 70.1689 110.076 69.8546 110.674 69.8852C110.729 69.8884 110.651 70.2338 110.831 70.2105C112.194 70.0429 113.345 69.6663 114.727 69.5213C114.961 69.4973 115.263 69.4915 115.579 69.4945C116.188 69.4978 116.876 69.5216 117.343 69.469C118.593 69.3298 120.138 68.7672 121.288 68.7769C122.043 68.7791 121.916 69.1201 122.278 69.3046C122.413 69.3714 122.563 69.3912 122.719 69.377C123.731 69.2616 124.336 68.4466 124.415 68.3221C124.427 68.3175 123.71 68.4713 124.028 68.1894C124.125 67.7857 124.405 68.3237 124.415 68.3221C124.524 68.2057 125.624 67.7085 125.791 67.7304C125.9 67.7314 125.94 68.0468 125.992 68.043C126.483 68.0007 126.758 68.0799 126.749 68.1333C126.601 68.1328 127.254 68.4016 127.877 68.7518C128.01 68.8227 128.145 68.8933 128.282 68.9636C128.307 68.9726 128.463 68.6572 128.522 68.6825C129.349 69.0356 129.578 69.7243 130.026 70.3658C130.474 71.0104 130.998 71.3075 131.726 71.1126C131.897 71.2845 132.138 71.4383 132.398 71.573C132.787 71.7808 133.206 71.9359 133.501 72.039C134.002 72.2132 133.653 72.7989 133.681 72.837C134.531 74.002 135.401 74.1187 136.341 74.8305C136.443 74.9088 136.559 75.0115 136.678 75.1283C137.259 75.6951 137.975 76.36 138.35 76.7399C138.739 77.1355 139.079 77.2097 139.357 77.5909C139.394 77.6418 139.147 77.8272 139.153 77.8483C139.278 78.4478 139.599 77.7421 139.766 77.7149C140.367 77.6199 140.736 77.6112 141.022 78.2495C141.067 78.3505 140.852 78.8659 140.737 79.2524C140.683 79.4326 140.655 79.5889 140.696 79.6694C140.87 80.0039 141.073 79.6493 141.268 80.0349C141.286 80.0691 141.095 80.2079 141.28 80.4175C141.717 80.9071 142.24 81.499 143.073 82.1628C143.868 82.8094 145.278 83.5864 146.814 83.6138C146.839 83.6147 146.86 83.6166 146.879 83.6197C147.023 83.6638 146.799 83.9918 147.086 84.0029C148.502 84.0093 150.144 84.0573 152.225 82.8126C152.241 82.7998 152.257 82.7868 152.273 82.7738C152.469 82.6163 152.208 82.4606 152.219 82.3663C152.29 81.7923 153.103 82.1364 153.199 82.0987C154.963 81.5409 157.015 79.4851 157.864 77.2849C158.051 76.8611 158.237 76.4425 158.445 76.017C158.509 75.9006 159.533 75.1208 159.046 74.5118C159.016 74.4677 158.514 73.878 159.034 73.6179C159.066 73.6011 159.32 73.9489 159.405 73.4777C159.488 73.0086 159.875 72.309 159.644 71.6016C159.572 71.3757 159.033 70.7951 159.636 70.2792C159.678 70.2598 160.97 69.4572 160.218 68.9757C160.127 68.9193 159.654 68.8936 159.602 68.5868C159.578 68.521 159.613 68.41 159.749 68.248C159.846 68.1371 160.007 68.3846 160.161 68.0672C160.399 67.5843 160.254 66.8526 160.693 66.2265C160.771 66.1191 161.388 65.6764 160.988 65.2365C160.926 65.1688 160.635 65.2638 160.621 65.0516C160.551 64.0411 160.8 62.9962 160.63 61.955C160.57 61.5859 160.111 61.7656 159.995 61.3854C159.879 61.0062 159.758 60.2478 159.955 59.845C160.152 59.438 160.892 59.86 160.929 59.2439C161.025 57.4061 160.689 55.5287 160.067 53.6197C159.817 52.8908 159.57 52.1634 159.359 51.4254C159.261 51.0843 159.587 51.3043 159.459 50.7907C158.991 48.9003 158.387 45.594 157.49 44.1502C156.773 42.9879 156.803 44.65 156.41 43.7218C156.221 43.2683 156.951 42.6101 156.958 42.5014C156.966 42.3618 156.966 42.2309 156.96 42.1073C157.007 42.0906 156.947 41.7596 156.914 41.4056C156.878 41.0356 156.858 40.6097 156.901 40.0021C156.919 39.7029 157.268 39.9942 157.277 39.725C157.277 39.2521 157.259 38.7109 156.926 37.7731C156.748 37.3099 156.457 36.6828 155.824 36.0585C155.203 35.4262 154.24 35.0003 153.531 34.8952C153.442 34.8798 153.361 34.8686 153.286 34.8599C152.71 34.8047 152.683 34.7628 152.54 34.6971C152.428 34.6369 152.314 34.5817 152.109 34.6099C151.189 34.7484 150.693 34.9676 150.103 35.3278C150.051 35.3607 150.491 35.6054 150.027 35.709C149.28 35.8766 148.439 36.3095 147.563 36.2537C147.438 36.2454 147.341 36.1076 147.224 36.0242C147.087 35.9366 146.918 35.915 146.67 36.1987C146.571 36.3139 146.899 36.9651 146.093 36.5407C145.957 36.468 144.654 35.9736 144.315 36.6427C144.223 36.819 144.064 37.4811 143.75 37.4821C143.707 37.4799 143.766 37.1258 143.522 37.1688C142.657 37.3278 141.809 37.6303 140.934 37.7973C140.704 37.8403 140.938 37.4199 140.595 37.4948C139.65 37.7008 138.526 38.1351 137.657 38.5071C137.337 38.6447 137.646 38.8384 137.631 38.8743C137.377 39.4597 136.965 38.8976 136.821 38.9012C136.808 38.9015 136.795 38.902 136.783 38.9026C135.947 38.9342 135.418 39.3975 134.606 39.5679C134.378 39.6173 134.44 39.2691 134.388 39.2565C133.835 39.1476 134.358 39.5697 134.078 39.7265C133.286 40.1915 132.303 40.4473 131.018 41.2474C130.536 41.5749 130.868 40.879 130.41 41.2134C129.647 41.7648 128.578 42.991 128.298 44.5145C128.011 46.177 128.003 47.2141 128.096 47.2146C128.147 47.1945 128.392 47.3318 128.453 47.3523C128.662 47.434 128.642 47.3765 128.634 47.2247C128.621 47.078 128.616 46.867 128.635 46.8176C128.646 46.7891 128.658 46.763 128.671 46.7395C128.462 46.6436 128.499 46.8699 128.199 46.9366C127.67 47.0817 126.505 47.1898 124.832 48.064C123.424 48.8679 122.845 49.0822 122.602 49.0986C122.372 49.0988 122.1 49.0802 121.826 49.0495C119.143 48.6879 116.566 48.0036 113.747 46.8362C113.565 46.7602 113.886 46.4871 113.732 46.4172C113.589 46.3535 113.444 46.2898 113.3 46.2277C111.513 45.452 109.626 44.7086 107.736 43.7541C107.568 43.6702 107.959 43.4586 107.694 43.3129C107.151 43.0115 106.42 42.7096 105.792 42.5611C105.485 42.4879 105.747 42.9305 105.442 42.8516C104.732 42.6697 104.001 42.3909 103.324 42.0573C103.036 41.9148 103.62 41.7606 103.233 41.601C102.618 41.3464 101.999 41.0977 101.374 40.8628C99.8158 40.2416 97.6728 39.3139 95.5654 38.8618C95.3761 38.8201 94.9425 39.4355 94.6159 39.1546C94.662 38.9541 94.7516 38.7322 94.819 38.525C93.526 37.9693 92.2177 37.4799 90.8951 37.0285C88.389 36.1768 85.8665 35.4455 83.2494 34.7078C83.0799 34.6604 83.4802 34.3717 83.1522 34.2783C82.3665 34.0557 81.5842 33.8258 80.7448 33.6366C79.6673 33.3956 78.5775 33.2035 77.4112 33.1763C77.213 33.171 77.1629 33.8593 76.6299 33.636C76.5355 33.5956 75.7192 33.3248 75.5302 33.1333C75.5054 33.1052 75.7253 32.8259 75.4562 32.7591C74.8737 32.6168 74.2727 32.4914 73.6751 32.3865C72.6505 32.2063 71.6145 32.0825 70.6016 32.0175C70.3417 32.0015 70.5497 32.3859 70.3643 32.3775C69.0503 32.3157 67.7016 31.8109 66.4097 31.9076C65.5442 31.9751 65.7566 32.6053 65.2268 33.1062C65.1505 33.1761 64.6312 33.1108 64.5589 33.4409C64.3737 34.2683 64.4776 35.2189 64.2497 36.0964C64.1964 36.2832 63.6131 35.9938 63.9098 36.5068C63.9275 36.54 64.3632 36.7606 64.4572 36.9368C64.5194 37.0577 64.3246 37.3736 64.4649 37.5378C64.6064 37.7022 64.8305 37.4474 65.0793 37.6558C65.3295 37.8668 65.143 38.2295 65.6849 38.3677ZM135.718 72.7793C136.271 72.7825 135.603 73.7773 135.395 73.2657C135.385 73.2398 135.69 72.7787 135.718 72.7793ZM83.948 70.8022C84.5282 70.261 84.9557 71.0271 84.5447 71.4443C84.1349 71.8611 83.7704 70.9662 83.948 70.8022ZM77.7821 70.5538C78.4683 70.1223 78.6139 71.816 77.8631 71.4898C77.8194 71.4713 77.7422 70.5789 77.7821 70.5538ZM67.2229 33.6059C67.214 33.6204 66.8472 33.5726 66.8414 33.5557C66.7117 33.1477 67.446 33.2435 67.2229 33.6059ZM71.6767 70.3044C71.8773 70.0633 72.5143 70.3054 72.2533 70.6006C72.0482 70.8366 71.4374 70.6025 71.6767 70.3044ZM155.194 75.8648C155.181 75.8513 155.265 75.5996 155.357 75.6405C155.653 75.7769 155.424 76.0934 155.194 75.8648ZM61.4194 71.5761C61.5934 71.5489 61.7584 71.5016 61.9067 71.441C61.9102 71.4403 61.9208 71.4386 61.9243 71.4377C63.0564 70.9006 63.4064 69.7122 61.9682 70.159C61.6775 70.2502 62.7014 70.4597 62.3497 70.6637C62.1589 70.7742 61.9685 70.7848 61.779 70.7611L61.7947 70.7581C61.3579 70.6787 60.9835 70.3754 60.5096 70.7405C60.3824 70.8379 61.3169 71.6011 61.4225 71.5777C61.4214 71.5771 61.4204 71.5766 61.4194 71.5761ZM136.783 71.7799C136.8 71.7723 137.1 71.9796 137.097 71.9978C137.023 72.4178 136.424 72.0043 136.783 71.7799ZM156.792 60.6982C156.761 60.6789 156.717 59.8475 156.745 59.8197C157.359 59.3613 157.452 61.0717 156.792 60.6982ZM114.364 66.2511C113.923 65.9107 113.429 65.9218 113.169 66.4371C113.564 66.3634 113.964 66.3146 114.364 66.2511Z" fill="#3B60FF"/>
<path d="M62.1343 31.7266C61.6774 31.5061 61.0251 31.3985 60.5175 31.3678C60.3593 31.358 60.3892 31.5327 60.2771 31.5326C60.0594 31.5327 59.8925 31.4022 59.674 31.4148C59.6009 31.4195 59.6121 31.6854 59.537 31.6848C59.1279 31.6807 58.7881 31.5146 58.3897 31.4547C57.862 31.3756 57.3392 31.2862 56.8191 31.1905C55.2709 30.8988 53.9 30.7459 52.6681 30.4341C52.6656 30.4336 52.6632 30.4331 52.6609 30.4327C52.5426 30.4092 52.6282 30.4526 52.7287 30.6277C52.8132 30.8038 52.7216 30.7934 52.6807 30.6439C52.6307 30.4639 52.5997 30.2867 52.5989 30.1113C52.599 30.0394 52.8241 30.045 52.8399 30.0288C53.0824 29.7807 52.6525 29.9177 52.5734 29.7893C52.2616 29.2807 52.188 28.6485 52.2584 28.1098C52.2893 27.8792 52.7337 28.0979 52.4827 27.8758C52.4658 27.8601 52.2319 27.9218 52.2059 27.8595C52.1469 27.7164 52.1898 27.4436 52.1735 27.3316C52.1405 27.1159 52.1441 27.0794 52.1493 26.8744C52.1548 26.5956 52.0597 26.25 52.1386 25.9488C52.1561 25.8849 52.3886 25.9907 52.4382 25.8917C52.4875 25.7924 52.4935 25.518 52.4471 25.4186C52.4003 25.32 52.2081 25.3395 52.1667 25.3185C51.8169 25.1422 52.3581 24.8737 52.3756 24.8346C52.6771 24.1011 52.4889 23.3965 52.5652 22.6187C52.5924 22.3383 52.6367 22.0435 52.6684 21.7376C52.7018 21.4514 52.7396 21.1694 52.7502 20.9022C52.7737 20.2975 52.6951 19.7668 52.7808 19.1608C52.7896 19.0968 53.0631 19.2015 53.0745 19.1234C53.195 18.2952 53.2567 17.4196 53.1146 16.5317C53.1001 16.4425 52.8458 16.5418 52.8164 16.4528C52.7784 16.3352 52.727 16.2027 52.6803 16.064C52.5111 15.5888 52.4244 15.0311 53.2833 14.8422C53.2604 14.4964 53.2424 14.0739 53.0447 13.7511C52.9175 13.5427 52.6348 13.7185 52.766 13.481C52.7954 13.4273 53.0272 13.5149 53.0533 13.4332C53.1629 13.0898 53.1124 12.7033 53.2596 12.3668C53.2901 12.2984 53.5005 12.333 53.5401 12.3159C53.8611 12.1717 53.3712 11.8564 53.3387 11.7926C53.097 11.3101 53.2326 10.9802 53.2613 10.5501C53.2679 10.4501 53.5425 10.5916 53.559 10.4965C53.6074 10.2059 53.6345 9.90773 53.6323 9.61087C53.6305 9.4072 53.6153 9.20393 53.584 9.00297C53.5664 8.89426 53.3145 8.96605 53.2937 8.91267C53.2058 8.67516 53.6675 8.67729 53.5938 8.4518C53.5789 8.40453 53.3693 8.40551 53.3476 8.39463C53.0068 8.2218 53.5253 8.16988 53.5405 8.13855C53.7449 7.73836 53.2559 7.39835 53.3886 6.99683C53.4051 6.94896 53.6499 7.09686 53.6802 6.96038C53.8351 6.26807 53.9217 5.51836 53.9069 4.76608C53.8735 4.80537 53.7744 4.84993 53.7774 4.7766C53.7841 4.73211 53.6562 4.58039 53.6408 4.56135C53.5063 4.19282 53.8212 4.61 53.8354 4.62605C53.8618 4.63223 53.8859 4.63234 53.9097 4.62818C54.158 4.57306 54.3747 4.25272 54.6194 4.76577C55.7996 4.39352 57.3149 5.28536 59.0254 4.97432C59.0468 4.97105 59.0463 4.71702 59.0885 4.71149C59.5929 4.63743 59.4447 5.01061 59.7392 5.52018C59.8193 5.64864 60.1206 5.09203 60.144 5.0505C60.2342 4.89985 60.1732 4.52156 60.2017 4.49304C60.3404 4.35647 60.3576 4.76013 60.4258 5.10001C60.4626 5.31759 60.5074 5.50829 60.6029 5.515C60.6111 5.5135 60.5932 5.28411 60.6163 5.26301C60.6898 5.19688 60.7468 5.29252 60.8208 5.22126C60.985 5.05678 61.1346 4.46773 61.3259 4.85479C61.3469 4.90532 61.1856 5.58593 61.4019 5.59676C61.4905 5.59799 61.8587 5.70911 61.9754 5.70375C62.0936 5.69545 62.0953 5.45762 62.1054 5.45063C62.4997 5.27256 62.4314 5.11788 62.7543 4.76853C63.0889 4.42907 62.6361 5.38056 62.6486 5.51346C62.6608 5.64516 62.9753 5.51964 63.0692 5.47141C63.1611 5.42121 63.1573 5.25898 63.2276 5.23975C63.6988 5.12457 63.1278 5.77528 63.1497 5.97526C63.1866 6.44412 63.7532 5.87345 64.0177 5.94561C64.0878 5.96449 63.9464 6.08599 63.9901 6.1325C64.1641 6.31491 64.4192 6.18935 64.5404 6.53016C64.5594 6.5852 64.5082 7.10755 64.821 6.89582C64.8653 6.86482 64.9152 6.6675 65.0304 6.687C65.0316 6.68722 65.0329 6.68743 65.0342 6.68765C65.2132 6.72323 65.4927 6.82756 65.6276 6.96098C65.7285 7.06093 65.4527 7.2868 65.6533 7.26852C65.741 7.25869 65.6889 7.03128 65.8449 7.02542C65.9984 7.02048 66.3219 7.15019 66.4472 7.19566C66.5708 7.24253 66.4291 7.4519 66.4339 7.47072C66.4684 7.5812 66.6902 7.76774 66.7132 7.77301C66.9068 7.83213 67.1018 7.87131 67.2735 7.89945C67.4326 7.91751 67.6387 7.98165 67.5659 7.91128C67.5979 7.92595 67.5497 7.76341 67.5943 7.76885C67.6246 7.77697 67.6057 7.90617 67.5496 8.02648C67.4354 8.27914 67.2247 8.54503 66.968 8.77624C66.9062 8.83229 66.7481 8.62332 66.7367 8.63015C66.4678 8.77792 67.1316 9.05049 67.1741 9.35093C66.7981 8.99121 66.7922 9.14129 66.6154 9.26457C66.5299 9.32427 66.4093 9.15434 66.3876 9.14823C66.0533 9.0733 66.2926 9.40844 66.3407 9.47819C66.5143 9.73844 66.168 9.6157 66.2874 9.78984C66.4086 9.95928 66.7322 10.0078 66.6191 10.1616C66.4336 10.103 66.1225 9.69732 65.9654 9.78696C65.6569 9.96809 65.3899 10.4454 65.3512 11.0304C65.3432 11.4272 65.3966 11.7932 65.3903 12.0117C65.3792 12.4681 65.3342 12.6094 65.3784 12.8769C65.4615 13.3581 65.116 13.1565 64.9297 13.4399C64.7446 13.7238 65.6402 13.6402 65.8277 13.6952C66.0152 13.7486 65.8164 13.7801 65.9177 13.838C66.019 13.8955 66.1556 13.7941 66.1872 13.9158C66.2187 14.0365 65.8606 14.3422 65.659 14.374C65.232 14.4396 64.7972 14.2659 64.9351 14.5942C64.9433 14.613 65.1796 14.5664 65.1994 14.6377C65.3484 15.2042 65.3323 15.7804 65.4642 16.3418C65.4827 16.4189 65.7453 16.3635 65.759 16.4085C65.9024 16.878 65.4732 16.6925 64.9748 16.9199C65.624 16.8958 66.0129 17.0552 65.9979 17.4072C65.9889 17.6193 65.7087 17.5666 65.502 17.6919C65.4398 17.7288 65.6248 17.8895 65.4904 17.9085C65.1991 17.9497 64.891 17.8895 64.7668 17.9512C64.7038 17.9826 64.688 18.0469 64.7455 18.1721C64.7538 18.1885 64.9943 18.153 65.0053 18.2083C65.0775 18.5674 64.6213 18.582 64.5426 18.9603C64.4808 19.2571 64.724 19.8068 64.7474 20.1505C65.474 20.1891 65.2873 20.5011 64.7783 20.5996C64.7846 20.8223 64.741 21.0591 64.7963 21.2774C64.8152 21.3525 65.0285 21.3178 65.0506 21.3286C65.3978 21.4941 64.9044 21.5585 64.8822 21.6051C64.6629 22.1103 65.0041 22.5563 64.61 23.0258C64.5958 23.0425 64.0897 23.0362 64.4489 23.1934C64.4737 23.2037 64.7142 23.0562 64.7162 23.2896C64.7182 23.523 64.9583 23.9795 64.7018 24.2855C64.656 24.3401 64.4114 24.4474 64.4137 24.5717C64.4147 24.6135 64.4454 24.6574 64.5249 24.7033C64.5666 24.7271 64.713 24.7164 64.7909 24.7527C65.0389 24.8723 64.5255 24.8773 64.9463 25.0329C65.367 25.1882 65.6633 25.48 65.321 25.7693C65.3109 25.779 64.8993 25.7997 64.8909 25.9012C64.8779 26.0639 64.9248 26.3065 64.8938 26.4749C64.8789 26.5554 64.6396 26.462 64.6327 26.4752C64.4028 26.9898 64.5497 27.4147 64.544 28.0131C64.5435 28.1218 64.1526 28.3739 64.3875 28.6251C64.6457 28.8978 65.8985 28.8579 65.5348 29.3157C65.4681 29.4007 65.0956 29.4563 64.7871 29.5445C64.4254 29.6515 64.1519 29.7864 64.5564 30.0523C64.2537 30.7556 64.5417 31.532 64.0498 32.1948C64.0276 32.2254 63.5791 32.1988 63.5619 32.2714C63.5366 32.3812 63.7093 32.5065 63.694 32.5899C63.6333 32.9411 63.3456 33.1635 63.2167 33.4638C63.1658 33.5785 63.3728 33.6418 63.3056 33.7826C63.2387 33.9183 62.9716 33.8656 62.9479 34.0745C62.9468 34.0835 62.9461 34.093 62.9458 34.103C62.9458 34.2822 63.289 34.7717 63.1648 35.0048C62.7452 34.6312 62.6537 34.7547 62.363 34.8117C62.3078 34.8213 62.2194 34.64 62.1872 34.6364C62.0571 34.6154 62.0947 34.7919 61.9617 34.754C61.93 34.7447 61.8166 34.5903 61.7856 34.5729C61.526 34.415 61.5833 34.8815 61.5762 34.97C61.5772 35.294 61.3958 35.104 61.3359 35.2525C61.2673 35.4031 61.4943 35.4603 61.3819 35.5805C61.1916 35.7787 60.8809 35.8756 60.5924 35.9138C60.5893 35.9144 60.5799 35.915 60.5768 35.9154C60.5037 35.9211 60.433 35.9246 60.3662 35.9285C60.2376 35.9342 60.3202 35.6763 60.3016 35.6712C60.0518 35.612 59.7772 35.8689 59.6702 35.352C59.5664 35.8804 59.5193 35.9571 59.4799 35.878C59.4183 35.7602 59.3813 35.3163 59.1689 35.4375C59.1437 35.4541 58.9678 36.0555 59.0883 36.17C59.1809 36.2564 59.34 36.1772 59.457 36.1968C59.495 36.2034 59.5327 36.2208 59.5686 36.2577C59.6005 36.2938 59.7909 36.8888 59.8257 36.925C60.0751 37.2109 60.1285 36.2779 60.1383 36.2274C60.2622 35.7498 60.4776 36.1555 60.6042 36.2903C60.6117 36.2892 60.6344 36.2879 60.6418 36.2864C60.6622 36.3057 60.6791 36.3191 60.6908 36.3231C61.1085 36.4605 61.3811 36.2351 61.7207 36.2473C61.9429 36.2515 62.2295 36.7889 62.3891 36.6863C62.9284 36.3137 62.5312 35.5483 63.4223 35.7411C63.6134 35.7728 64.009 36.3342 63.9493 35.6316C63.9521 35.5815 63.7891 35.0367 64.1364 35.0689C64.1811 35.0723 64.3382 35.1863 64.3705 35.1691C64.4046 35.1503 64.4322 35.1286 64.4551 35.105C64.5633 34.9977 64.5446 34.8449 64.6887 34.727C64.8603 34.5867 65.0825 34.412 65.129 34.1664C65.1588 34.0171 64.9027 33.7041 64.846 33.6116C64.6826 33.348 65.1406 33.3232 64.8897 33.1102C64.6339 32.9048 64.1253 32.9277 64.0226 32.617C64.5023 32.7731 64.9996 32.9189 65.4857 33.0647C65.6827 32.4273 65.6605 31.7905 65.7899 31.2084C65.8063 31.1361 66.0596 31.2593 66.0841 31.182C66.1861 30.8542 66.0383 30.5404 66.1607 30.22C66.2201 30.0658 66.3659 29.9151 66.4929 29.7611C66.569 29.6793 66.6387 29.5981 66.6781 29.5138C66.1258 29.2921 66.3729 28.965 66.3644 28.6974C66.3615 28.6034 66.2086 28.5836 66.1701 28.5099C66.0292 28.2305 66.512 28.4335 66.6027 28.3794C66.991 28.1476 65.8593 27.9203 65.951 27.5708C65.9555 27.5528 66.6027 27.4301 66.6462 27.4041C66.9287 27.2427 66.4414 27.3327 66.4194 27.1963C66.379 26.9462 66.2627 26.7581 66.4864 26.5031C66.5523 26.4298 66.9632 26.2842 66.6933 26.0751C66.6579 26.0479 66.4549 26.0312 66.4455 26.0122C66.2924 25.6718 66.926 25.7462 67.1638 25.5824C67.4017 25.4168 66.9913 25.0741 66.8691 25.0064C66.5546 24.8241 66.7189 25.1116 66.6854 25.1171C66.2937 25.1769 66.38 24.9768 66.3597 24.8163C66.0826 24.7842 65.9395 24.7249 65.9141 24.6794C65.8823 24.6257 66.0344 24.5916 66.3404 24.6548C66.3666 24.6603 66.3688 24.6841 66.3652 24.7118C66.3602 24.751 66.345 24.7972 66.3597 24.8163C66.4951 24.7967 66.6056 24.7693 66.69 24.7351C66.9935 24.6262 66.9573 24.4409 66.5221 24.2151C66.2616 24.0798 65.9408 24.168 66.0799 23.823C66.1427 23.6668 66.5689 23.7576 66.696 23.6247C66.9859 23.3197 66.6127 22.8723 66.6981 22.5438C66.7291 22.4245 66.9569 22.5579 66.9862 22.4769C67.0647 22.2618 66.9006 22.0568 67.0055 21.8426C67.0153 21.8233 67.2589 21.8881 67.2665 21.8198C67.329 21.3024 67.1999 20.8408 67.2299 20.2988C67.2445 20.0373 67.41 19.5774 67.3996 19.305C67.3862 18.9279 67.1774 18.4679 67.1509 18.0982C67.1443 18.0039 67.1492 17.9122 67.1714 17.8319C67.2425 17.5678 67.4858 17.6412 67.6604 17.5356C67.9986 17.3319 67.4338 16.9141 67.3459 16.8585C67.343 16.857 67.2734 17.0802 67.1527 16.9532C66.892 16.87 67.3446 16.8611 67.3459 16.8585C67.2892 16.8207 67.2551 16.3674 67.3066 16.2802C67.3347 16.233 67.5674 16.2714 67.5777 16.2466C67.8161 15.6551 67.9042 15.0629 67.8292 14.4618C67.8251 14.4511 67.5625 14.4517 67.5561 14.4265C67.4601 14.074 67.7942 13.8739 68.0038 13.6095C68.2134 13.3452 68.1675 13.1266 67.7337 12.9252C67.808 12.7237 67.6395 12.4138 67.5393 12.2335C67.4392 12.0513 67.9485 12.0957 67.9602 12.0824C68.1574 11.8761 68.1831 11.7135 68.1678 11.5493C68.117 11.6002 68.0358 11.5661 68.055 11.481C68.063 11.4042 68.2965 11.1878 68.4765 11.0568C68.6141 10.9565 68.5938 10.7953 68.7687 10.7083C68.7924 10.6962 68.9488 10.8628 68.9603 10.8628C69.2996 10.8848 68.8151 10.5968 68.768 10.4994C68.6008 10.1402 68.518 9.94544 68.8484 9.81374C68.9213 9.78695 69.6905 10.1087 69.8419 9.98122C70.0356 9.81259 69.7408 9.73957 69.9588 9.52978C69.9779 9.50793 70.1221 9.61903 70.2268 9.41882C70.3705 9.10817 70.6094 8.70033 70.6298 7.82828C70.6903 6.9135 69.9566 5.7972 69.4452 5.49207C68.9505 5.13795 68.7169 5.09799 68.5316 5.02667C68.3503 4.96761 68.2287 4.93586 68.1231 4.90384C68.0445 4.88113 68.2161 4.63639 68.1061 4.60014C67.6281 4.44544 67.3841 4.38841 67.0917 4.4138C67.0218 4.42157 66.9841 4.61797 66.9494 4.66683C66.7275 4.95797 66.8186 4.43531 66.8113 4.4205C66.7316 4.31061 66.6473 4.24613 66.5541 4.19854C66.1521 3.9802 65.6366 3.88445 65.1319 3.39737C65.1014 3.36313 65.0111 2.67886 64.6172 3.00616C64.5892 3.02676 64.2108 3.37255 64.2081 3.00521C64.2071 2.98198 64.4246 2.81087 64.2241 2.74278C64.0268 2.67613 63.765 2.38042 63.3854 2.53122C63.2618 2.57711 62.9107 2.95995 62.7592 2.51487C62.7631 2.4854 62.5355 1.52412 62.2373 2.07363C62.1893 2.16489 62.0828 2.78449 61.8255 2.40483C61.7739 2.33163 61.9143 2.21296 61.7621 2.0968C61.5216 1.91743 61.1603 2.04235 60.8622 1.73985C60.8252 1.70235 60.7109 1.47475 60.5666 1.45024C60.5341 1.44072 60.4993 1.46868 60.4626 1.56562C60.4434 1.61575 60.4648 1.8285 60.4063 1.84907C60.1243 1.94729 59.8486 1.77782 59.5383 1.88176C59.4267 1.91771 59.4315 2.26368 59.3049 2.33717C59.1788 2.41089 58.9272 2.45738 58.8332 2.28087C58.7388 2.10437 58.9717 1.59443 58.8007 1.51741C58.0581 1.18862 57.0956 1.24544 55.8898 1.1696C55.7094 1.16104 55.8785 0.977949 55.6025 0.955179C54.9398 0.890152 53.7307 0.876675 52.8082 1.26872C52.1218 1.50879 51.2463 2.15466 50.9068 3.0032C50.7086 3.49445 50.7423 3.73958 50.7863 3.82148C50.8361 3.90663 50.9215 3.85156 51.0069 3.79151C51.1905 3.66763 51.3131 3.52953 51.2017 4.14145C51.19 4.23458 51.1668 4.3228 51.136 4.41001C51.014 4.54606 50.5475 4.62625 50.526 4.65958C50.2692 5.04552 50.5034 5.37833 50.3616 5.75365C50.3322 5.83124 50.0899 5.71532 50.0676 5.7819C49.9894 6.00896 50.0663 6.27447 50.0129 6.50062C49.9884 6.60215 49.7971 6.55537 49.7986 6.65304C49.8002 6.88575 49.854 7.10092 50.0068 7.34952C50.0208 7.37196 50.2803 7.26643 50.2672 7.43696C50.2453 7.71483 50.3836 8.07764 50.1625 8.37693C50.0963 8.46461 49.6502 8.42236 49.9364 8.65951C49.9962 8.70981 50.5365 8.70821 50.0504 8.90049C49.9975 8.92126 49.6944 9.07506 49.6008 9.24804C49.552 9.33381 49.5607 9.42627 49.6936 9.50346C49.7951 9.56284 50.2222 9.72971 50.1439 9.83387C50.1316 9.848 49.8971 9.76702 49.8659 9.85713C49.7599 10.1746 49.7577 10.5146 49.6563 10.8407C49.6287 10.9278 49.3911 10.7758 49.3579 10.9065C49.2665 11.2654 49.2955 11.7245 49.3476 12.0855C49.3672 12.2187 49.5794 12.1429 49.6011 12.1541C49.9541 12.3331 49.4564 12.3887 49.4242 12.4376C49.2303 12.7422 49.4448 12.9994 49.3646 13.2874C49.3431 13.3668 49.1124 13.2944 49.0905 13.3091C48.8754 13.4626 49.3044 13.3658 49.344 13.4743C49.4564 13.7781 49.4173 14.1061 49.3699 14.4041C49.3522 14.5138 49.0875 14.3738 49.0747 14.4729C49.0102 14.9411 48.994 15.4302 49.0567 15.9137C49.0727 16.0174 49.0928 16.1192 49.1171 16.2212C49.1406 16.3178 49.3533 16.2696 49.4 16.2922C49.727 16.4515 49.2572 16.6277 49.2104 16.6711C48.9971 16.8694 49.1753 16.9662 49.1249 17.154C48.8772 18.0563 48.8421 19.321 48.8442 20.3579C48.8437 20.7973 48.8647 21.2101 48.8928 21.6091C48.9583 22.1693 48.953 22.8314 48.8194 23.6076C48.807 23.6817 48.5397 23.5714 48.5254 23.635C48.3524 24.4616 48.3545 25.3564 48.2195 26.2824C48.2089 26.3589 47.9513 26.2321 47.9255 26.3557C47.8709 26.6088 47.8726 26.938 47.9523 27.2029C47.9908 27.3309 48.2206 27.1647 48.2548 27.2925C48.3353 27.5918 48.3559 27.9057 48.3227 28.215C48.3082 28.3467 48.0315 28.1571 48.0339 28.3283C48.0459 29.3942 48.1318 30.4815 48.6024 31.4871C48.6599 31.6394 48.7291 31.8064 48.8216 31.994C48.9001 32.1477 49.4411 32.0726 49.5209 32.459C49.4007 32.5578 49.2426 32.6425 49.1068 32.734C49.3333 33.1887 49.7864 33.7099 50.2356 34.007C50.6847 34.3128 51.0562 34.4448 51.3383 34.5373C52.6381 34.9421 53.825 35.0455 54.8725 35.2811C54.9286 35.2937 54.7631 35.5529 54.8704 35.5785C55.1004 35.6338 55.3155 35.7004 55.5201 35.7571C55.9316 35.8715 56.3539 35.9557 56.8305 35.9042C56.9056 35.8964 57.0137 35.3942 57.1906 35.5262C57.2217 35.5499 57.5016 35.7025 57.5476 35.8318C57.5534 35.851 57.4321 36.0647 57.5262 36.0994C58.075 36.2974 58.6755 36.4172 59.2746 36.4427C59.3717 36.4465 59.3483 36.1738 59.4179 36.1744C59.9111 36.1799 60.35 36.5136 60.846 36.423C61.1784 36.3616 61.2004 35.908 61.4826 35.5414C61.5205 35.489 61.7032 35.5356 61.7876 35.2979C62.0016 34.7004 62.1193 34.0098 62.3577 33.3762C62.4086 33.2394 62.6127 33.4683 62.5707 33.0861C62.5639 33.0591 62.4201 32.8919 62.4091 32.7636C62.4018 32.675 62.5333 32.4472 62.5022 32.327C62.4701 32.2067 62.3379 32.3909 62.2689 32.24C62.2028 32.0885 62.3328 31.823 62.1343 31.7266ZM67.1094 11.424C67.0692 11.3887 67.0675 11.3649 67.0895 11.3506C67.1624 11.333 67.5384 11.4302 67.5809 11.4412C67.5878 11.4573 67.5773 11.4738 67.542 11.4905C67.5295 11.4956 67.1199 11.4336 67.1094 11.424ZM64.9868 31.6552C64.6503 31.3443 65.25 31.3036 65.5167 31.5288C65.7807 31.7615 65.0876 31.7535 64.9868 31.6552ZM63.8755 33.9016C63.7284 33.5143 64.8918 34.0329 64.5053 34.2153C64.4828 34.2262 63.8833 33.9251 63.8755 33.9016ZM60.8034 35.2054C60.8099 35.1949 60.9404 35.2222 60.9414 35.2349C60.9276 35.5284 60.6629 35.4724 60.8034 35.2054ZM61.9492 35.5114C61.9371 35.3225 62.2505 35.3541 62.2773 35.5924C62.2914 35.7916 61.9551 35.7548 61.9492 35.5114ZM64.2528 5.57601C64.2435 5.58596 64.1537 5.5452 64.1945 5.48163C64.3266 5.27695 64.4087 5.40781 64.2528 5.57601ZM57.9551 35.5029C58.5366 35.7198 59.1685 34.8173 58.6219 34.7293C58.517 34.7081 58.6982 35.1251 58.5388 35.1611C58.2324 35.2192 58.3649 34.5507 57.9796 34.7532C57.9059 34.7893 57.9184 35.4924 57.9554 35.5047C57.9553 35.5041 57.9552 35.5035 57.9551 35.5029ZM66.065 11.1436C66.0526 11.1384 66.0734 11.0029 66.0867 11.0033C66.3757 11.02 66.3439 11.2471 66.065 11.1436ZM58.6946 4.67395C58.6835 4.69838 58.3631 4.66541 58.3572 4.64C58.2821 4.15345 58.9126 4.21602 58.6946 4.67395ZM64.7664 20.1571C64.4711 20.2857 64.4263 20.4591 64.7779 20.5989C64.7682 20.4519 64.7747 20.3048 64.7664 20.1571Z" fill="#3B60FF"/>
<path d="M61.0867 72.8906C60.6021 73.0407 59.9411 73.05 59.4345 73.0049C59.2766 72.991 59.3322 72.8227 59.2213 72.8061C59.006 72.7736 58.8216 72.8779 58.6074 72.8329C58.5358 72.8173 58.5864 72.5561 58.5121 72.5455C58.107 72.4887 57.7462 72.6024 57.3434 72.6024C56.8098 72.6021 56.2794 72.6126 55.7509 72.6299C54.1765 72.688 52.7981 72.6353 51.5335 72.7604C51.531 72.7604 51.5286 72.7605 51.5262 72.7606C51.4058 72.7663 51.4969 72.7361 51.6223 72.5779C51.732 72.4163 51.64 72.413 51.5772 72.5548C51.501 72.7253 51.444 72.8959 51.4171 73.0693C51.4065 73.1404 51.6299 73.1683 51.6431 73.1866C51.8461 73.4681 51.4413 73.2686 51.3439 73.3838C50.96 73.8404 50.7932 74.4546 50.7826 74.9978C50.7789 75.2305 51.2508 75.0802 50.9696 75.2626C50.9505 75.2756 50.7285 75.1798 50.6935 75.2375C50.6138 75.3702 50.6156 75.6464 50.5829 75.7547C50.5182 75.9631 50.5163 75.9997 50.4909 76.2032C50.4549 76.4797 50.3094 76.8073 50.3426 77.1169C50.3504 77.1827 50.5961 77.1127 50.6304 77.218C50.6644 77.3235 50.6295 77.5958 50.5688 77.6872C50.5079 77.7777 50.3207 77.7297 50.2766 77.7444C49.9045 77.8667 50.3997 78.2127 50.4112 78.2539C50.6002 79.0241 50.3093 79.693 50.269 80.4734C50.2542 80.7547 50.2541 81.0529 50.24 81.3601C50.2304 81.6481 50.2258 81.9325 50.1966 82.1984C50.1298 82.7998 49.9731 83.3129 49.9677 83.9249C49.9669 83.9895 50.253 83.9267 50.2526 84.0056C50.2485 84.8425 50.1793 85.7175 49.9066 86.5744C49.8791 86.6604 49.6423 86.5245 49.6 86.6081C49.5449 86.7187 49.4744 86.8421 49.4076 86.9723C49.1696 87.417 49.0009 87.9556 49.8221 88.2703C49.748 88.6087 49.6674 89.0238 49.4238 89.3136C49.267 89.5008 49.0136 89.2849 49.1081 89.5393C49.1291 89.5968 49.3713 89.5447 49.385 89.6293C49.4423 89.9852 49.3349 90.3598 49.4304 90.7145C49.4503 90.7867 49.6636 90.7838 49.7002 90.8066C49.9962 90.9969 49.4648 91.2359 49.4232 91.2941C49.1123 91.7353 49.1974 92.0817 49.1618 92.5113C49.1535 92.6112 49.446 92.5121 49.4482 92.6086C49.4528 92.9031 49.4353 93.202 49.3889 93.4953C49.3568 93.6964 49.3116 93.8951 49.2507 94.0892C49.2171 94.1941 48.9787 94.0856 48.9502 94.1353C48.828 94.3571 49.2848 94.4237 49.1784 94.6357C49.1566 94.6802 48.9495 94.6481 48.9264 94.6556C48.5637 94.7758 49.0687 94.9043 49.079 94.9375C49.2216 95.3637 48.6875 95.6271 48.759 96.0439C48.7682 96.0937 49.0322 95.9839 49.0419 96.1234C49.0921 96.831 49.0662 97.5853 48.9396 98.327C48.9124 98.2831 48.8211 98.2243 48.8131 98.2973C48.8131 98.3423 48.6641 98.4733 48.646 98.4898C48.4582 98.8342 48.8317 98.4686 48.8481 98.4548C48.8751 98.4526 48.899 98.4561 48.9219 98.4638C49.1592 98.5552 49.3259 98.9042 49.6441 98.4333C50.7558 98.977 52.3869 98.3205 54.0321 98.8826C54.0528 98.889 54.0146 99.1401 54.0554 99.1519C54.5432 99.3002 54.4522 98.9091 54.8192 98.449C54.9175 98.3339 55.1327 98.9291 55.1497 98.9737C55.2164 99.1361 55.0998 99.5011 55.1238 99.5335C55.2405 99.6892 55.3177 99.2926 55.4356 98.9666C55.5044 98.757 55.5771 98.5751 55.6725 98.5826C55.6804 98.5853 55.6285 98.8095 55.6483 98.8338C55.7111 98.9101 55.7818 98.824 55.8443 98.9055C55.9822 99.0926 56.0424 99.6973 56.2892 99.3431C56.3175 99.2962 56.2593 98.5992 56.4748 98.6207C56.5626 98.6326 56.9433 98.5775 57.0579 98.6002C57.1735 98.626 57.1398 98.8614 57.1487 98.8698C57.5121 99.1046 57.4216 99.2474 57.6889 99.6409C57.9692 100.026 57.6631 99.0181 57.6952 98.8885C57.7269 98.7601 58.0192 98.931 58.1049 98.9927C58.1883 99.056 58.1604 99.2159 58.2271 99.2453C58.6759 99.4293 58.208 98.7009 58.2595 98.5064C58.3657 98.0483 58.8411 98.6969 59.1134 98.6649C59.1855 98.6566 59.0637 98.5154 59.1139 98.476C59.3131 98.3215 59.5467 98.4836 59.7173 98.1646C59.7442 98.113 59.7713 97.5888 60.0491 97.8448C60.0883 97.882 60.1083 98.0845 60.2251 98.0824C60.2264 98.0824 60.2277 98.0824 60.229 98.0823C60.4113 98.0738 60.7032 98.0122 60.8565 97.9003C60.971 97.8165 60.732 97.5521 60.9276 97.6C61.0129 97.6228 60.9276 97.8399 61.0809 97.8689C61.232 97.8967 61.5712 97.8165 61.7018 97.7902C61.831 97.7622 61.722 97.5341 61.7296 97.5162C61.7801 97.4121 62.0272 97.2606 62.0508 97.2589C62.251 97.2292 62.4496 97.2195 62.6237 97.2172C62.7836 97.223 62.997 97.1902 62.9145 97.249C62.9483 97.2392 62.8765 97.3928 62.9214 97.3941C62.9526 97.3905 62.9532 97.26 62.9156 97.1326C62.8403 96.8658 62.6715 96.5715 62.452 96.3047C62.3992 96.2401 62.2118 96.4232 62.2015 96.4148C61.9576 96.2286 62.6546 96.0578 62.7413 95.7671C62.316 96.0669 62.3324 95.9175 62.176 95.7694C62.1003 95.6976 61.9557 95.8477 61.9334 95.8505C61.5916 95.8748 61.8782 95.5791 61.9361 95.5172C62.1465 95.2857 61.7858 95.3556 61.9297 95.2011C62.0749 95.0516 62.4021 95.0518 62.3131 94.8828C62.1209 94.9132 61.7529 95.2681 61.6109 95.1561C61.3328 94.931 61.1398 94.4193 61.1886 93.8351C61.2396 93.4415 61.347 93.0876 61.3732 92.8705C61.4301 92.4175 61.4067 92.2711 61.4902 92.0132C61.6439 91.5497 61.2723 91.6976 61.1303 91.3897C60.9894 91.0814 61.8626 91.2973 62.0562 91.2709C62.2496 91.2459 62.0577 91.1852 62.1665 91.143C62.2752 91.1012 62.3952 91.2218 62.4446 91.1062C62.4936 90.9915 62.185 90.6359 61.9905 90.5745C61.5779 90.4461 61.1222 90.5531 61.3073 90.2491C61.3183 90.2317 61.545 90.3129 61.5751 90.2453C61.8067 89.7073 61.8766 89.1351 62.0905 88.5996C62.1203 88.5261 62.3718 88.62 62.392 88.5775C62.6037 88.1346 62.1516 88.2542 61.6926 87.9552C62.331 88.0756 62.7393 87.9758 62.7768 87.6255C62.7995 87.4144 62.5145 87.4248 62.3288 87.2702C62.2728 87.2245 62.4796 87.093 62.3496 87.0543C62.0676 86.9701 61.754 86.9838 61.6404 86.9043C61.5827 86.864 61.5767 86.798 61.6522 86.6827C61.6628 86.6678 61.8953 86.7387 61.9144 86.6856C62.0393 86.3412 61.5903 86.2589 61.5687 85.8731C61.5518 85.5704 61.8741 85.063 61.9484 84.7266C62.6727 84.7966 62.5344 84.4603 62.0457 84.2871C62.0851 84.0678 62.0772 83.8272 62.1645 83.6195C62.1943 83.5481 62.4001 83.6142 62.4235 83.6068C62.7914 83.4947 62.3132 83.3577 62.2981 83.3083C62.1564 82.7761 62.5602 82.3858 62.2403 81.863C62.2288 81.8443 61.7273 81.7752 62.106 81.6732C62.132 81.6667 62.3479 81.8483 62.3846 81.6178C62.4213 81.3874 62.7266 80.9716 62.5185 80.6309C62.4813 80.5701 62.2554 80.4276 62.2762 80.305C62.2834 80.2638 62.3204 80.2249 62.4057 80.1914C62.4506 80.1741 62.5937 80.2064 62.6762 80.1822C62.9391 80.1007 62.4323 80.0194 62.8715 79.9282C63.3106 79.8372 63.647 79.5928 63.3516 79.2557C63.343 79.2446 62.9391 79.1629 62.9459 79.0613C62.9572 78.8985 63.0397 78.6655 63.0341 78.4944C63.0313 78.4126 62.7808 78.4694 62.776 78.4552C62.6252 77.9122 62.8337 77.5139 62.9171 76.9213C62.9328 76.8137 62.5838 76.5063 62.8534 76.2928C63.1493 76.0616 64.3822 76.2874 64.0906 75.7806C64.0373 75.6867 63.6773 75.5762 63.3853 75.4431C63.0436 75.2835 62.7931 75.1094 63.2328 74.9067C63.038 74.1662 63.4384 73.4412 63.0505 72.7126C63.0332 72.679 62.5857 72.6386 62.5794 72.5642C62.5708 72.4519 62.7603 72.3537 62.7575 72.269C62.7497 71.9127 62.4983 71.65 62.4155 71.3338C62.3823 71.2128 62.5964 71.181 62.5509 71.0318C62.5049 70.8876 62.2329 70.8999 62.2406 70.6899C62.2408 70.6808 62.2415 70.6713 62.2427 70.6614C62.2693 70.4842 62.6816 70.0512 62.5935 69.8022C62.123 70.1092 62.0508 69.9735 61.7719 69.8739C61.7187 69.8561 61.6043 70.0223 61.572 70.0211C61.4401 70.0224 61.5036 69.8535 61.3665 69.8712C61.3337 69.8757 61.1986 70.0115 61.1653 70.0241C60.8851 70.1416 61.0113 69.6889 61.0173 69.6002C61.0666 69.2801 60.8589 69.4409 60.8218 69.2851C60.7764 69.126 61.0093 69.1033 60.916 68.9676C60.7573 68.7434 60.4646 68.6013 60.1849 68.5206C60.182 68.5195 60.1727 68.5176 60.1697 68.5167C60.0983 68.5002 60.0289 68.4862 59.9635 68.4724C59.8371 68.4477 59.8804 68.7149 59.8612 68.7172C59.6055 68.7386 59.3721 68.4437 59.1894 68.939C59.1654 68.401 59.1302 68.3181 59.0795 68.3905C59.0011 68.4978 58.8984 68.9313 58.7064 68.7798C58.6839 68.7597 58.5995 68.1387 58.7357 68.0435C58.8401 67.9718 58.9856 68.0738 59.1042 68.0718C59.1429 68.071 59.1827 68.0594 59.2237 68.0282C59.2606 67.9972 59.5374 67.4373 59.5772 67.4066C59.8664 67.161 59.7804 68.0916 59.7826 68.1429C59.834 68.6336 60.1074 68.2645 60.2526 68.15C60.2599 68.1522 60.2821 68.1569 60.2892 68.1595C60.3122 68.1435 60.331 68.1327 60.3431 68.1305C60.7766 68.0568 61.0127 68.3202 61.3503 68.3587C61.5707 68.3876 61.9341 67.8988 62.0765 68.024C62.5544 68.4727 62.0478 69.1705 62.9577 69.1124C63.1514 69.1096 63.6261 68.6132 63.4625 69.2992C63.4578 69.3491 63.2156 69.8636 63.5638 69.8834C63.6085 69.8867 63.7808 69.7973 63.8102 69.8191C63.8412 69.8428 63.8652 69.8683 63.8843 69.8951C63.9754 70.0174 63.9341 70.1656 64.0591 70.3036C64.2079 70.4679 64.4016 70.6738 64.4111 70.9235C64.4183 71.0756 64.1185 71.347 64.0486 71.4301C63.8479 71.6664 64.2971 71.7591 64.0173 71.9324C63.7338 72.0974 63.2342 71.9991 63.0864 72.2911C63.584 72.2081 64.0975 72.1379 64.5999 72.066C64.6998 72.7257 64.5831 73.352 64.6245 73.9469C64.63 74.0209 64.8988 73.9367 64.9115 74.0168C64.9636 74.3561 64.7708 74.6445 64.8441 74.9795C64.8799 75.1408 65.0017 75.3115 65.1044 75.4827C65.1675 75.5749 65.2243 75.6656 65.2507 75.7548C64.6715 75.8919 64.8672 76.2521 64.819 76.5154C64.8022 76.608 64.648 76.6048 64.599 76.6719C64.4181 76.9273 64.9257 76.7983 65.0074 76.8654C65.3569 77.1523 64.2039 77.2087 64.2427 77.568C64.2443 77.5865 64.8661 77.8041 64.9053 77.8363C65.1606 78.0379 64.6921 77.8764 64.6501 78.008C64.5729 78.2494 64.4299 78.4181 64.6131 78.7035C64.6674 78.7858 65.0521 78.9909 64.7541 79.1575C64.7151 79.1791 64.5118 79.1654 64.4997 79.1828C64.2977 79.4967 64.9353 79.5174 65.1461 79.7147C65.3567 79.9139 64.8999 80.1917 64.7689 80.2405C64.4309 80.374 64.636 80.1141 64.6038 80.1037C64.2254 79.9862 64.2809 80.1969 64.237 80.3527C63.9582 80.3432 63.8078 80.3805 63.7759 80.4217C63.7364 80.4701 63.8819 80.5265 64.1939 80.5095C64.2206 80.5079 64.2263 80.4847 64.2268 80.4568C64.2277 80.4173 64.2195 80.3694 64.237 80.3527C64.3679 80.3922 64.4731 80.4357 64.5515 80.4821C64.8354 80.635 64.772 80.8128 64.3081 80.9713C64.0304 81.0663 63.7263 80.9314 63.8125 81.2933C63.8513 81.4571 64.2863 81.4307 64.3922 81.5811C64.6335 81.9258 64.1979 82.3127 64.2334 82.6502C64.2463 82.7728 64.4915 82.6748 64.5084 82.7593C64.554 82.9836 64.3612 83.1619 64.4332 83.3893C64.44 83.4099 64.6904 83.3821 64.6878 83.4507C64.6726 83.9717 64.4763 84.4089 64.4253 84.9494C64.4008 85.2102 64.4961 85.6895 64.4452 85.9574C64.376 86.3283 64.101 86.7521 64.0198 87.1137C63.9992 87.206 63.9904 87.2974 64.0005 87.3801C64.0314 87.6519 64.283 87.6154 64.4399 87.7459C64.7441 87.9976 64.1234 88.3267 64.0281 88.3686C64.0251 88.3696 63.9895 88.1386 63.8512 88.2462C63.581 88.2898 64.0273 88.3659 64.0281 88.3686C63.9665 88.3976 63.8653 88.8408 63.9033 88.9346C63.9241 88.9855 64.1599 88.9821 64.1664 89.0082C64.3142 89.6286 64.3131 90.2273 64.1495 90.8105C64.1439 90.8206 63.8843 90.7808 63.8743 90.8048C63.7268 91.1391 64.0275 91.3867 64.1954 91.6793C64.3633 91.9718 64.2854 92.1812 63.8264 92.3159C63.87 92.5262 63.6572 92.8075 63.5313 92.971C63.4052 93.1362 63.9155 93.168 63.9251 93.183C64.0893 93.4163 64.0905 93.5809 64.051 93.741C64.0084 93.6831 63.923 93.7048 63.9293 93.7918C63.9258 93.8689 64.1245 94.1176 64.283 94.274C64.4042 94.3936 64.3601 94.55 64.5201 94.6621C64.5418 94.6776 64.7212 94.5361 64.7326 94.5378C65.0713 94.5665 64.5494 94.7792 64.4883 94.8685C64.2696 95.1989 64.1587 95.3791 64.4658 95.5585C64.5339 95.5959 65.3424 95.3921 65.4732 95.5407C65.6397 95.7363 65.3372 95.7646 65.5216 96.0045C65.5373 96.029 65.6964 95.9406 65.7702 96.1541C65.866 96.4827 66.0416 96.9215 65.932 97.7869C65.8558 98.7005 64.9641 99.6952 64.413 99.9209C63.8711 100.197 63.6341 100.202 63.4403 100.245C63.2522 100.277 63.1273 100.29 63.0181 100.306C62.937 100.317 63.0703 100.584 62.9561 100.604C62.4604 100.686 62.2107 100.706 61.9253 100.637C61.8573 100.619 61.8493 100.419 61.8222 100.366C61.6461 100.045 61.6584 100.575 61.649 100.589C61.5539 100.685 61.4608 100.737 61.3616 100.77C60.9316 100.926 60.4076 100.944 59.836 101.351C59.8008 101.38 59.6097 102.043 59.2689 101.661C59.2442 101.636 58.9215 101.238 58.8642 101.601C58.8598 101.624 59.0493 101.825 58.841 101.863C58.6359 101.899 58.3331 102.153 57.9802 101.947C57.8647 101.883 57.5745 101.453 57.3584 101.87C57.3579 101.9 56.9899 102.817 56.7768 102.229C56.7428 102.131 56.7297 101.503 56.4188 101.84C56.3569 101.905 56.478 102.043 56.3103 102.135C56.0457 102.277 55.707 102.1 55.3673 102.354C55.3251 102.386 55.1782 102.594 55.0319 102.597C54.9983 102.601 54.9681 102.569 54.9462 102.467C54.9346 102.415 54.9875 102.208 54.9327 102.179C54.6685 102.039 54.3706 102.166 54.0792 102.017C53.9742 101.965 54.0304 101.623 53.9162 101.532C53.8024 101.44 53.5606 101.357 53.4414 101.517C53.3217 101.678 53.4761 102.217 53.2956 102.268C52.5124 102.482 51.5691 102.283 50.3654 102.178C50.1857 102.16 50.3257 102.366 50.0493 102.348C49.3844 102.313 48.1867 102.147 47.3328 101.622C46.6898 101.282 45.9201 100.513 45.7106 99.6239C45.5877 99.1086 45.6575 98.8712 45.7132 98.7968C45.7752 98.72 45.8514 98.7871 45.9269 98.8592C46.09 99.009 46.1907 99.1638 46.1716 98.5422C46.1739 98.4483 46.1641 98.3576 46.1466 98.2668C46.0462 98.1141 45.5968 97.9654 45.5805 97.9293C45.3839 97.5094 45.6651 97.2152 45.5807 96.8229C45.5631 96.7418 45.3063 96.8204 45.2942 96.7512C45.2506 96.5151 45.3661 96.2639 45.347 96.0324C45.3379 95.9283 45.1418 95.9461 45.1578 95.8498C45.194 95.6199 45.2793 95.4151 45.4673 95.192C45.4844 95.1719 45.7254 95.3149 45.7379 95.1443C45.7575 94.8663 45.9482 94.5281 45.7742 94.1992C45.7218 94.1027 45.2743 94.0781 45.5926 93.8861C45.6592 93.8453 46.1933 93.9273 45.7412 93.6648C45.692 93.6364 45.4151 93.4392 45.3483 93.2542C45.3128 93.1622 45.3352 93.072 45.4781 93.0155C45.5873 92.9718 46.0345 92.8704 45.9725 92.7557C45.9624 92.7399 45.7185 92.7851 45.701 92.6914C45.6435 92.3617 45.6919 92.0251 45.6401 91.6876C45.6258 91.5974 45.3682 91.7122 45.3549 91.5781C45.3179 91.2096 45.4148 90.7599 45.52 90.4106C45.5593 90.2819 45.7578 90.3884 45.7809 90.3806C46.1567 90.2561 45.6728 90.127 45.6482 90.0739C45.5018 89.7438 45.7522 89.5214 45.7157 89.2247C45.7062 89.143 45.4674 89.1802 45.4479 89.1624C45.2581 88.9786 45.6678 89.1382 45.7231 89.0368C45.8794 88.7531 45.8896 88.4229 45.8871 88.1212C45.8859 88.01 45.6033 88.1091 45.6054 88.0092C45.6113 87.5366 45.668 87.0506 45.8019 86.5818C45.8333 86.4817 45.8682 86.384 45.9074 86.2867C45.9451 86.1947 46.1482 86.2739 46.1978 86.2586C46.5448 86.1497 46.1065 85.9056 46.0667 85.8557C45.8852 85.6278 46.0759 85.5586 46.0539 85.3655C45.9432 84.4364 46.0967 83.1805 46.253 82.1555C46.318 81.7209 46.4002 81.3158 46.4872 80.9254C46.6353 80.3812 46.7287 79.7257 46.712 78.9382C46.7107 78.8631 46.4301 78.9324 46.4254 78.8674C46.3773 78.0242 46.5125 77.1397 46.5168 76.2039C46.5177 76.1267 46.244 76.2138 46.237 76.0877C46.2206 75.8293 46.2713 75.504 46.3895 75.2539C46.4466 75.1331 46.6491 75.3316 46.702 75.2104C46.8261 74.9264 46.8932 74.619 46.9063 74.3082C46.9116 74.1758 46.6098 74.3221 46.6377 74.1532C46.8081 73.101 47.0548 72.0385 47.6697 71.1142C47.7493 70.9721 47.8425 70.8172 47.962 70.6455C48.0624 70.5052 48.5862 70.6599 48.7227 70.2897C48.6185 70.1741 48.4748 70.0668 48.354 69.9561C48.6457 69.5402 49.1714 69.0923 49.6597 68.8652C50.1493 68.6297 50.5363 68.5544 50.8291 68.505C52.1746 68.298 53.3636 68.3724 54.4345 68.2953C54.4919 68.2912 54.3669 68.0102 54.4767 68.0008C54.7124 67.9804 54.935 67.9465 55.1458 67.9209C55.5697 67.8689 55.9999 67.8485 56.4635 67.9704C56.5366 67.9893 56.5688 68.502 56.7633 68.3978C56.7976 68.379 57.0971 68.2697 57.1619 68.1487C57.1704 68.1306 57.0823 67.9012 57.1804 67.8808C57.7526 67.7668 58.3643 67.7377 58.9605 67.8015C59.0571 67.8122 58.9934 68.0784 59.0623 68.0882C59.5508 68.1561 60.0345 67.8914 60.5115 68.0548C60.8311 68.1649 60.7853 68.6168 61.0098 69.0213C61.0395 69.0788 61.2271 69.0599 61.2752 69.3075C61.3979 69.9301 61.4116 70.6306 61.553 71.2926C61.583 71.4355 61.8189 71.2395 61.7205 71.6112C61.7098 71.6368 61.5427 71.7808 61.5127 71.906C61.4923 71.9926 61.5885 72.2374 61.5398 72.3516C61.4902 72.4658 61.3869 72.264 61.2962 72.4029C61.2083 72.543 61.2974 72.8248 61.0867 72.8906ZM62.9857 93.7074C62.9408 93.7363 62.9355 93.7596 62.9552 93.777C63.0246 93.8053 63.4109 93.7651 63.4545 93.7606C63.4638 93.7457 63.4559 93.7278 63.4235 93.706C63.4118 93.6992 62.9976 93.6995 62.9857 93.7074ZM63.8968 73.3856C63.5178 73.643 64.1048 73.7725 64.402 73.5895C64.6977 73.3986 64.0111 73.3034 63.8968 73.3856ZM63.1321 70.9988C62.929 71.36 64.1566 71.0202 63.8016 70.7824C63.781 70.7682 63.1433 70.9768 63.1321 70.9988ZM60.2882 69.2525C60.293 69.2639 60.4261 69.2563 60.4291 69.2439C60.459 68.9516 60.189 68.9676 60.2882 69.2525ZM61.4668 69.1204C61.4267 69.3054 61.7413 69.3208 61.8032 69.0891C61.8468 68.8943 61.5088 68.8806 61.4668 69.1204ZM59.2908 99.0653C59.2832 99.0541 59.1883 99.0811 59.2192 99.15C59.3194 99.3721 59.4201 99.2549 59.2908 99.0653ZM57.5158 68.5346C58.1232 68.4066 58.6137 69.3931 58.0602 69.3987C57.9533 69.4041 58.1945 69.0187 58.0422 68.9594C57.7479 68.8564 57.7794 69.5371 57.4285 69.2795C57.361 69.2329 57.478 68.5395 57.5164 68.5329C57.5162 68.5334 57.516 68.534 57.5158 68.5346ZM61.9112 93.8293C61.8982 93.8326 61.8986 93.9697 61.9119 93.9713C62.2001 93.9978 62.2024 93.7685 61.9112 93.8293ZM53.6604 99.1304C53.653 99.1046 53.3312 99.0895 53.3217 99.1138C53.1749 99.5837 53.8078 99.6157 53.6604 99.1304ZM61.9682 84.723C61.6953 84.5518 61.6768 84.3737 62.0453 84.2878C62.0138 84.4317 61.9984 84.5781 61.9682 84.723Z" fill="#3B60FF"/>
</svg>
