<svg width="48" height="48" viewBox="0 0 48 48" fill="none" xmlns="http://www.w3.org/2000/svg"><path d="M8.46719 36.4557H39.5316M39.5316 46V26.9103M8.46719 46V26.9103M44.7814 41.298V31.6111M3.21734 41.298V31.6111M15.9457 15.2898L23.5263 22.7982L44.5269 2.00084M45 22.7982C45.006 19.2886 44.1106 15.8353 42.3979 12.7628M34.1196 4.56944C30.9213 2.82972 27.3205 1.94508 23.672 2.00264C20.0234 2.0602 16.4529 3.05799 13.3122 4.89773C10.1714 6.73746 7.56876 9.35568 5.76054 12.4945C3.95231 15.6333 3.0009 19.1845 3 22.7982" stroke="url(#paint0_linear_86_1292)" stroke-width="3" stroke-linecap="round" stroke-linejoin="round"/><defs><linearGradient id="paint0_linear_86_1292" x1="24" y1="2" x2="24" y2="46" gradientUnits="userSpaceOnUse"><stop stop-color="#0544FF"/><stop offset="1" stop-color="#2B9F3B"/></linearGradient></defs></svg>
