<svg width="48" height="48" viewBox="0 0 48 48" fill="none" xmlns="http://www.w3.org/2000/svg">
<g clip-path="url(#clip0_86_1285)">
<path d="M6 36C7.5913 36 9.11742 36.6321 10.2426 37.7574C11.3679 38.8826 12 40.4087 12 42C12 43.5913 11.3679 45.1174 10.2426 46.2426C9.11742 47.3679 7.5913 48 6 48C4.4087 48 2.88258 47.3679 1.75736 46.2426C0.632141 45.1174 0 43.5913 0 42C0 40.4087 0.632141 38.8826 1.75736 37.7574C2.88258 36.6321 4.4087 36 6 36ZM42 36C43.5913 36 45.1174 36.6321 46.2426 37.7574C47.3679 38.8826 48 40.4087 48 42C48 43.5913 47.3679 45.1174 46.2426 46.2426C45.1174 47.3679 43.5913 48 42 48C40.4087 48 38.8826 47.3679 37.7574 46.2426C36.6321 45.1174 36 43.5913 36 42C36 40.4087 36.6321 38.8826 37.7574 37.7574C38.8826 36.6321 40.4087 36 42 36ZM6 39C5.20435 39 4.44129 39.3161 3.87868 39.8787C3.31607 40.4413 3 41.2043 3 42C3 42.7957 3.31607 43.5587 3.87868 44.1213C4.44129 44.6839 5.20435 45 6 45C6.79565 45 7.55871 44.6839 8.12132 44.1213C8.68393 43.5587 9 42.7957 9 42C9 41.2043 8.68393 40.4413 8.12132 39.8787C7.55871 39.3161 6.79565 39 6 39ZM42 39C41.2043 39 40.4413 39.3161 39.8787 39.8787C39.3161 40.4413 39 41.2043 39 42C39 42.7957 39.3161 43.5587 39.8787 44.1213C40.4413 44.6839 41.2043 45 42 45C42.7957 45 43.5587 44.6839 44.1213 44.1213C44.6839 43.5587 45 42.7957 45 42C45 41.2043 44.6839 40.4413 44.1213 39.8787C43.5587 39.3161 42.7957 39 42 39ZM25.5 13.5V22.5H34.5V25.5H25.5V34.5H22.5V25.5H13.5V22.5H22.5V13.5H25.5ZM6 0C7.5913 0 9.11742 0.632141 10.2426 1.75736C11.3679 2.88258 12 4.4087 12 6C12 7.5913 11.3679 9.11742 10.2426 10.2426C9.11742 11.3679 7.5913 12 6 12C4.4087 12 2.88258 11.3679 1.75736 10.2426C0.632141 9.11742 0 7.5913 0 6C0 4.4087 0.632141 2.88258 1.75736 1.75736C2.88258 0.632141 4.4087 0 6 0ZM42 0C43.5913 0 45.1174 0.632141 46.2426 1.75736C47.3679 2.88258 48 4.4087 48 6C48 7.5913 47.3679 9.11742 46.2426 10.2426C45.1174 11.3679 43.5913 12 42 12C40.4087 12 38.8826 11.3679 37.7574 10.2426C36.6321 9.11742 36 7.5913 36 6C36 4.4087 36.6321 2.88258 37.7574 1.75736C38.8826 0.632141 40.4087 0 42 0ZM42 3C41.2043 3 40.4413 3.31607 39.8787 3.87868C39.3161 4.44129 39 5.20435 39 6C39 6.79565 39.3161 7.55871 39.8787 8.12132C40.4413 8.68393 41.2043 9 42 9C42.7957 9 43.5587 8.68393 44.1213 8.12132C44.6839 7.55871 45 6.79565 45 6C45 5.20435 44.6839 4.44129 44.1213 3.87868C43.5587 3.31607 42.7957 3 42 3ZM6 3C5.20435 3 4.44129 3.31607 3.87868 3.87868C3.31607 4.44129 3 5.20435 3 6C3 6.79565 3.31607 7.55871 3.87868 8.12132C4.44129 8.68393 5.20435 9 6 9C6.79565 9 7.55871 8.68393 8.12132 8.12132C8.68393 7.55871 9 6.79565 9 6C9 5.20435 8.68393 4.44129 8.12132 3.87868C7.55871 3.31607 6.79565 3 6 3Z" fill="url(#paint0_linear_86_1285)"/>
<path d="M31.617 43.575C31.77 44.5905 32.067 45.558 32.49 46.455C29.7766 47.4787 26.9001 48.0022 24 48C21.0105 48 18.15 47.454 15.51 46.455C15.9315 45.558 16.23 44.5905 16.383 43.575C18.744 44.496 21.3135 45 24 45C26.6865 45 29.256 44.496 31.617 43.575ZM46.455 15.51C47.4787 18.2234 48.0022 21.0999 48 24C48 26.9895 47.454 29.85 46.455 32.49C45.5419 32.0622 44.5719 31.7682 43.575 31.617C44.496 29.256 45 26.6865 45 24C45 21.3135 44.496 18.744 43.575 16.383C44.5719 16.2318 45.5419 15.9378 46.455 15.51ZM1.54501 15.51C2.44201 15.9315 3.40951 16.23 4.42501 16.383C3.48161 18.8116 2.99838 21.3946 3.00001 24C3.00001 26.6865 3.50401 29.256 4.42501 31.617C3.42807 31.7682 2.45811 32.0622 1.54501 32.49C0.521281 29.7766 -0.00217898 26.9001 6.81714e-06 24C6.81714e-06 21.0105 0.546007 18.15 1.54501 15.51ZM24 6.81714e-06C26.9895 6.81714e-06 29.85 0.546007 32.49 1.54501C32.0622 2.45811 31.7682 3.42807 31.617 4.42501C29.1884 3.48161 26.6054 2.99838 24 3.00001C21.3135 3.00001 18.744 3.50401 16.383 4.42501C16.2318 3.42807 15.9378 2.45811 15.51 1.54501C18.2234 0.521281 21.0999 -0.00217898 24 6.81714e-06Z" fill="url(#paint1_linear_86_1285)"/>
</g>
<defs>
<linearGradient id="paint0_linear_86_1285" x1="24" y1="0" x2="24" y2="48" gradientUnits="userSpaceOnUse"><stop stop-color="#0544FF"/><stop offset="1" stop-color="#2B9F3B"/></linearGradient>
<linearGradient id="paint1_linear_86_1285" x1="24" y1="0" x2="24" y2="48" gradientUnits="userSpaceOnUse"><stop stop-color="#0544FF"/><stop offset="1" stop-color="#2B9F3B"/></linearGradient>
<clipPath id="clip0_86_1285"><rect width="48" height="48" fill="white"/></clipPath>
</defs>
</svg>
