<svg width="48" height="48" viewBox="0 0 48 48" fill="none" xmlns="http://www.w3.org/2000/svg"><path d="M18.9995 42C18.9995 42.5303 19.2105 43.039 19.5854 43.4141C19.9604 43.789 20.4692 43.9999 20.9995 44H26.9995C27.5299 44 28.0395 43.7891 28.4146 43.4141C28.7895 43.039 28.9995 42.5303 28.9995 42V40H18.9995V42ZM23.9995 4C12.7678 4.00033 5.99538 16.4384 12.0903 25.8701L18.8042 36.2715L18.9517 36.5H29.0483L29.1958 36.2715L35.9097 25.8701C42.0047 16.4383 35.2314 4 23.9995 4ZM23.9995 11.0059C24.2676 11.0059 24.5294 11.0888 24.7485 11.2432C24.9403 11.3783 25.0918 11.5623 25.187 11.7754L25.2241 11.8682L26.5347 15.5664C26.649 15.8888 26.8338 16.1819 27.0757 16.4238C27.3177 16.6659 27.6114 16.8504 27.9341 16.9648L31.6353 18.2783C31.8868 18.3684 32.1044 18.5345 32.2583 18.7529C32.4123 18.9715 32.4946 19.2326 32.4946 19.5C32.4946 19.7674 32.4123 20.0285 32.2583 20.2471C32.1045 20.4654 31.8867 20.6306 31.6353 20.7207L27.9341 22.0352C27.6114 22.1496 27.3177 22.3341 27.0757 22.5762C26.8338 22.8181 26.649 23.1112 26.5347 23.4336V23.4346L25.2241 27.1348C25.1339 27.3872 24.9677 27.6054 24.7485 27.7598C24.5294 27.9142 24.2676 27.9971 23.9995 27.9971C23.7316 27.997 23.4705 27.914 23.2515 27.7598C23.0596 27.6246 22.9082 27.4407 22.813 27.2275L22.7759 27.1348L21.4653 23.4346V23.4336L21.3667 23.1982C21.255 22.9682 21.105 22.7578 20.9233 22.5762C20.6813 22.3342 20.3885 22.1495 20.0659 22.0352L16.3667 20.7207C16.1156 20.6305 15.8983 20.4652 15.7446 20.2471C15.5907 20.0285 15.5083 19.7674 15.5083 19.5C15.5083 19.2326 15.5907 18.9715 15.7446 18.7529C15.8983 18.5347 16.1155 18.3685 16.3667 18.2783L16.3677 18.2793L20.0659 16.9648C20.3885 16.8505 20.6813 16.6658 20.9233 16.4238C21.1653 16.1818 21.3509 15.889 21.4653 15.5664L22.7759 11.8682C22.8661 11.6158 23.0324 11.3975 23.2515 11.2432C23.4705 11.0889 23.7316 11.006 23.9995 11.0059Z" fill="url(#paint0_linear_86_1288)"/><defs><linearGradient id="paint0_linear_86_1288" x1="24" y1="0" x2="24" y2="48" gradientUnits="userSpaceOnUse"><stop stop-color="#0544FF"/><stop offset="1" stop-color="#2B9F3B"/></linearGradient></defs></svg>
