<svg preserveAspectRatio="none" width="100%" height="100%" overflow="visible" style="display: block;" viewBox="0 0 125.877 46.5586" fill="none" xmlns="http://www.w3.org/2000/svg">
<g id="Signage">
<path id="Vector 11" d="M0.079898 9.6658C0.432788 9.34125 1.05019 9.19872 1.55664 9.17007C1.71487 9.16062 1.77316 9.44259 1.88867 9.44689C2.11435 9.45499 2.22495 9.24679 2.45407 9.27584C2.53167 9.28615 2.65776 9.71617 2.73472 9.71789C3.15728 9.72334 3.42591 9.46173 3.80807 9.37292C5.6969 8.93269 7.42627 8.22664 9.22188 7.52197C9.81371 7.28928 10.6813 7.28935 11.1807 6.83232C11.2388 6.77862 11.0199 6.45637 11.018 6.42138C10.9949 5.8831 11.2882 6.61098 11.4682 6.6343C12.181 6.72529 12.7812 6.45286 13.2159 6.05796C13.4013 5.88845 12.8304 5.31929 13.2463 5.58903C13.2748 5.60704 13.4101 5.99984 13.4893 6.00799C13.6686 6.02572 13.8872 5.82897 14.005 5.80429C14.2354 5.75734 14.2668 5.73631 14.4577 5.6421C14.7196 5.51688 15.1207 5.53819 15.3554 5.31097C15.4047 5.2615 15.132 4.92864 15.193 4.81604C15.2549 4.70312 15.5167 4.60705 15.6494 4.64992C15.7801 4.69384 15.8969 5.00632 15.9469 5.06581C16.3664 5.5695 16.2452 4.63259 16.2717 4.59404C16.7779 3.90934 17.594 4.05478 18.2287 3.72431C18.7133 3.47081 19.1542 3.05519 19.6269 2.83763C20.1928 2.57891 20.753 2.54826 21.2846 2.23407C21.3392 2.20227 21.0491 1.79414 21.1152 1.75444C21.8328 1.3261 22.5861 1.00636 23.5115 0.934317C23.6069 0.926509 23.6903 1.36837 23.7957 1.38462C23.8969 1.39943 24.0074 1.42414 24.1171 1.44928C24.7778 1.54702 25.3806 1.66604 25.571 0.0170176C26.0506 -0.0208645 26.9837 -0.0516896 27.798 0.582169C27.9261 0.720064 28.0309 0.875236 28.0995 1.0412C28.2647 1.46893 27.6881 1.61433 28.1456 1.73706C28.2495 1.7726 28.4326 1.37392 28.5787 1.46452C29.2343 1.8836 29.4795 2.7269 29.8019 3.26283C29.8723 3.37856 30.2292 3.2731 30.3027 3.29889C30.9066 3.54609 30.048 4.14439 29.9809 4.20222C29.5109 4.89579 29.6462 5.26493 29.5562 5.77917C29.5343 5.89226 30.0496 5.8387 30.0454 5.95399C30.0122 6.56591 29.8343 7.10935 29.4828 7.56087C29.4043 7.65713 29.0214 7.4447 28.963 7.48443C28.7109 7.65699 29.4669 7.93484 29.2362 8.10679C29.1889 8.1419 28.8469 8.01406 28.8062 8.01101C28.167 7.95995 28.9858 8.32532 28.9941 8.3658C29.1173 8.88421 28.1527 8.85257 28.1476 9.29306C28.1482 9.34475 28.6206 9.38256 28.5953 9.51984C28.4233 10.4522 27.979 11.34 27.3321 12.066C27.2312 12.1817 26.9388 11.9703 26.8956 11.9646C26.2186 11.8797 27.0275 12.2712 27.045 12.3225C27.1555 12.7359 26.334 12.8105 27.2533 13.4003C26.3934 14.7151 26.4488 16.3394 25.0537 17.4525C25.037 17.4669 24.6327 17.2903 24.6012 17.3196C24.217 17.6737 24.8916 17.8151 25.5814 18.3792C25.7536 18.5237 24.7248 18.4114 24.648 18.4071C24.366 18.389 23.7721 18.1035 23.714 18.1099C23.2545 18.1717 25.3128 18.8408 25.2227 19.1066C25.2165 19.1138 24.8515 18.95 24.8063 18.9596C24.6649 18.9891 24.7911 19.1095 24.6379 19.1339C24.2846 19.1871 23.2671 18.913 23.7676 19.3431C23.8328 19.3983 25.011 19.746 24.8767 19.9625C24.8223 20.0479 24.7011 20.4745 24.5857 20.5693C24.4705 20.6632 24.1226 20.456 24.1035 20.4591C23.4994 20.6168 23.3351 20.4243 22.5475 20.3382C21.7629 20.2529 23.5238 20.7891 23.6975 20.9179C23.8706 21.0464 23.3841 21.143 23.2226 21.1539C23.061 21.1643 22.846 21.0139 22.7484 21.0385C22.109 21.2058 23.5668 21.4735 23.8074 21.6768C24.3768 22.1597 23.0147 21.9346 22.8097 22.1329C22.7543 22.1865 23.0671 22.2297 23.076 22.2963C23.1076 22.5589 22.6575 22.5669 22.9441 22.9511C22.9908 23.0136 23.7029 23.4801 23.0873 23.4288C22.9984 23.4215 22.6918 23.2637 22.5884 23.3373C22.4334 23.447 22.279 23.6875 22.3374 23.8801C22.3807 24.0223 22.9574 24.057 22.745 24.1517C22.6502 24.1938 22.3758 23.9737 22.2238 24.0614C22.0723 24.1472 21.9855 24.4723 21.9612 24.5885C21.9358 24.7087 22.3616 24.7713 22.386 24.7892C22.5248 24.895 22.6508 25.1804 22.6441 25.2003C22.5622 25.5192 22.4103 25.8123 22.2376 26.0993C21.865 26.7077 21.4007 27.2824 21.3742 28.0041C21.3706 28.0864 21.8173 28.1515 21.8212 28.1652C21.9319 28.477 20.8366 27.9602 20.4015 28.0434C21.2879 28.2499 21.0989 28.3189 21.1463 28.5315C21.17 28.6339 21.5237 28.6737 21.5564 28.691C22.0398 28.9572 21.3469 28.8776 21.2037 28.8668C20.6771 28.8269 21.2479 29.0754 20.8958 29.0499C20.546 29.026 20.0858 28.76 20.0461 28.9441C20.349 29.0746 21.208 29.1476 21.3073 29.3185C21.6834 29.9565 20.8081 30.7604 20.6461 31.1671C20.4839 31.5704 20.513 31.7192 20.3445 31.9371C20.0395 32.3354 20.6924 32.3052 20.9151 32.6418C21.1383 32.9772 19.6487 32.5166 19.3137 32.4858C18.9791 32.4541 19.3056 32.5698 19.1158 32.5799C18.926 32.5901 18.7266 32.4371 18.6347 32.537C18.5429 32.6366 19.0568 33.0733 19.3897 33.1863C20.0948 33.4264 20.8842 33.4471 20.5528 33.6928C20.5332 33.7068 20.1459 33.565 20.0913 33.6229C19.671 34.085 19.5339 34.6317 19.1445 35.0989C19.0903 35.1631 18.6615 34.9989 18.6249 35.035C18.2429 35.4081 19.0256 35.4196 19.799 35.8543C18.7078 35.5449 18.0028 35.5221 17.9186 35.8464C17.8671 36.042 18.356 36.1243 18.6632 36.3359C18.7559 36.3997 18.3912 36.4592 18.6105 36.5409C19.3266 36.8108 20.1872 36.8827 19.7685 37.1517C19.7489 37.1631 19.3584 37.0103 19.3204 37.0569C19.072 37.3551 19.8303 37.6003 19.8176 38.0048C19.8134 38.1361 19.7031 38.2822 19.5626 38.4273C19.3733 38.6052 19.1341 38.7782 19.052 38.9264C17.8162 38.6107 18.0239 39.0302 18.887 39.2283C18.8191 39.3634 18.932 39.4675 18.725 39.2714C18.6432 39.2143 18.3655 39.4685 18.325 39.4782C18.0554 39.6428 18.1562 39.6639 18.2191 39.5329C18.2917 39.4123 18.3433 39.1925 18.3335 39.1727C18.2292 38.9902 18.4159 39.0927 18.5997 39.0678L18.4706 39.1209C18.677 39.0547 18.8616 38.9466 18.9255 38.5742C18.9302 38.546 18.547 37.7484 18.9587 38.2623C18.9865 38.298 19.0312 38.7283 19.2461 38.6517C19.4609 38.5753 20.0586 38.7987 20.1476 38.2899C20.1695 38.1672 20.0077 37.4417 20.4042 37.8676C20.4576 37.9256 20.5551 38.1609 20.6468 38.2723C20.9401 38.6266 20.5727 37.8099 21.0243 38.4309C21.4761 39.0518 21.9474 39.4473 21.986 38.836C21.9879 38.8178 21.7263 38.155 21.82 38.1187C21.97 38.0613 22.2381 38.0879 22.3837 38.0068C22.4532 37.9678 22.2046 37.6012 22.2132 37.5876C22.5743 37.1214 23.0937 37.2934 23.6812 37.1813C23.7897 37.1612 23.7829 36.4896 24.1817 36.818C24.6173 37.1781 25.4006 39.2039 25.6185 38.5143C25.7058 38.2385 24.6993 35.6753 25.6722 36.7748C26.1599 36.1348 27.074 36.4924 27.5052 35.7287C27.5248 35.6946 27.2866 34.9607 27.3623 34.9363C27.4737 34.9022 27.6827 35.1989 27.7653 35.186C28.1199 35.1384 28.2742 34.7307 28.595 34.6394C28.7167 34.6041 28.8276 34.9592 28.9707 34.9187C29.1106 34.8795 29.0127 34.3911 29.2894 34.529C29.5017 34.6337 30.021 35.4951 30.2376 35.533C30.1668 35.3529 30.115 35.2072 30.0785 35.0867C29.9302 34.5964 30.0387 34.524 30.1479 34.2589C30.1739 34.1949 30.0034 33.8946 30.0094 33.8479C30.0311 33.6508 30.2117 33.8846 30.2233 33.6747C30.2264 33.6242 30.1067 33.3111 30.1024 33.2522C30.0613 32.7391 30.5558 33.3563 30.642 33.4636C30.9698 33.8711 30.8802 33.4383 31.0646 33.5769C31.2486 33.7157 31.1697 34.0101 31.3449 34.0694C31.7095 34.1913 32.0431 33.9999 32.3268 33.9011C32.439 33.8599 32.1948 33.4763 32.2069 33.4608C32.3917 33.2631 32.8043 33.6073 32.5882 32.732C33.6322 34.793 32.6393 32.469 33.14 32.7585C33.1804 32.782 33.6375 33.7718 33.5995 33.9614C33.5624 34.1505 33.2815 33.899 33.2387 34.187C33.2299 34.2541 33.4312 35.2759 33.4295 35.3435C33.4089 35.8749 32.7628 34.3797 32.7184 34.3013C32.2343 33.4568 32.4199 34.5684 32.3868 34.6636C32.2382 35.0989 31.9158 34.9802 31.7736 35.3028C31.6794 35.5122 32.0511 36.5119 31.9185 36.5284C31.4792 36.583 30.8069 35.2468 30.9068 36.5916C30.9269 36.8544 31.3471 37.7648 30.9489 37.3384L30.9762 37.3276C30.942 37.2884 30.901 37.2382 30.8522 37.1758C30.8184 37.1269 30.3074 36.4298 30.4021 36.9657C30.4142 37.0331 30.5465 37.346 30.5396 37.3799C30.4898 37.6014 30.3064 37.3856 30.223 37.5634C30.144 37.7393 30.0625 37.987 29.863 37.9508C29.7412 37.9302 29.3616 37.4079 29.2504 37.2885C28.9332 36.943 29.1082 37.669 28.7986 37.2171C28.4866 36.7634 28.2959 35.9413 27.9315 35.7247C28.3001 36.5268 28.6688 37.3545 29.0358 38.1629C28.5692 38.3491 27.9921 38.3127 27.5466 38.5771C27.4916 38.6108 27.7614 39.0067 27.7079 39.0537C27.4847 39.2488 27.1063 39.0601 26.8975 39.3164C26.7371 39.5163 26.7367 40.08 26.5763 40.3041C25.9845 39.4721 25.8157 39.9439 25.537 39.9837C25.4401 39.9978 25.3219 39.7552 25.2227 39.7074C24.851 39.533 25.3647 40.2722 25.3683 40.4285C25.3836 41.0954 24.4311 39.3137 24.1452 39.5183C24.1298 39.5285 24.4256 40.5883 24.4295 40.6619C24.4564 41.1408 24.2276 40.3444 24.0813 40.3309C23.8134 40.3064 23.5559 40.1506 23.4661 40.5532C23.4408 40.6717 23.5867 41.3527 23.213 40.9621C23.164 40.911 23.009 40.5904 22.9852 40.5793C22.5688 40.4048 23.0793 41.3999 23.1086 41.8119C23.1377 42.224 22.5538 41.6579 22.4048 41.4847C22.0178 41.0374 22.3833 41.2184 22.3636 41.1649C22.129 40.529 22.0177 40.7178 21.8652 40.7333C21.3395 39.7707 21.1936 39.9211 21.7092 40.7533C21.7658 40.844 21.8167 40.7021 21.8652 40.7333C22.2525 41.7448 22.1217 41.9685 21.4423 41.1889C21.124 40.8234 20.965 40.2867 20.7529 40.6238C20.6564 40.7764 21.0585 41.4183 21.031 41.6647C20.968 42.2269 20.2783 41.7912 20.04 42.0393C20.0141 42.0663 20.0222 42.1135 20.0448 42.1683C19.9587 42.2002 19.7168 42.3238 19.6265 42.3404C19.6336 42.3877 19.6537 42.4399 19.6735 42.4905C19.7693 42.4729 20.0257 42.3418 20.117 42.308C20.145 42.3576 20.1723 42.4055 20.1874 42.4443C20.0911 42.48 19.8205 42.6183 19.7195 42.6369C19.7231 42.6717 19.7153 42.7002 19.6868 42.718C19.2887 42.9292 18.9232 42.8018 17.8538 42.8738C17.7399 42.8726 17.9802 43.3476 17.5585 43.2871C16.766 43.2303 15.3254 42.3523 14.8913 41.3497C14.4221 40.3894 14.4771 39.8178 14.4882 39.4152C14.5586 38.6341 14.7344 38.291 14.8201 37.9104C14.8811 37.6625 14.8633 37.3102 14.8881 37.0363C14.8914 36.9379 14.9039 36.8481 14.9386 36.7816C15.1277 36.417 15.8678 36.0724 15.8074 35.6763C15.7694 35.4207 15.3361 35.3694 15.0733 35.2016C14.5627 34.8812 15.6387 34.7722 15.8043 34.7582C15.8098 34.7581 15.8621 34.9853 16.1037 34.9261C16.5695 34.9661 15.8058 34.7608 15.8043 34.7582C15.9113 34.751 16.1001 34.3603 16.0374 34.2599C16.0031 34.2054 15.5973 34.1418 15.587 34.1151C15.351 33.4834 15.369 32.8983 15.6809 32.3562C15.6912 32.3477 16.1364 32.459 16.155 32.4378C16.4266 32.1426 15.9245 31.8084 15.6599 31.4562C15.3954 31.104 15.5544 30.8996 16.3599 30.9028C16.3105 30.6666 16.7188 30.4356 16.965 30.3054C17.2108 30.1766 16.3465 29.9522 16.3329 29.9326C15.8947 29.3171 16.4602 29.1444 16.6609 28.6562C16.7581 28.4227 16.7526 27.9122 16.7269 27.6226C16.7045 27.395 16.9396 27.3234 16.8616 27.0963C16.8512 27.0659 16.4601 26.9897 16.4474 26.9779C16.0451 26.6409 16.9564 26.9951 17.1358 26.9962C17.7882 27.0006 18.1386 26.9916 17.9266 26.644C17.8779 26.5649 16.5821 26.0028 16.5361 25.8651C16.4789 25.6862 16.945 25.8804 16.8733 25.6893C16.8677 25.673 16.5693 25.5907 16.6108 25.4961C16.746 25.1821 16.951 24.8644 17.0983 24.531C17.1531 24.4082 17.199 24.2838 17.229 24.1571C17.245 24.0946 16.7516 24.0294 16.767 23.9367C16.8408 23.4988 16.9943 23.0662 17.3425 22.7238C17.4295 22.6409 17.7375 22.8068 17.8417 22.8156C18.4724 22.8675 17.6761 22.4106 17.6696 22.3744C17.4892 21.5156 18.4481 21.1847 18.32 20.3308C18.3101 20.2878 17.5016 19.6667 18.3313 19.7838C18.3866 19.7911 19.2337 19.9161 18.7261 19.6136C18.6943 19.5947 18.2534 19.5446 18.3451 19.4083C18.4366 19.272 18.2405 18.9418 18.7611 18.8892C18.926 18.87 19.7764 18.9802 19.2057 18.5718C19.1655 18.5444 17.8289 17.7593 18.8566 17.9874C19.0257 18.0253 20.0692 18.3968 19.6083 17.987C19.5187 17.9082 19.2579 17.908 19.1506 17.7439C18.9848 17.4923 19.3491 17.3421 18.9568 16.9642C18.8872 16.8976 18.2318 16.4909 18.816 16.5463C18.9074 16.555 19.244 16.7134 19.3066 16.6586C19.6027 16.407 19.4935 15.9653 19.8486 15.7224C19.9741 15.6352 20.5181 15.8908 20.7114 15.8227C20.9039 15.7564 21.1354 15.5604 20.923 15.3402C20.7101 15.121 19.7616 14.9473 19.7571 14.7291C19.732 13.7986 20.5554 13.1481 20.924 12.3559C20.9782 12.2399 20.6215 12.2254 20.6783 12.0464C20.896 11.3592 20.9905 10.1411 21.8752 9.80776C22.5787 9.55562 22.7993 10.2607 23.1411 9.99968C23.3068 9.86751 22.325 9.31908 22.3056 9.26861C22.1043 8.76892 22.6643 8.64923 22.6367 8.26088C22.6307 8.18109 22.1823 8.10581 22.1817 8.03992C22.1769 7.81048 22.441 7.65132 22.4676 7.45182C22.4789 7.36092 22.1467 7.27352 22.1981 7.20075C22.3175 7.02475 22.507 6.90443 22.8686 6.82364C22.9017 6.81581 23.2748 7.05255 23.3322 6.92114C23.4285 6.69256 23.8101 6.52355 23.5683 6.17425C23.4941 6.07372 22.7399 5.86203 23.3021 5.85687C23.4196 5.85464 24.3174 6.14195 23.5793 5.75124C23.4599 5.67506 22.4599 5.1559 23.1764 5.18769C23.3652 5.19652 24.1373 5.27058 24.0339 5.17165C24.0169 5.1585 23.597 5.11121 23.5682 5.04654C23.4753 4.81383 23.5468 4.63512 23.4251 4.51612C23.3916 4.486 22.9548 4.48206 22.9177 4.44797C22.8174 4.35716 22.8987 4.44831 23.0995 4.7418C23.177 4.84892 23.5079 4.67949 23.5485 4.68089C24.1903 4.6202 23.3967 4.9557 23.3792 5.05203C23.2587 5.57717 23.9006 5.8108 24.1562 6.16742C24.2336 6.27215 23.8993 6.52642 23.8954 6.57138C23.9037 7.03869 24.1947 6.32679 24.3672 6.35502C24.5184 6.37013 24.6421 6.38895 24.7403 6.40952C25.6081 6.79627 26.286 6.79883 26.586 6.81309C26.7551 6.81675 26.6133 7.3108 26.7722 7.30523C27.1575 7.286 27.222 7.25041 27.1935 7.24489C27.1593 7.23648 27.0147 7.2424 26.8115 7.2398C26.7478 7.23852 26.6784 7.23594 26.6038 7.23153C26.4996 7.22529 26.3939 6.86921 26.3405 6.80177C25.954 6.33616 26.1403 7.13477 26.127 7.226C26.0783 7.63666 25.8784 7.3734 25.73 7.51422C25.0194 8.2019 23.8817 8.54172 23.0062 8.84236C21.8719 9.23348 20.8875 9.35085 19.9167 9.95739C19.8549 9.99546 20.1448 10.395 20.0945 10.4334C19.4291 10.9119 18.6412 11.1071 17.9842 11.6085C17.9305 11.6485 18.2289 12.0149 18.1499 12.093C17.9892 12.2561 17.7313 12.3622 17.4652 12.3342C17.336 12.3212 17.2812 11.9019 17.1556 11.8957C16.8635 11.88 16.6075 11.9762 16.4101 12.1628C16.3266 12.243 16.6941 12.5853 16.5684 12.6569C15.7217 13.1511 14.9021 13.6698 13.7386 13.5836C13.6588 13.5777 13.1621 12.7516 13.1187 12.982C13.2321 13.224 13.3774 13.5024 13.5047 13.7579C12.3052 14.5541 10.8911 14.9107 9.58663 15.5226C9.5319 15.5484 9.85769 15.9541 9.75292 16.0064C9.14256 16.3112 8.61362 16.7403 7.76497 16.6033C7.67997 16.5909 7.30544 15.7753 7.1837 15.9892C7.1623 16.0279 6.94244 16.2734 6.96044 16.4824C6.96415 16.5134 7.20274 16.8618 7.12063 16.917C6.63126 17.2358 6.04218 17.425 5.41687 17.4507C5.31246 17.4556 5.20493 17.0112 5.129 17.0112C4.59743 17.0115 4.28202 17.545 3.7049 17.3761C3.30591 17.2674 3.07247 16.524 2.5967 15.9118C2.52934 15.8256 2.35627 15.8904 2.15658 15.4967C1.65328 14.5075 1.20335 13.3755 0.657388 12.3257C0.539375 12.0998 0.44902 12.4478 0.305953 11.8334C0.296444 11.7923 0.360714 11.5345 0.308257 11.3278C0.271908 11.185 0.028686 10.8041 0.00217508 10.6116C-0.0242983 10.4192 0.199687 10.7287 0.19665 10.4887C0.191364 10.2468 -0.0674782 9.80504 0.079898 9.6658ZM18.0681 29.7246C18.5234 29.6621 17.0014 29.2751 17.3252 29.5383C17.3426 29.5514 18.0456 29.7281 18.0681 29.7246ZM27.4733 37.2494C26.9795 36.72 27.2994 37.698 27.6685 38.1123C28.0363 38.5268 27.6223 37.4103 27.4733 37.2494ZM29.2175 35.8712C28.7712 35.4725 29.6552 37.5165 29.6986 37.0039C29.7016 36.9747 29.2434 35.8944 29.2175 35.8712ZM3.16646 15.3936C3.15508 15.376 3.02687 15.4162 3.03327 15.436C3.18895 15.9151 3.44583 15.8341 3.16646 15.3936ZM31.0023 34.5528C30.821 34.3 30.7364 34.7054 30.9618 35.0198C31.143 35.2729 31.2288 34.8669 31.0023 34.5528ZM22.0786 21.9026C22.1016 21.9074 22.1507 21.8246 22.0243 21.7855C21.6173 21.6597 21.6911 21.8216 22.0786 21.9026ZM34.4678 33.1013C33.9236 33.2449 32.8983 31.682 33.5268 31.6387C33.6405 31.6307 33.5457 32.2689 33.7364 32.3675C34.0897 32.5446 33.7825 31.4193 34.2666 31.8838C34.354 31.9694 34.5022 33.0962 34.4679 33.1041C34.4678 33.1031 34.4678 33.1022 34.4678 33.1013ZM19.9254 30.066C19.9463 30.0677 19.9958 29.9448 19.9765 29.9369C19.5081 29.7518 19.4078 30.001 19.9254 30.066ZM24.7613 16.9861C24.8054 16.994 24.9463 16.7157 24.911 16.6933C24.1947 16.2718 23.9071 16.8344 24.7613 16.9861ZM19.018 38.9229C19.4773 39.1604 19.5209 39.2466 18.8877 39.228C18.9334 39.1418 18.9604 39.0323 19.018 38.9229Z" fill="var(--stroke-0, #3B60FF)"/>
<path id="Vector 12" d="M36.867 23.0781C36.9383 22.6715 37.3208 22.291 37.6918 22.0461C37.8074 21.9693 38.0178 22.1619 38.1086 22.115C38.286 22.0228 38.2456 21.8191 38.4406 21.7393C38.5063 21.7136 38.8537 21.9935 38.9138 21.9617C39.2407 21.7856 39.2949 21.4701 39.5404 21.2394C40.7573 20.103 41.7101 18.8545 42.9776 17.549C43.1765 17.346 43.4579 17.1668 43.744 16.9715C44.1187 16.6934 44.4889 16.4419 44.7445 16.1142C44.8007 16.0419 44.5169 15.7739 44.5103 15.7382C44.4292 15.1798 44.8381 15.8527 45.0366 15.8332C45.8279 15.7566 46.4223 15.4684 46.8948 15.0881C47.095 14.927 46.5532 14.3268 46.9628 14.6181C46.9902 14.6381 47.0958 15.04 47.1747 15.0537C47.3525 15.0837 47.5867 14.9118 47.7059 14.9027C47.9339 14.8873 47.966 14.8719 48.1603 14.811C48.4285 14.7313 48.7944 14.8349 49.0437 14.6715C49.0974 14.6353 48.9088 14.2497 48.9869 14.1547C49.0651 14.0594 49.3298 14.0299 49.437 14.1069C49.5448 14.1834 49.5844 14.5143 49.6167 14.5846C49.8798 15.1801 49.9627 14.2538 49.9981 14.2243C50.5924 13.717 51.2436 14.1219 51.83 14.0314C52.0569 13.996 52.2839 13.9195 52.5056 13.8484C52.8196 13.7655 53.1168 13.7101 53.394 13.7137C54.0679 13.7293 54.5754 13.9933 55.2353 14.0752C55.3066 14.0854 55.3169 13.5826 55.409 13.5954C55.6263 13.6267 55.8514 13.6739 56.0934 13.7495C57.0947 13.9971 58.2386 15.1028 58.4076 15.9751C58.4363 16.0859 57.9948 16.1983 57.9967 16.316C58.0008 16.5619 57.9401 16.8451 57.9285 17.0762C57.9035 17.5014 58.0809 17.7903 59.3123 17.568C59.3596 17.9192 59.4048 18.3439 59.105 18.7179C58.9115 18.9573 58.4094 18.8972 58.6568 19.0629C58.7118 19.1007 59.1013 18.9435 59.1536 19.0097C59.3743 19.2936 59.3055 19.6622 59.564 19.9437C59.6175 20.001 59.9827 19.93 60.0517 19.939C60.6123 20.0238 59.7557 20.4033 59.6961 20.4608C59.2592 20.9292 59.4696 21.2 59.4753 21.5836C59.476 21.6722 59.9706 21.5464 59.9891 21.6322C60.0784 22.0793 60.0353 22.5501 59.8002 22.9704C59.7467 23.0637 59.3244 22.9626 59.2771 23.0058C59.0731 23.1921 59.8736 23.2715 59.6902 23.4542C59.6525 23.4923 59.2902 23.4495 59.2499 23.4546C58.6171 23.5292 59.4985 23.6792 59.516 23.7113C59.758 24.103 58.8119 24.2549 58.9065 24.6074C58.9186 24.6507 59.3869 24.6063 59.3925 24.7261C59.4322 25.526 59.173 26.3379 58.6619 27.0106C58.583 27.1155 58.2605 26.964 58.2171 26.9631C57.5404 26.9468 58.3996 27.2008 58.4245 27.2462C58.5984 27.5963 57.8071 27.6978 58.7947 28.1437C58.1411 29.3041 58.3387 30.7261 57.0081 31.6035C56.9923 31.6146 56.5884 31.4382 56.5588 31.4606C56.1957 31.7335 56.8647 31.8939 57.5509 32.4412C57.7006 32.5634 56.9447 32.4401 56.7038 32.3952C56.6682 32.3913 56.6434 32.3884 56.6338 32.3876C56.3512 32.3586 55.7758 32.0366 55.7175 32.0397C55.2718 32.0244 57.2629 32.8923 57.0839 33.2313C57.0756 33.2387 56.7485 33.0071 56.7001 33.0127C56.5508 33.0261 56.6444 33.1788 56.4839 33.1767C56.108 33.1742 55.2369 32.5894 55.585 33.1385C55.6262 33.2122 56.6272 33.9357 56.382 34.1317C56.288 34.2109 55.9401 34.5868 55.7838 34.6107C55.6298 34.6396 55.4416 34.2789 55.4223 34.273C54.834 34.0852 54.793 33.8343 54.209 33.3093C53.6444 32.7696 54.7755 34.2208 54.8445 34.4252C54.9115 34.631 54.4764 34.4076 54.3528 34.3086C54.2266 34.2122 54.1408 33.9674 54.0569 33.9211C53.5158 33.6103 54.4398 34.761 54.5056 35.0651C54.6423 35.7938 53.7788 34.7154 53.5387 34.6951C53.4715 34.6908 53.6619 34.9409 53.6307 34.9911C53.5143 35.1704 53.248 34.9151 53.1908 35.2186C53.1835 35.2471 53.1776 35.2801 53.1732 35.3185C53.1735 35.3907 53.3124 36.2351 52.9343 35.7413C52.8826 35.669 52.7958 35.3364 52.6814 35.3022C52.5106 35.2511 52.2586 35.2659 52.1592 35.4174C52.0828 35.5308 52.3757 36.0253 52.1863 35.9028C52.1036 35.8471 52.1143 35.5007 51.9715 35.4205C51.8284 35.3413 51.5704 35.4252 51.4673 35.4599C51.3665 35.4953 51.5175 35.8965 51.5158 35.9263C51.5017 36.0986 51.3292 36.3441 51.3089 36.3469C50.3293 36.5863 49.4497 35.9094 48.5851 36.1291C48.5162 36.1454 48.5505 36.5946 48.5399 36.6017C48.2934 36.7824 48.5166 35.597 48.3738 35.1929C48.3625 36.1026 48.2729 35.935 48.1039 36.0261C48.0224 36.0706 48.0457 36.4245 48.0366 36.4601C47.8847 36.9875 47.8418 36.2919 47.8318 36.1495C47.7908 35.6256 47.6615 36.2319 47.6357 35.8811C47.6126 35.5331 47.7691 35.033 47.6205 35.0272C47.5495 35.3479 47.5935 36.2057 47.4615 36.3327C46.9477 36.8159 46.1718 36.0357 45.8383 35.9038C45.4957 35.7738 45.3698 35.8091 45.1887 35.6527C44.8631 35.3676 44.8686 36.0135 44.5707 36.2436C44.2687 36.471 44.7354 34.9841 44.7778 34.6513C44.8228 34.3191 44.7106 34.6457 44.7146 34.458C44.7194 34.2706 44.853 34.0691 44.7814 33.9811C44.712 33.8941 44.3271 34.4095 44.2052 34.7382C43.9504 35.4361 43.8702 36.2183 43.687 35.8874C43.6769 35.8679 43.829 35.4859 43.7853 35.4314C43.4336 35.0109 43.0021 34.8601 42.6728 34.4554C42.6289 34.3994 42.8249 33.9861 42.8017 33.9489C42.5604 33.5582 42.4317 34.3241 41.9483 35.0547C42.3784 34.0056 42.5113 33.3184 42.2729 33.2195C42.1299 33.1592 41.9741 33.6292 41.7444 33.9129C41.6744 33.9981 41.6957 33.6398 41.5878 33.8468C41.2297 34.521 41.0113 35.3541 40.8581 34.9198C40.8523 34.8997 41.0566 34.5346 41.0247 34.4933C40.8271 34.2259 40.4628 34.9349 40.1181 34.8754C39.8357 34.8229 39.6511 34.1749 39.4296 33.9426C40.0983 32.8596 39.7465 32.9827 39.1452 33.6321C39.1353 33.6221 39.1251 33.6125 39.1148 33.603C38.9319 33.446 38.71 33.293 38.6428 33.0445C38.6185 32.9533 38.9355 32.7561 38.9585 32.7218C39.3574 32.227 38.6374 32.6833 38.5716 32.6476C37.9631 32.3034 38.4484 31.6904 37.7573 31.3276C37.7332 31.3183 36.8485 31.3895 37.475 31.1724C37.519 31.163 37.9342 31.2747 37.9437 31.0497C37.9522 30.8046 38.4258 30.4459 38.0429 30.1392C37.9489 30.071 37.255 29.7965 37.8312 29.7282C37.9092 29.7201 38.1578 29.7744 38.3012 29.7684C38.7574 29.7546 37.8814 29.5687 38.6464 29.5986C39.4119 29.6281 39.9958 29.5894 39.5374 29.244C39.5242 29.2339 38.847 29.0161 38.8774 28.9389C38.9259 28.8173 39.115 28.68 39.1467 28.5516C39.1618 28.4896 38.7275 28.4081 38.7228 28.3952C38.6092 27.8996 39.083 27.716 39.3968 27.3426C39.4545 27.2759 38.9765 26.8362 39.479 26.8497C40.0282 26.8673 41.9805 27.8066 41.6411 27.2596C41.505 27.0428 39.0396 25.8258 40.4679 26.0832C40.3592 25.4169 41.2388 25.2034 40.991 24.4699C40.9804 24.4363 40.2987 24.0806 40.3306 24.0277C40.3793 23.95 40.7302 24.0336 40.7751 23.9824C40.7832 23.9737 40.7907 23.9647 40.7974 23.9556C40.9814 23.7521 40.862 23.4023 41.0431 23.2063C41.1137 23.1299 41.4024 23.363 41.4843 23.2789C41.5649 23.1973 41.2161 22.8469 41.5031 22.8552C41.7224 22.8615 42.5751 23.3858 42.7507 23.3547C41.9954 22.7285 42.0771 22.6589 42.0102 22.3416C41.9974 22.28 41.7136 22.0856 41.6945 22.0445C41.6127 21.8708 41.8704 22.0074 41.7765 21.8259C41.7543 21.782 41.5074 21.5553 41.4757 21.5062C41.1994 21.0764 41.8931 21.4413 42.0089 21.5108C42.4574 21.7642 42.1877 21.4173 42.3974 21.4851C42.6053 21.5551 42.6756 21.8312 42.8392 21.8366C43.1288 21.8475 43.2976 21.6721 43.457 21.5274C43.468 21.5199 43.4921 21.488 43.502 21.479C43.5276 21.4481 43.5524 21.4177 43.5768 21.3892C43.6442 21.3068 43.2418 21.0973 43.2433 21.0791C43.2644 20.8627 43.7801 20.935 43.0706 20.3853C45.1225 21.4413 42.9389 20.1735 43.4639 20.1716C43.5061 20.1715 44.4851 20.6514 44.5816 20.8103C44.6766 20.9712 44.3105 20.9297 44.4563 21.1722C44.4945 21.2239 45.2563 21.9339 45.2865 22C45.5519 22.4786 44.187 21.5832 44.1112 21.5368C43.5081 21.2177 43.7132 21.511 43.8701 21.7765C43.8503 21.7946 43.8018 21.8585 43.7797 21.8736C43.8388 21.9865 43.8969 22.088 43.9017 22.1146C43.9769 22.5215 43.6845 22.4855 43.7316 22.7893C43.7616 22.9863 44.5139 23.7427 44.4337 23.778C44.178 23.887 42.993 22.9778 43.7997 24.0168C43.9746 24.2362 44.8986 24.9469 44.0887 24.4884C44.0402 24.4559 43.298 24.041 43.6729 24.4249C43.7206 24.4727 43.9914 24.6778 44.0075 24.7038C44.1112 24.873 43.8642 24.7524 43.925 24.8917C43.9864 25.0303 44.1027 25.2049 43.9635 25.2112C43.881 25.2133 43.3021 24.9492 43.1527 24.8984C42.7231 24.7502 43.3274 25.1722 42.8267 24.9642C42.4724 24.8238 42.0312 24.5519 41.6677 24.3913L41.7072 24.3024C41.5425 24.2528 41.3933 24.2255 41.2732 24.2422C42.094 24.5668 42.9327 24.9099 43.7556 25.2431C43.5539 25.6761 43.1255 25.9628 42.9999 26.3694C42.9851 26.4203 43.4443 26.5516 43.4396 26.6109C43.4196 26.8569 43.0297 26.915 43.0655 27.1846C43.0954 27.3926 43.4888 27.7611 43.5411 27.9741C42.5604 27.7077 42.7816 28.0857 42.6301 28.2295C42.5771 28.2807 42.3256 28.1832 42.2265 28.1978C41.8589 28.2561 42.7273 28.4801 42.8432 28.5725C43.3419 28.9596 41.4286 28.3091 41.3955 28.5658C41.3921 28.5817 42.369 29.0603 42.4281 29.0964C42.8074 29.3479 42.0641 29.004 41.9639 29.0584C41.7819 29.1562 41.5038 29.1901 41.7645 29.4343C41.8414 29.5079 42.4649 29.7768 41.9412 29.7357C41.8725 29.731 41.5276 29.6427 41.5051 29.6472C41.1262 29.7434 42.2192 29.9862 42.5757 30.1341C42.9329 30.2781 42.1561 30.2463 41.9317 30.244C41.3526 30.2256 41.6958 30.157 41.641 30.1442C40.9851 29.9897 41.0819 30.1128 41.0157 30.1811C39.9271 30.0456 39.9765 30.1882 40.9519 30.2532C41.0582 30.2609 40.9638 30.1904 41.0157 30.1811C42.0728 30.397 42.2046 30.4468 41.1949 30.4896C40.7225 30.5152 40.1725 30.4448 40.3712 30.6335C40.4626 30.7128 41.2174 30.6711 41.4244 30.7034C41.8953 30.7484 41.2093 30.8791 41.3221 30.8769C41.3595 30.8619 41.7534 30.7363 41.7892 30.712C41.8773 30.6268 41.5777 30.7127 41.6791 30.5763C41.6871 30.5612 42.0664 30.3512 42.0521 30.3185C41.9794 30.1411 41.7472 30.0795 41.6059 30.0814C41.6192 30.1382 41.6601 30.2021 41.7202 30.242C41.8157 30.3063 42.1367 30.2111 42.2463 30.3189C42.4287 30.5026 42.5137 31.2283 42.8129 31.1837C43.0082 31.1568 43.1313 30.7395 43.3025 30.4899C43.6263 30.0032 43.4932 31.0442 43.4764 31.2062C43.4757 31.2117 43.3029 31.2577 43.3012 31.4933C43.1883 31.9446 43.4746 31.2077 43.4764 31.2062C43.4615 31.3103 43.713 31.5012 43.7955 31.4406C43.8404 31.4078 43.9517 31.0128 43.9723 31.0029C44.4569 30.776 44.8469 30.7812 45.1806 31.0651C45.1854 31.0749 45.0608 31.5164 45.0737 31.5339C45.2533 31.7902 45.5338 31.2799 45.7873 30.9955C46.041 30.7111 46.1532 30.8478 46.1112 31.6421C46.2709 31.5729 46.4101 31.9522 46.4956 32.1808C46.5816 32.4096 46.7419 31.5308 46.7545 31.5151C47.1552 31.0068 47.253 31.5362 47.5716 31.6519C47.7222 31.7086 48.036 31.6063 48.2013 31.5182C48.3315 31.4476 48.3969 31.6603 48.5178 31.5312C48.5339 31.514 48.5334 31.1162 48.5386 31.101C48.6764 30.63 48.5864 31.5991 48.6075 31.7735C48.6845 32.4069 48.7513 32.7452 48.9257 32.4488C48.9697 32.381 49.066 30.9812 49.1211 30.898C49.1972 30.7925 49.1809 31.2947 49.2615 31.1705C49.2683 31.1603 49.2562 30.8513 49.3057 30.8629C49.536 30.9129 49.7936 31.0713 49.9979 31.0106C50.0252 31.0036 49.9208 30.5229 49.956 30.5051C50.1194 30.422 50.2715 30.4079 50.4501 30.5961C50.4949 30.6438 50.5717 30.9792 50.6066 31.0753C50.8321 31.6529 50.6307 30.7753 50.6263 30.7586C50.6546 30.5072 50.7411 30.6004 50.8315 30.6741C51.0724 30.655 51.2927 30.6304 51.363 30.3808C51.3794 30.3455 50.9981 29.4539 51.4749 30.1273C51.5041 30.1738 52.0169 30.8475 51.7357 30.3412C51.7168 30.3105 51.4535 29.9643 51.5155 29.9756C51.5824 29.9833 51.4417 29.7268 51.7609 30.082C51.8558 30.199 52.4446 30.803 52.0095 30.2913C51.9991 30.2359 50.8875 29.2021 51.6349 29.9358C51.7585 30.0562 52.5945 30.7825 52.1618 30.4149C52.0737 30.3488 51.8891 30.184 51.7564 30.103C51.5429 29.9912 51.7594 30.1945 51.2899 30.0247C51.2114 29.9849 50.4918 29.7383 50.9805 30.0448C51.0585 30.0895 51.403 30.2244 51.4306 30.2649C51.4433 30.2832 51.4526 30.2997 51.4591 30.3148C51.6362 30.1682 51.5445 29.9017 51.8352 29.7803C51.9478 29.7335 52.4952 29.9776 52.6764 29.9474C52.8578 29.9164 53.0646 29.7926 52.837 29.6138C52.6092 29.4354 51.6748 29.2239 51.647 29.0688C51.5207 28.4084 52.2242 28.0129 52.4598 27.4494C52.4945 27.3665 52.1464 27.3494 52.173 27.2228C52.2736 26.7494 52.1361 25.9045 52.9207 25.6417C53.5522 25.4224 53.9088 25.9191 54.1886 25.7057C54.323 25.5978 53.2547 25.2747 53.2249 25.2416C52.923 24.9032 53.4369 24.7864 53.3224 24.5124C53.2984 24.4567 52.8467 24.4472 52.831 24.4013C52.7732 24.2455 52.9906 24.1166 52.9693 23.9733C52.9587 23.9091 52.6165 23.8845 52.6486 23.8313C52.7214 23.7034 52.8756 23.6 53.2065 23.4931C53.2367 23.4827 53.6552 23.6005 53.6792 23.4984C53.7166 23.3351 54.0464 23.1414 53.7271 22.9368C53.631 22.8757 52.8482 22.8467 53.3928 22.7487C53.5063 22.7285 54.4466 22.7832 53.6369 22.6252C53.5028 22.5931 52.409 22.3699 53.1146 22.266C53.3005 22.2384 54.0697 22.1531 53.9473 22.0884C53.9278 22.0803 53.5077 22.1231 53.4655 22.0719C53.3241 21.8933 53.3601 21.704 53.2156 21.5384C53.1762 21.4948 52.747 21.595 52.7022 21.5317C52.5786 21.3599 52.6652 21.1391 52.7755 20.9568C52.8169 20.8891 53.1798 20.8757 53.218 20.8658C53.8373 20.6908 52.9785 20.7833 52.9254 20.7714C52.6049 20.6851 52.981 20.5044 52.8479 20.4053C52.8123 20.3788 52.4181 20.4976 52.3809 20.4996C52.018 20.5227 52.7465 20.3943 52.815 20.3327C53.0089 20.1578 52.9379 20.0315 52.8527 19.9425C52.8209 19.9104 52.3832 20.1041 52.3609 20.0767C52.2682 19.9734 52.2282 19.8709 52.2602 19.7424C52.2853 19.6953 52.3436 19.6729 52.4462 19.672C52.5052 19.6724 52.808 19.4639 52.8825 19.425C53.3855 19.126 52.7785 19.6526 52.7559 19.7463C52.6002 20.1056 52.9186 19.9735 53.0411 20.1585C53.2593 20.4823 53.667 20.7309 53.8823 20.8003C54.0704 20.8651 53.793 20.6766 53.6459 20.5959C53.549 20.542 53.4611 20.4791 53.4294 20.414C52.8468 20.3419 52.331 20.2711 51.8207 20.4281C51.7739 20.4422 51.9106 20.9134 51.8722 20.9315C51.3798 21.1427 50.8769 21.0642 50.5284 21.3188C50.5006 21.3386 50.6804 21.7674 50.6431 21.8133C50.5682 21.9104 50.4527 21.9231 50.3189 21.8152C50.2532 21.7637 50.1707 21.3706 50.1048 21.3274C49.949 21.2269 49.8277 21.2415 49.7696 21.3497C49.747 21.396 49.997 21.8019 49.9566 21.8266C49.6762 22.0168 49.6915 22.1151 49.1773 21.7604C49.1442 21.7359 48.4704 21.1232 48.5331 21.2312C48.5344 21.2349 48.5362 21.2392 48.5388 21.2441C48.7349 21.4253 48.9702 21.6334 49.1824 21.8242C48.8675 22.4096 48.0144 23.0491 47.4215 23.8865C47.3965 23.922 47.8666 24.1326 47.8208 24.2021C47.5549 24.6073 47.4263 25.0883 46.7262 25.2735C46.6574 25.2923 45.9002 24.8108 45.9383 25.0125C45.9457 25.0484 45.9308 25.3091 46.0685 25.4593C46.0897 25.4812 46.472 25.6567 46.445 25.7269C46.2817 26.1313 45.9712 26.4795 45.5307 26.7368C45.4589 26.7779 45.1089 26.4917 45.0544 26.5191C44.6698 26.7168 44.7709 27.2281 44.2464 27.3361C43.8935 27.4084 43.2637 26.9561 42.541 26.6943C42.4393 26.6569 42.352 26.7781 41.9635 26.5687C40.9857 26.0437 39.9602 25.3881 38.9139 24.8358C38.6883 24.7172 38.8328 25.0209 38.3518 24.6198C38.3196 24.5929 38.211 24.3687 38.0463 24.2353C37.9325 24.1431 37.5191 23.9628 37.3825 23.8284C37.2456 23.6949 37.6006 23.831 37.4521 23.6516C37.3016 23.4705 36.8378 23.2537 36.867 23.0781ZM46.9052 33.1992C46.966 33.6402 47.1872 32.0855 47.0175 32.4416C47.009 32.4606 46.9021 33.1775 46.9052 33.1992ZM42.0328 25.5055C41.3266 25.4018 42.2228 25.8995 42.7639 25.9905C43.3052 26.0796 42.2471 25.5363 42.0328 25.5055ZM42.2248 23.9178C41.6679 23.773 43.5496 24.9645 43.246 24.6044C43.2289 24.5841 42.2566 23.9271 42.2248 23.9178ZM42.6372 26.0813C42.6181 26.0728 42.5495 26.1533 42.566 26.1662C42.9735 26.4589 43.111 26.2965 42.6372 26.0813ZM42.8031 22.3381C42.5431 22.1736 42.6787 22.5378 43.0027 22.7396C43.2605 22.9046 43.1231 22.5458 42.8031 22.3381ZM53.1642 34.0263C53.1772 34.0459 53.2529 34.0281 53.1871 33.9133C52.9754 33.5437 52.9458 33.6973 53.1642 34.0263ZM44.5988 19.7616C44.3274 20.1418 42.5678 19.5469 42.9514 19.2324C43.0216 19.1727 43.4021 19.6489 43.5978 19.6244C43.9576 19.573 42.9677 18.9629 43.6154 19.0382C43.7339 19.0521 44.6182 19.7414 44.6008 19.7634C44.6001 19.7628 44.5995 19.7622 44.5988 19.7616ZM46.7213 35.0776C46.721 35.0986 46.8226 35.1318 46.8277 35.1117C46.9462 34.6244 46.7474 34.5581 46.7213 35.0776ZM56.7015 31.1852C56.7453 31.1949 56.8656 30.9745 56.8297 30.9528C56.0997 30.5698 55.8587 31.002 56.7015 31.1852ZM39.4434 33.9112C39.0748 34.2735 38.8696 34.2092 39.1453 33.633C39.2329 33.735 39.3533 33.8193 39.4434 33.9112Z" fill="var(--stroke-0, #3B60FF)"/>
<path id="Vector 13" d="M64.1962 20.0669C64.4157 19.8087 64.8497 19.7598 65.2201 19.802C65.3357 19.8148 65.4129 20.0868 65.4979 20.107C65.6641 20.1461 65.7176 19.9679 65.8911 20.0264C65.9497 20.0467 66.095 20.4665 66.1521 20.4787C66.4648 20.5423 66.6278 20.3371 66.8977 20.3087C68.2287 20.169 69.4125 19.7679 70.6438 19.3816C71.0497 19.2538 71.6854 19.3848 71.997 19.0347C72.0331 18.9935 71.8339 18.6604 71.8283 18.6276C71.7463 18.1232 72.0488 18.8452 72.1837 18.894C72.7165 19.0868 73.1247 18.9236 73.3955 18.6221C73.5109 18.4924 73.0242 17.8762 73.361 18.1904C73.384 18.2115 73.5307 18.5975 73.5895 18.6171C73.7214 18.6616 73.8607 18.5102 73.9437 18.5053C74.1048 18.4975 74.1267 18.482 74.255 18.4233C74.4304 18.3471 74.7284 18.4268 74.8723 18.251C74.9027 18.2123 74.6622 17.8616 74.6935 17.7659C74.7249 17.6702 74.9062 17.6198 75.0081 17.6799C75.1089 17.7406 75.2326 18.0489 75.2764 18.1119C75.4359 18.3426 75.4878 18.3062 75.4959 18.1886C75.5132 18.0316 75.456 17.7366 75.4651 17.7182C75.7647 17.1561 76.3095 17.4451 76.4716 17.3282C76.5266 17.289 76.5151 17.2324 76.4477 17.2476C76.3902 17.2535 76.3247 17.2905 76.3176 17.3351C76.2992 17.4603 76.5629 17.4473 76.5129 17.2864C76.5083 17.2713 76.015 17.3176 76.0087 17.3046C75.9432 17.1672 75.931 16.8618 76.0976 16.3718C76.1145 16.3216 76.5391 16.2133 76.5793 16.1517C76.5836 16.1447 76.5881 16.1376 76.5927 16.1304C76.769 16.0721 76.994 15.8672 76.9469 15.7912C76.9055 15.7201 76.6303 15.8324 76.0268 16.5398C76.0476 16.46 76.0065 16.3364 76.0822 15.9431C76.1274 15.6882 76.425 15.3098 76.227 15.4343C76.183 15.4624 76.0239 15.8469 75.9751 15.8627C75.7749 15.9316 75.6601 15.7352 75.4169 15.8711C75.3676 15.8999 75.2443 16.2508 75.2115 16.3099C74.9504 16.7901 75.1272 15.9021 75.1128 15.8284C75.0321 15.2871 74.777 15.4082 74.5359 15.3251C74.4794 15.3056 74.4072 15.8046 74.3486 15.8033C74.2701 15.7999 74.1923 15.7891 74.1154 15.7696C74.0039 15.7445 73.918 15.6603 73.8232 15.4852C73.7938 15.4315 73.8689 15.0116 73.8545 14.964C73.7752 14.7591 73.7108 15.5604 73.6517 15.3854C73.6375 15.3496 73.6509 14.9856 73.6486 14.9456C73.5956 14.3172 73.5521 15.2079 73.5473 15.2277C73.4309 15.5001 73.2248 14.5885 73.0517 14.7564C73.0356 14.7769 73.1713 15.2189 73.1258 15.2478C72.8304 15.4451 72.49 15.4535 71.9493 15.3887C71.8658 15.3798 71.6948 15.076 71.6671 15.0434C71.2048 14.5563 71.7085 15.2971 71.7182 15.3326C71.7266 15.4359 71.6612 15.4416 71.5962 15.4489C71.4516 15.4856 71.3117 15.5209 71.7162 16.0848C70.788 16.4584 70.6465 17.5159 69.3282 17.6777C69.3121 17.6807 68.9749 17.3975 68.944 17.4049C68.5678 17.4942 69.1481 17.8609 69.7154 18.5019C69.8595 18.6607 68.9548 18.1906 68.8857 18.1604C68.6353 18.0423 68.1298 17.6237 68.0773 17.6065C67.6578 17.4822 69.4431 18.7051 69.3477 18.8448C69.3417 18.8473 69.0261 18.6031 68.9852 18.5927C68.8566 18.5603 68.9618 18.6871 68.8231 18.6475C68.5033 18.5542 67.6048 18.0055 68.0251 18.4802C68.0805 18.5408 69.123 19.1888 68.9908 19.2861C68.9366 19.3247 68.8083 19.5665 68.7005 19.5903C68.5924 19.614 68.2836 19.3612 68.2662 19.3567C67.7089 19.2644 67.5664 19.0825 66.8459 18.7769C66.1258 18.477 67.7201 19.3969 67.8741 19.5395C68.0279 19.6812 67.5763 19.5972 67.4268 19.556C67.2773 19.5144 67.0849 19.3452 66.9938 19.333C66.3947 19.2601 67.7333 19.8788 67.9491 20.0892C68.4648 20.5806 67.21 20.0284 67.0113 20.1124C66.9581 20.1344 67.2483 20.2516 67.2549 20.3001C67.2786 20.4888 66.8577 20.3723 67.1201 20.712C67.162 20.769 67.8258 21.2704 67.2488 21.0761C67.1655 21.0482 66.8802 20.8592 66.7818 20.8843C66.7789 20.885 66.7761 20.8858 66.7732 20.8866C66.6481 20.8838 66.5348 20.9882 66.6266 21.0879C66.6962 21.1583 67.254 21.2328 67.0741 21.2412C66.9931 21.2505 66.6815 21.1344 66.5539 21.1703C66.4241 21.209 66.4219 21.3919 66.4343 21.4597C66.4452 21.5286 66.8707 21.4901 66.8993 21.4964C67.0626 21.526 67.2716 21.6108 67.2721 21.6183C67.3181 21.8574 67.1613 22.1994 67.1235 22.5707C67.0907 22.8243 67.1233 23.083 67.3238 23.2572C67.3606 23.2898 67.7455 23.0579 67.7552 23.0608C67.988 23.1004 66.8779 23.5509 66.5867 23.8509C67.376 23.3983 67.2635 23.5376 67.4075 23.5855C67.4774 23.6075 67.7643 23.4008 67.7978 23.3867C68.2925 23.1716 67.7305 23.575 67.6206 23.6657C67.2121 23.9923 67.7596 23.7066 67.4906 23.9293C67.2272 24.1554 66.7491 24.3619 66.8262 24.4634C67.1126 24.305 67.7673 23.7557 67.9263 23.7432C68.5056 23.674 68.3414 24.5066 68.4913 24.7543C68.6243 24.9884 68.7292 25.0027 68.7618 25.1941C68.8272 25.5416 69.1746 25.0037 69.4886 24.8949C69.8016 24.7831 68.7338 25.9133 68.5362 26.1838C68.3407 26.4556 68.5851 26.2124 68.4926 26.3743C68.4008 26.5367 68.1978 26.6629 68.216 26.7679C68.236 26.8748 68.7817 26.5527 69.0189 26.2949C69.5242 25.7515 69.9369 25.0886 69.915 25.4184C69.9137 25.438 69.6338 25.7376 69.6419 25.7963C69.7172 26.254 70.0003 26.4851 70.1294 26.9151C70.147 26.9749 69.8505 27.322 69.8581 27.3612C69.9391 27.7717 70.2887 27.0814 70.901 26.4696C70.2311 27.3834 69.9149 28.0073 70.1021 28.1418C70.2143 28.2228 70.4706 27.7989 70.7376 27.5582C70.8177 27.4854 70.7095 27.8216 70.8531 27.6377C71.323 27.037 71.7197 26.2785 71.7243 26.6887C71.7238 26.7078 71.4663 27.0364 71.4817 27.077C71.5801 27.3405 72.0428 26.6927 72.3045 26.7512C72.5094 26.7966 72.5359 27.3984 72.6797 27.5941C72.2659 28.189 72.197 28.4061 72.3193 28.359L72.2658 28.3284C72.346 28.2747 72.5037 28.0492 72.6767 27.7115C72.7691 27.7894 72.9062 27.7875 72.9784 27.9399C73.0045 27.9923 72.862 28.3334 72.8542 28.3728C72.7439 28.9948 73.0624 28.1991 73.0958 28.1743C73.4666 27.9474 73.565 28.6371 73.9881 28.0793C74.004 28.0592 74.1951 27.1957 74.1415 27.8435C74.1388 27.8883 73.9641 28.2642 74.0949 28.3215C74.2235 28.3788 74.4179 28.8936 74.6768 28.5168C74.7413 28.4266 74.954 27.7315 74.975 28.2999C74.978 28.3771 74.9312 28.6268 74.9321 28.7693C74.9377 29.2235 75.0812 28.3404 75.0622 29.1031C75.0427 29.8656 75.153 30.451 75.4194 29.9499C75.4282 29.9354 75.5444 29.2346 75.6085 29.2516C75.7109 29.2793 75.8481 29.4383 75.9597 29.4415C76.0124 29.4427 76.0092 29.0014 76.0189 28.994C76.3811 28.7713 76.6031 29.1748 76.9799 29.3556C77.0499 29.3897 77.2569 28.7938 77.3841 29.2691C77.5283 29.7892 77.3577 31.9498 77.7273 31.4348C77.8832 31.2282 78.0121 28.4864 78.2892 29.8996C78.7591 29.5351 79.2519 30.2363 79.7038 29.6952C79.7242 29.6712 79.7277 28.9033 79.7775 28.9093C79.8524 28.9197 79.9261 29.2718 79.9819 29.2901C80.2178 29.3756 80.389 29.049 80.6071 29.0697C80.6901 29.0766 80.7083 29.447 80.8101 29.4545C80.9125 29.4613 80.9087 28.9706 81.0736 29.1841C81.1983 29.3469 81.4518 30.3146 81.6135 30.4056C81.4599 29.4363 81.5571 29.4412 81.672 29.1576C81.6939 29.1026 81.6006 28.7723 81.6078 28.729C81.6346 28.5453 81.7399 28.8137 81.7594 28.6149C81.7642 28.5672 81.702 28.2379 81.7019 28.1803C81.7009 28.0081 81.7333 27.9789 81.7793 28.0195L81.5869 28.0765C81.6934 28.1345 81.8921 28.4372 81.9411 28.5104C82.2242 28.9335 82.1023 28.512 82.2497 28.6624C82.4003 28.8111 82.3867 29.0844 82.5225 29.1553C82.8073 29.3005 83.0292 29.132 83.2175 29.0484C83.2924 29.013 83.031 28.6455 83.0368 28.6313C83.1246 28.4556 83.5078 28.7844 83.1375 27.9688C84.3988 29.9001 83.1098 27.727 83.538 28.0069C83.5722 28.0297 84.1614 28.9467 84.1816 29.1216C84.1986 29.2983 83.9289 29.0629 83.9642 29.331C83.975 29.3927 84.3561 30.3515 84.365 30.4174C84.4533 30.9227 83.6442 29.5085 83.5953 29.4335C83.0544 28.63 83.4243 29.6783 83.4088 29.7713C83.3661 30.1843 83.0848 30.0631 83.009 30.3666C82.9581 30.5633 83.3551 31.5531 83.2468 31.5624C83.1334 31.5713 82.9978 31.435 82.8721 31.29C82.7849 31.3075 82.5417 31.4131 82.4528 31.4142C82.2269 31.0674 82.0495 30.6888 82.0035 31.5863C81.9883 31.868 82.2455 33.0074 81.861 32.1419C81.8346 32.0877 81.5395 31.2857 81.5226 31.8244C81.5203 31.8923 81.5708 32.2283 81.5585 32.259C81.474 32.4581 81.3639 32.2003 81.2622 32.345C81.16 32.4896 81.0391 32.6999 80.888 32.6018C80.7964 32.5433 80.6209 31.926 80.5669 31.776C80.4127 31.3439 80.3727 32.0836 80.2523 31.5522C80.135 31.0178 80.1777 30.1848 79.9814 29.8509C80.0578 30.7303 80.1273 31.6336 80.1982 32.5185C79.7975 32.5243 79.3932 32.2665 79.0048 32.3248C78.9564 32.3329 79.0296 32.8044 78.9776 32.8253C78.7563 32.9112 78.5501 32.5803 78.3239 32.7207C78.1489 32.8313 77.9584 33.3367 77.7662 33.4643C77.6449 32.4552 77.3712 32.7976 77.1685 32.7017C77.0981 32.6687 77.1077 32.399 77.0598 32.3101C76.8804 31.9806 76.9468 32.8747 76.8909 33.0139C76.6442 33.6067 76.6907 31.5871 76.4382 31.6264C76.4262 31.6279 76.2058 32.6954 76.1768 32.7608C76.0021 33.1893 76.1724 32.3853 76.0834 32.3006C75.9199 32.1454 75.8258 31.8816 75.6013 32.1808C75.537 32.2695 75.3385 32.9268 75.2675 32.3989C75.2585 32.3298 75.2993 31.9761 75.2893 31.9543C75.1071 31.5881 74.9933 32.7002 74.8198 33.0627C74.6452 33.425 74.5322 32.6336 74.5209 32.4078C74.4883 31.8234 74.6316 32.1738 74.6445 32.1182C74.7904 31.4587 74.6365 31.5569 74.5382 31.4867C74.6645 30.3974 74.5184 30.4439 74.4364 31.4181C74.428 31.5246 74.5236 31.4343 74.5382 31.4867C74.3088 32.5418 74.0996 32.6523 74.0702 31.6301C74.0584 31.151 74.2243 30.6223 73.9423 30.7787C73.8137 30.8485 73.7283 31.6002 73.5839 31.7832C73.2465 32.1993 73.0645 31.442 72.7828 31.4867C72.679 31.5027 72.6722 31.9267 72.5961 31.9509C72.3877 32.0142 72.3138 31.673 72.083 31.77C72.0615 31.7792 71.9803 32.2065 71.9185 32.1937C71.51 32.1143 71.2113 31.7993 70.7973 31.5446C70.7006 31.4769 70.3762 31.3406 70.2934 31.2565C70.2666 31.2257 70.2363 31.1971 70.2016 31.1718C70.0815 31.0842 69.7175 31.1265 69.6037 30.993C69.4074 30.7651 69.4394 30.0321 69.1308 30.0093C68.9305 29.9929 68.7208 30.3732 68.4921 30.5747C68.0479 30.9648 68.3993 29.9648 68.4611 29.8147C68.4635 29.81 68.6501 29.8143 68.707 29.584C68.9294 29.1752 68.4639 29.8142 68.4611 29.8147C68.4997 29.7174 68.2958 29.4559 68.1956 29.4858C68.1411 29.5027 67.9202 29.8486 67.8961 29.8509C67.3275 29.8979 66.8845 29.7002 66.6238 29.2456C66.6223 29.2338 66.919 28.8839 66.9123 28.8609C66.8273 28.5307 66.3345 28.8496 65.9291 28.9387C65.5252 29.0285 65.4405 28.7991 65.8748 28.1267C65.6708 28.0717 65.7209 27.632 65.7682 27.3768C65.8161 27.1225 65.1528 27.7192 65.1296 27.7206C64.407 27.7737 64.6002 27.2175 64.3685 26.7869C64.257 26.5802 63.8789 26.266 63.6528 26.083C63.4718 25.9402 63.5869 25.7224 63.3729 25.6117C63.3441 25.5962 63.0089 25.8117 62.9914 25.8116C62.459 25.827 63.3713 25.4704 63.5028 25.3484C63.9845 24.9064 64.2496 24.69 63.8692 24.5717C63.7846 24.5506 62.4215 24.9247 62.292 24.8203C62.1305 24.6939 62.6221 24.5754 62.4463 24.4512C62.4318 24.4402 62.1419 24.5499 62.1164 24.4369C62.0998 24.3652 62.0858 24.2915 62.0738 24.2165C62.0158 23.7978 62.0174 23.3137 61.9034 22.8152C61.8865 22.7344 61.4207 22.9241 61.3879 22.8026C61.235 22.2344 61.1909 21.441 61.5198 20.6496C61.6032 20.4568 61.9275 20.6292 62.0341 20.6007C62.6731 20.4602 61.8767 19.9265 61.8846 19.8351C61.8837 19.3951 62.0161 18.9584 62.2321 18.5649C62.4438 18.2319 62.9361 18.0956 62.8996 17.5734C62.8941 17.5362 62.1833 16.8391 62.9557 17.1509C63.0076 17.1707 63.7919 17.4994 63.3424 17.1255C63.3145 17.1018 62.9042 16.9429 63.0041 16.8601C63.1033 16.7783 62.9565 16.4582 63.4515 16.5634C63.608 16.5956 64.3872 16.9346 63.9002 16.4483C63.8635 16.4182 62.7171 15.3926 63.6469 15.8826C63.7998 15.9636 64.7216 16.577 64.3466 16.1124C64.2741 16.0222 64.0314 15.9417 63.9547 15.7774C63.8376 15.5226 64.1913 15.5273 63.8878 15.0977C63.8328 15.0232 63.2951 14.4787 63.827 14.7141C63.9101 14.7513 64.1941 14.9903 64.261 14.9671C64.5802 14.8584 64.5496 14.4803 64.9231 14.4101C65.0541 14.3859 65.5003 14.7867 65.6881 14.8046C65.876 14.8222 66.1182 14.7616 65.9688 14.5107C65.8202 14.2585 65.001 13.7575 65.0446 13.581C65.2407 12.8076 66.1451 12.6246 66.6999 12.1694C66.7832 12.1011 66.4763 11.9273 66.5838 11.8084C66.8096 11.5572 67.0788 11.1395 67.4419 10.8707C67.8805 10.5164 68.3648 10.3139 68.8167 10.3865C69.6447 10.5465 69.2499 11.3187 69.7413 11.2895C69.9601 11.2868 69.6237 10.2095 69.6633 10.1495C69.9877 9.58051 70.5418 9.87927 70.9471 9.58199C71.0341 9.52009 70.7963 9.12589 70.876 9.07698C71.1539 8.90455 71.5289 9.01225 71.8134 8.91525C71.9427 8.87069 71.8515 8.53926 71.9845 8.54128C72.3006 8.54404 72.5985 8.65082 72.9128 8.947C72.9391 8.97426 72.8083 9.41287 73.0156 9.41204C73.359 9.41056 73.7522 9.72235 74.1473 9.4215C74.2634 9.33136 74.3442 8.54927 74.5451 9.1147C74.5878 9.2341 74.4036 10.1566 74.7877 9.38877C74.8365 9.25583 75.5596 8.26763 75.6522 9.02094C75.6729 9.20326 75.6384 9.89046 75.7521 9.92273C75.7576 9.92431 75.7643 9.92192 75.7722 9.91504C75.7878 9.89938 75.8596 9.48232 75.9346 9.46074C76.1977 9.39209 76.4312 9.50687 76.7247 9.46056C76.804 9.44768 76.8313 8.99966 76.9473 8.99448C77.2679 8.97996 77.6202 9.21732 77.8914 9.469C77.9914 9.56272 77.7779 9.8668 77.7726 9.90685C77.6701 10.5525 78.0714 9.78588 78.1405 9.76009C78.5558 9.60772 78.6302 10.0864 78.978 10.1449C79.0753 10.1634 79.206 9.7681 79.2399 9.74443C79.5938 9.52664 79.1092 10.1049 79.1838 10.2377C79.3895 10.6125 79.7679 10.8059 80.1652 11.0416C80.3121 11.1293 80.4488 10.6326 80.5832 10.7215C81.3828 11.2283 82.3422 12.3412 82.6006 13.7401C82.6013 13.7438 82.6019 13.7474 82.6024 13.7509C82.5841 13.8637 82.2276 13.9351 82.1584 13.9849C81.6638 14.3288 82.4862 14.25 82.5773 14.2803C82.9859 14.3955 82.7092 14.5943 82.8321 14.7915C83.4253 15.7319 83.6323 17.6703 82.8055 19.6361C82.4844 20.404 81.9821 21.1027 81.4272 21.6246C80.1462 22.7656 79.3604 22.8632 78.8038 23.251C78.7525 23.2828 79.0267 23.6913 78.9851 23.7244C78.7693 23.8849 78.5759 23.9764 78.4167 24.0444C78.1228 24.1733 77.8145 24.2867 77.5614 24.5081C77.5262 24.5376 77.7904 24.9231 77.7406 24.9845C77.6432 25.1116 77.4638 25.1729 77.2674 25.1055C77.1716 25.0737 77.0806 24.6754 76.9877 24.6506C76.7702 24.5926 76.5943 24.6433 76.472 24.7871C76.4202 24.8492 76.7311 25.2232 76.6473 25.271C76.084 25.6038 75.5469 25.9618 74.6833 25.7061C74.6241 25.6885 74.1606 24.8445 74.1568 25.0524C74.269 25.2948 74.409 25.5759 74.533 25.833C73.7506 26.3929 72.759 26.512 71.8816 26.888C71.8444 26.9041 72.1328 27.3302 72.0621 27.3635C71.6549 27.5563 71.3246 27.8767 70.6859 27.6264C70.6229 27.6022 70.2492 26.7866 70.1865 26.9686C70.1756 27.0016 70.0465 27.1983 70.0859 27.3958C70.0924 27.4254 70.3108 27.7844 70.2565 27.8247C69.9434 28.0494 69.5398 28.1409 69.0842 28.0789C69.0107 28.068 68.8736 27.6389 68.8196 27.6276C68.4353 27.5519 68.2789 28.005 67.8333 27.771C67.5302 27.6149 67.2637 26.8879 66.8407 26.2498C66.7798 26.1604 66.6593 26.1996 66.4632 25.8043C65.9681 24.8111 65.4941 23.6908 64.96 22.6352C64.844 22.4083 64.8246 22.7219 64.6399 22.1277C64.6272 22.0881 64.6416 21.8545 64.5779 21.6533C64.5336 21.5144 64.3058 21.126 64.2629 20.9415C64.2195 20.7574 64.42 21.0784 64.3864 20.8535C64.3504 20.6267 64.1063 20.1776 64.1962 20.0669ZM66.0127 26.2466C66.2543 25.8696 65.0376 26.8625 65.4263 26.7393C65.4465 26.7322 66.0013 26.2656 66.0127 26.2466ZM79.3211 31.0816C79.1295 30.3997 79.0841 31.4219 79.2231 31.9498C79.3664 32.4767 79.3815 31.288 79.3211 31.0816ZM80.825 30.4316C80.588 29.911 80.8226 32.1254 80.9646 31.6542C80.973 31.6275 80.8391 30.4618 80.825 30.4316ZM67.187 25.8423C67.1763 25.8243 67.0867 25.8452 67.094 25.8647C67.2685 26.3343 67.4479 26.292 67.187 25.8423ZM82.3351 29.5871C82.2369 29.4295 82.195 29.5069 82.2219 29.6644C82.1991 29.6689 82.1354 29.6966 82.1121 29.6969C82.1099 29.8005 82.1293 29.9424 82.184 30.0817C82.1868 30.089 82.1897 30.0959 82.1925 30.1024C82.2313 30.1018 82.3374 30.0558 82.3754 30.0482C82.5226 30.271 82.5324 29.9011 82.3351 29.5871ZM66.337 19.748C66.3583 19.7577 66.4074 19.7123 66.2909 19.6496C65.9157 19.4477 65.9778 19.5846 66.337 19.748ZM84.5969 28.3285C84.2324 28.4645 83.078 27.0161 83.5091 26.9886C83.5885 26.9824 83.6974 27.5643 83.8623 27.6558C84.1666 27.82 83.6288 26.7922 84.1084 27.2176C84.1967 27.2952 84.6224 28.3227 84.5977 28.331C84.5974 28.3302 84.5972 28.3293 84.5969 28.3285ZM67.4009 24.968C67.4152 24.953 67.3745 24.8738 67.3574 24.8853C66.9415 25.1651 67.0307 25.3337 67.4009 24.968ZM69.1227 17.2402C69.1605 17.2634 69.3127 17.1365 69.2848 17.1065C68.7117 16.5165 68.3908 16.7855 69.1227 17.2402ZM72.6634 27.6241C72.8273 27.4649 72.945 27.3814 72.9984 27.3877L72.758 27.2503C72.8041 27.2368 72.7804 27.3766 72.6766 27.7108C72.6464 27.6788 72.6148 27.6544 72.5847 27.6298L72.7593 27.7296C72.7265 27.6961 72.6934 27.6624 72.6634 27.6241Z" fill="var(--stroke-0, #3B60FF)"/>
<path id="Vector 14" d="M97.277 6.3559C97.64 6.95879 97.8414 7.89919 97.9186 8.65074C97.9432 8.88535 97.642 8.87892 97.648 9.04692C97.6594 9.37316 97.8927 9.59286 97.8857 9.92454C97.8822 10.0352 97.4258 10.0803 97.4317 10.1929C97.4671 10.8092 97.7786 11.2817 97.9163 11.8661C98.1966 13.0553 98.5324 14.2213 98.9023 15.3255C99.1432 16.1441 99.5877 16.9695 100.19 17.7736C100.132 17.7616 100.168 17.8553 100.335 17.9656C100.624 18.1908 101.492 18.76 102.32 18.5839C102.415 18.5641 102.362 18.1766 102.38 18.1449C102.649 17.6567 102.563 18.4377 102.754 18.5375C103.517 18.9288 104.451 18.847 105.163 18.5412C105.466 18.4091 104.985 17.7289 105.389 18.0792C105.418 18.1023 105.432 18.5213 105.529 18.5434C105.75 18.5937 106.102 18.4223 106.257 18.4087C106.391 18.3984 106.475 18.3875 106.549 18.3726C106.54 18.3863 106.529 18.3914 106.528 18.3951C106.51 18.4278 106.838 18.4305 106.943 18.1071C106.963 18.0414 106.569 17.8717 106.563 17.7524C106.555 17.6398 106.737 17.3991 106.88 17.3375C107.023 17.2815 107.293 17.478 107.37 17.4946C108.026 17.6278 107.434 16.8099 107.438 16.7482C107.482 16.359 107.614 15.9991 107.803 15.6419C108.047 15.2165 108.422 14.7676 108.538 14.1719C108.67 13.4934 108.565 12.7096 108.59 12.0119C108.621 11.1807 108.793 10.4246 108.639 9.59189C108.623 9.50581 108.147 9.67593 108.127 9.57282C108.073 9.3015 108.02 9.0294 107.97 8.76857C107.945 8.63528 107.921 8.50913 107.899 8.38921C107.889 8.33236 107.878 8.27172 107.871 8.2291C107.867 8.20422 107.864 8.18783 107.864 8.1786C107.869 8.18042 107.855 8.14603 107.919 8.30403C107.896 8.23125 107.879 8.17333 107.87 8.13509C107.868 8.10445 107.821 8.00954 107.933 8.18941C107.979 8.25534 108.003 8.31487 108.202 8.54023C108.354 8.68432 108.529 8.95504 109.253 9.22955C109.611 9.35583 110.176 9.43441 110.747 9.27103C111.32 9.11584 111.774 8.74771 112.018 8.44386C112.168 8.25359 112.167 8.24175 112.219 8.16073C112.261 8.09282 112.295 8.02891 112.325 7.96911C112.385 7.84945 112.425 7.74634 112.455 7.6567C112.515 7.47754 112.538 7.35044 112.554 7.2498C112.603 6.85864 112.572 6.81791 112.573 6.78234C112.568 6.74349 112.563 6.72261 112.559 6.71117C112.545 6.68114 112.539 6.73219 112.537 6.79266C112.525 7.02485 112.53 7.36582 112.512 7.67829C112.507 7.81278 112.046 7.7414 112.016 7.88356C111.832 8.70426 111.282 10.1131 113.233 10.1418C113.281 10.669 113.356 11.3224 113.094 11.8746C112.925 12.2267 112.396 12.0453 112.679 12.3677C112.743 12.4414 113.121 12.237 113.186 12.3551C113.456 12.843 113.462 13.4567 113.789 13.9176C113.857 14.0133 114.213 13.9001 114.285 13.915C114.873 14.0504 114.096 14.6664 114.054 14.7722C113.745 15.587 114.045 16.0386 114.184 16.6968C114.215 16.8458 114.662 16.5586 114.709 16.6983C114.952 17.4344 115.087 18.2218 115.037 19.0093C115.024 19.1825 114.576 19.1269 114.549 19.2145C114.434 19.6005 115.235 19.5014 115.14 19.8748C115.122 19.9535 114.757 19.9931 114.721 20.0148C114.154 20.3538 115.059 20.3265 115.09 20.3743C115.496 20.9616 114.682 21.5833 114.948 22.1772C114.98 22.2489 115.393 21.9801 115.458 22.1879C115.89 23.5606 116.09 25.0924 116.022 26.5504C116.012 26.7803 115.641 26.696 115.602 26.7185C114.997 27.0802 115.901 27.0402 115.949 27.1025C116.301 27.6031 115.678 28.2832 116.798 28.4456C116.85 29.4624 117.067 30.4469 117.266 31.4435C117.541 32.827 117.777 34.2517 117.393 35.7622C117.386 35.7951 116.942 35.7878 116.929 35.8524C116.761 36.6239 117.424 36.4028 118.294 36.8818C118.513 37.0103 117.52 37.4577 117.446 37.4895C117.176 37.6219 116.519 37.5081 116.467 37.5508C116.058 37.885 118.225 37.8103 118.218 38.3125C118.214 38.3275 117.817 38.256 117.777 38.2958C117.65 38.4185 117.805 38.5468 117.663 38.6631C117.426 38.8551 116.808 38.9262 116.706 39.1138C116.665 39.1998 116.698 39.2973 116.84 39.4647C116.895 39.5451 118.169 39.6619 117.892 40.3349C117.802 40.6187 117.258 41.5745 117.016 41.7066C116.785 41.8664 116.596 41.4701 116.57 41.4761C115.751 41.625 115.753 41.2825 115.016 40.9327C114.305 40.5473 115.615 41.8383 115.662 42.0748C115.706 42.3146 115.094 42.2644 114.925 42.2037C114.754 42.1475 114.695 41.8739 114.575 41.8605C113.791 41.7605 114.922 42.7434 114.933 43.0991C114.935 43.9505 113.859 43.0232 113.452 43.12C113.339 43.1476 113.579 43.3641 113.51 43.4412C113.487 43.4658 113.463 43.4869 113.439 43.5051C113.141 43.7193 112.781 43.5438 112.551 44.0544C112.519 44.1425 112.478 45.0639 112.006 44.6022C111.941 44.5344 111.906 44.1831 111.716 44.1757C111.432 44.1659 110.978 44.2405 110.744 44.4235C110.57 44.56 110.95 45.0365 110.648 44.9384C110.516 44.8929 110.637 44.5221 110.4 44.4612C110.167 44.4016 109.652 44.5274 109.454 44.5723C109.258 44.6191 109.439 45.0184 109.428 45.0495C109.357 45.2298 108.99 45.4942 108.954 45.4977C107.465 45.7527 106.126 45.2819 104.861 45.4405C104.596 45.4743 104.331 45.5233 104.066 45.595C103.938 45.6288 104.079 46.0632 104.06 46.0729C103.632 46.3127 103.846 45.0878 103.495 44.7262C103.641 45.6251 103.44 45.4828 103.138 45.6131C102.991 45.6765 103.108 46.019 103.097 46.0562C102.922 46.6107 102.699 45.9362 102.648 45.7988C102.455 45.2936 102.346 45.9187 102.217 45.5799C102.092 45.2434 102.28 44.7166 101.987 44.7448C101.927 45.0756 102.212 45.9083 101.992 46.0622C101.153 46.651 99.4982 46.0336 98.8158 45.9639C98.1259 45.8988 97.9049 45.9556 97.5055 45.834C96.7871 45.6111 97.0415 46.2459 96.5833 46.5254C96.1238 46.8032 96.3842 45.2556 96.3284 44.9202C96.2748 44.5849 96.1956 44.9265 96.124 44.7408C96.0523 44.5552 96.2255 44.3332 96.0466 44.259C95.8666 44.1851 95.3487 44.7611 95.2707 45.1073C95.1255 45.7493 95.2598 46.4302 94.972 46.3952C94.8874 46.3883 94.783 46.3633 94.6552 46.3079C94.6029 46.2823 94.8403 45.9098 94.6495 45.8331C94.1234 45.6425 93.6727 45.1028 93.5736 44.6846C93.4498 44.2613 93.4632 43.9162 93.4803 43.6099C93.4957 43.2884 93.5581 42.9764 93.6745 42.6924C93.7254 42.573 94.1664 42.7277 94.201 42.6646C94.588 42.0507 93.7953 42.1745 93.0892 41.5047C94.1554 41.907 94.8624 41.8924 95.0434 41.4703C95.1609 41.2075 94.6912 41.0509 94.4687 40.7089C94.4029 40.6028 94.8099 40.5568 94.6251 40.4112C94.028 39.9235 93.1621 39.7084 93.7766 39.3347C93.8043 39.3201 94.116 39.6087 94.1852 39.5435C94.2814 39.4543 94.3282 39.3642 94.3458 39.2693C94.4211 38.914 94.0984 38.4785 94.4072 37.9882C94.7198 37.4847 95.7817 37.1652 96.2997 36.9005C97.05 37.9266 97.2604 37.4219 96.9917 36.5591C97.3276 36.3916 97.6556 36.154 98.0246 36.1041C98.151 36.0869 98.2448 36.4524 98.2763 36.4811C98.7519 36.9421 98.5156 36.1105 98.5746 36.0461C99.2059 35.3979 100.065 35.7658 100.567 34.9096C100.584 34.8791 100.327 34.0313 100.739 34.5696C100.766 34.6072 100.664 35.071 101.013 34.9793C101.362 34.8878 102.155 35.1134 102.474 34.561C102.548 34.4362 102.576 33.7507 102.919 34.0242C102.943 34.0429 102.969 34.0661 102.997 34.0945C103.054 34.1542 103.111 34.4041 103.205 34.5195C103.505 34.8869 103.268 34.0208 103.701 34.6694C104.135 35.3176 104.675 35.7229 104.96 35.0594C104.969 35.0397 104.836 34.3337 104.986 34.2903C105.228 34.2213 105.612 34.238 105.856 34.1447C105.973 34.0996 105.747 33.7134 105.765 33.6984C106.473 33.1794 107.17 33.3462 108.076 33.2035C108.241 33.1785 108.489 32.4534 108.948 32.7935C109.454 33.1648 109.837 35.3214 110.425 34.5663C110.662 34.2632 110.133 31.543 111.16 32.6848C112.11 31.973 113.344 32.3041 114.245 31.4446C114.286 31.4062 114.177 30.632 114.294 30.6009C114.467 30.5561 114.681 30.8587 114.809 30.8374C114.902 30.8235 114.989 30.7983 115.073 30.7656C115.482 30.6212 115.808 30.3023 116.227 30.2103C116.42 30.1675 116.466 30.5405 116.694 30.4903C116.922 30.4402 116.926 29.9287 117.298 30.0608C117.579 30.1622 118.093 31.0463 118.423 31.07C118.157 30.1254 118.37 30.0831 118.67 29.7284C118.728 29.6597 118.558 29.3529 118.581 29.3034C118.672 29.0946 118.876 29.3314 118.957 29.1104C118.977 29.0572 118.89 28.7336 118.901 28.6718C118.998 28.1331 119.567 28.7625 119.662 28.8737C120.03 29.2934 120.036 28.8426 120.27 28.9867C120.503 29.1317 120.285 29.4379 120.529 29.5008C121.032 29.6312 121.589 29.4508 122.046 29.376C122.228 29.3442 122.018 28.9297 122.042 28.9149C122.264 28.7994 122.53 28.9094 122.712 28.7932C122.825 28.7229 122.906 28.5641 122.916 28.217C123.647 30.4176 123.093 27.9572 123.711 28.2738C123.76 28.2993 124.099 29.337 123.969 29.5363C123.837 29.7357 123.497 29.47 123.297 29.7655C123.261 29.8245 123.129 30.6054 123.054 30.8816L123.073 30.8784C123.066 30.927 123.059 30.9599 123.055 30.9702C122.838 31.4993 122.496 29.9084 122.461 29.8236C122.086 28.9116 121.926 30.0666 121.851 30.1606C121.487 30.5933 121.069 30.4559 120.763 30.7867C120.564 31.0013 120.803 32.0413 120.614 32.0559C119.99 32.1063 119.368 30.7348 119.143 32.1408C119.095 32.4412 119.544 33.5237 118.847 32.7728C118.805 32.725 118.235 32.0198 118.197 32.5858C118.193 32.6571 118.292 32.9818 118.269 33.0187C118.113 33.2593 117.894 33.0439 117.702 33.2395C117.511 33.435 117.294 33.7065 116.996 33.6813C116.816 33.6664 116.417 33.1304 116.292 33.008C116.046 32.7622 115.968 33.0587 115.842 33.1063L115.916 33.0809C115.86 33.1042 115.793 33.0793 115.695 32.9388C115.373 32.4776 115.357 31.6057 114.881 31.405C115.169 32.2395 115.448 33.1021 115.729 33.9444C114.932 34.2004 114.063 34.2094 113.289 34.5273C113.194 34.5675 113.453 34.9787 113.355 35.0334C112.938 35.2621 112.439 35.081 112.027 35.3704C111.71 35.596 111.489 36.2076 111.163 36.4579C110.599 35.5862 110.166 36.104 109.739 36.1583C109.589 36.1778 109.508 35.9202 109.38 35.8725C108.897 35.6991 109.372 36.4773 109.317 36.646C109.081 37.3669 108.364 35.4775 107.864 35.7098C107.838 35.7213 107.868 36.8548 107.846 36.9341C107.703 37.4504 107.67 36.5989 107.461 36.5898C107.08 36.5728 106.76 36.4151 106.479 36.8531C106.397 36.9823 106.357 37.7117 105.96 37.3048C105.907 37.2517 105.8 36.9117 105.77 36.9008C105.229 36.7298 105.605 37.7832 105.5 38.2267C105.394 38.6699 104.758 38.0844 104.603 37.905C104.204 37.4405 104.667 37.618 104.657 37.5613C104.546 36.886 104.317 37.0942 104.092 37.1194C104.092 37.1194 104.092 37.1194 104.091 37.1195C103.67 36.1069 103.393 36.2802 103.843 37.1545C103.893 37.2499 104.029 37.0897 104.091 37.1195C104.278 38.1994 103.966 38.4619 103.261 37.6461C102.931 37.2633 102.906 36.6896 102.462 37.0601C102.261 37.2273 102.601 37.9079 102.468 38.1733C102.165 38.7784 101.355 38.3209 100.961 38.5949C100.82 38.6935 101.122 39.0188 101.033 39.0989C100.802 39.3115 100.447 39.1237 100.257 39.3837C100.241 39.4075 100.473 39.777 100.4 39.8165C99.8571 40.1209 99.2952 40.1141 98.8595 40.4203C98.6425 40.5703 98.5008 41.0162 98.3291 41.1405C98.1724 41.252 97.9023 41.3052 97.6545 41.4141C97.3753 41.5733 97.1391 41.7514 97.1165 41.9663C97.0901 42.2426 97.5125 42.3688 97.7475 42.5654C98.2161 42.9154 97.1981 42.7613 97.0303 42.7833C97.0228 42.7874 96.965 42.6108 96.7284 42.634C96.2662 42.5704 97.028 42.7843 97.0303 42.7833C96.9204 42.7827 96.7844 43.0218 96.8718 43.054C96.9164 43.0753 97.3266 43.0748 97.3423 43.0815C97.412 43.1077 97.4738 43.1164 97.5247 43.1152C97.6264 43.3446 97.7863 43.296 97.5018 42.6681C97.3558 42.3633 96.9744 41.8812 96.4546 41.5915C95.9377 41.2943 95.4478 41.2357 95.1785 41.2485C95.2762 41.2663 95.373 41.2874 95.4692 41.3117C95.4846 41.3206 95.4438 41.778 95.4804 41.7931C95.996 42.0159 96.3489 41.4647 96.7798 41.1413C97.211 40.8179 97.5381 40.9334 97.783 41.7228C98.1031 41.6267 98.5592 41.9746 98.8267 42.1833C99.0931 42.3921 99.1189 41.4984 99.141 41.4805C99.8433 40.9043 100.258 41.4034 100.993 41.4457C101.342 41.4679 102.014 41.2912 102.37 41.1596C102.652 41.0551 102.848 41.2455 103.099 41.0833C103.133 41.0615 103.052 40.6705 103.062 40.6541C103.299 40.1485 103.271 41.1296 103.352 41.2949C103.649 41.8949 103.838 42.2111 104.186 41.8631C104.215 41.8338 104.242 41.624 104.271 41.3649C104.355 40.9121 104.474 40.3115 104.605 40.2435C104.872 40.1073 104.825 40.6174 105.092 40.4668C105.114 40.4545 105.078 40.1468 105.251 40.1435C106.046 40.1257 106.802 40.2567 107.419 40.1621C107.503 40.1505 107.346 39.6733 107.464 39.6485C108.016 39.5326 108.516 39.4744 108.968 39.6049C109.08 39.6383 109.097 39.9871 109.143 40.0812C109.435 40.6467 109.401 39.7249 109.417 39.7019C109.85 39.2159 110.362 39.4677 110.812 39.2033C110.974 39.1053 111.12 38.979 111.235 38.8082C111.276 38.7551 111.012 37.7714 111.604 38.356C111.641 38.3977 112.279 38.9738 112.014 38.4463C111.995 38.4149 111.667 38.1224 111.795 38.0753C111.93 38.0218 111.84 37.7104 112.231 37.9881C112.345 38.0894 113.068 38.5342 112.524 38.1393C112.505 38.1265 112.178 37.9091 111.922 37.8434C111.67 37.7682 111.493 37.8672 111.956 38.1235C112.106 38.2238 113.153 38.5392 112.553 38.5984C112.433 38.6322 112.214 38.4594 112.029 38.6108C111.964 38.6684 111.929 38.744 111.91 38.8275C111.875 38.6128 111.973 38.3832 111.598 38.1746C111.511 38.1225 110.762 37.9412 111.331 37.7936C111.42 37.7691 111.79 37.8094 111.83 37.7278C112.022 37.3356 111.747 36.9358 111.953 36.4683C112.025 36.3007 112.629 36.3157 112.768 36.125C112.907 35.9342 113.011 35.5516 112.712 35.4002C112.414 35.2544 111.502 35.5974 111.385 35.3334C111.027 34.5352 111.064 33.6217 111.052 32.6913C111.043 32.2756 111.029 31.8639 110.972 31.4634C110.944 31.2653 110.643 31.4951 110.578 31.2091C110.333 30.1309 109.641 28.3741 110.149 27.2828C110.559 26.4226 111.189 27.2611 111.3 26.6471C111.353 26.3555 110.204 26.2796 110.156 26.2225C109.671 25.6487 110.054 25.1009 109.78 24.5471C109.723 24.4338 109.31 24.6468 109.267 24.5496C109.115 24.2208 109.231 23.8102 109.121 23.4821C109.071 23.336 108.742 23.4373 108.738 23.2945C108.724 22.955 108.801 22.635 109.042 22.2401C109.064 22.2043 109.525 22.3103 109.486 22.0618C109.422 21.6612 109.623 21.1074 109.2 20.7201C109.074 20.6073 108.308 20.7734 108.771 20.3685C108.868 20.2824 109.804 20.1575 108.934 19.9958C108.789 19.9666 107.591 19.6396 108.218 19.2114C108.384 19.1002 109.091 18.7383 108.935 18.6013C108.912 18.5834 108.521 18.7659 108.45 18.6397C108.208 18.1968 108.139 17.6931 107.898 17.2363C107.833 17.1159 107.453 17.405 107.37 17.223C107.14 16.7151 107.096 16.0393 107.105 15.476C107.11 15.2731 107.492 15.3232 107.527 15.3004C108.097 14.9314 107.227 14.9995 107.161 14.9377C106.756 14.5252 107.074 14.1085 106.865 13.6883C106.809 13.5763 106.429 13.7544 106.388 13.7392C105.982 13.5783 106.743 13.5899 106.786 13.4186C106.909 12.9347 106.766 12.4728 106.608 12.0297C106.551 11.873 106.13 12.163 106.084 12.0217C105.802 11.1817 105.635 10.2737 105.696 9.34221C105.707 9.15847 106.089 9.18756 106.163 9.13324C106.681 8.76382 105.821 8.56092 105.728 8.48502C105.514 8.30164 105.481 8.16474 105.473 7.93741C105.468 7.81034 105.482 7.76411 105.469 7.52009C105.464 7.39922 105.455 7.26401 105.45 7.02735C105.449 6.9743 105.445 6.7779 105.46 6.56319C105.48 6.33237 105.493 6.03965 105.659 5.48068C105.748 5.19959 105.876 4.84063 106.168 4.37302C106.25 4.00629 108.168 2.04917 110.115 2.22247C112 2.30823 112.728 3.07017 113.15 3.39737C113.351 3.57323 113.539 3.78465 113.577 3.82957C113.615 3.87228 113.649 3.91254 113.68 3.95069C113.953 4.28755 114.056 4.46839 114.149 4.62011C114.246 4.78506 114.274 4.83568 114.309 4.89532C114.375 5.01193 114.427 5.10849 114.476 5.20193C114.552 5.34016 114.612 5.45203 114.676 5.58219C114.841 5.99596 114.842 6.02811 114.888 6.15876C114.918 6.24734 114.947 6.33556 114.969 6.40539C115.014 6.54837 115.05 6.6717 115.086 6.80367C115.152 7.0446 115.208 7.28488 115.254 7.51597C115.348 7.98554 115.409 8.44453 115.449 8.90499C115.528 9.81955 115.516 10.7272 115.472 11.5323C115.305 13.9239 114.81 15.8092 113.776 18.3842C113.765 18.4095 113.768 18.4319 113.781 18.4524C113.865 18.5349 114.208 18.6303 114.186 18.6982C113.727 19.7699 113.362 21.1259 111.242 23.469C111.043 23.6601 111.663 23.7342 111.326 24.068C110.799 24.5879 109.864 25.1823 108.843 25.4328C108.716 25.451 108.591 25.4603 108.471 25.4595C108.231 25.4574 108.407 24.9899 108.174 24.9933C107.63 24.9989 107.1 25.0979 106.608 25.2781C106.398 25.3553 106.824 25.7501 106.539 25.8147C104.6 26.2447 102.588 26.5182 100.36 25.6199C100.204 25.5556 100.218 24.5877 99.8704 24.7118C99.7973 24.9698 99.7404 25.2786 99.6764 25.557C98.1766 25.314 96.2558 24.7888 94.5058 22.806C93.4907 21.5528 92.6104 20.0856 91.9143 18.4632C91.9139 18.4624 91.9135 18.4615 91.9131 18.4607C91.8693 18.3754 91.4803 18.7365 91.4022 18.5583C90.9434 17.509 90.4033 16.588 90.445 15.3601C90.4487 15.2387 91.2994 14.95 91.0512 14.7017C91.0063 14.6578 90.7114 14.2509 90.4837 14.2067C90.45 14.2018 90.0956 14.4417 90.0251 14.2999C89.6219 13.4723 89.3569 12.5439 89.2639 11.5927C89.2499 11.4394 89.7228 11.4267 89.7161 11.3154C89.6683 10.5331 89.0622 9.88665 89.1933 9.05175C89.2836 8.49154 90.0719 8.40847 90.7033 7.91392C90.7926 7.84598 90.7104 7.54731 91.1265 7.39842C92.1701 7.02 93.3648 6.76336 94.4716 6.34273C94.7084 6.24997 94.354 6.03999 94.9945 6.02333C95.0364 6.02055 95.3039 6.18045 95.5218 6.1714C95.6716 6.16351 96.0731 5.95022 96.2747 5.96867C96.4771 5.98989 96.1506 6.19724 96.4058 6.26801C96.6608 6.3293 97.1212 6.10171 97.277 6.3559ZM100.04 43.1042C100.302 43.5247 100.282 41.9542 100.033 42.3382C100.021 42.3586 100.027 43.0835 100.04 43.1042ZM113.668 33.0923C113.117 32.5541 113.244 33.5901 113.648 34.0138C114.052 34.4365 113.835 33.2552 113.668 33.0923ZM116.745 31.4922C116.208 31.0899 116.831 33.2286 117.085 32.6752C117.1 32.6437 116.777 31.5156 116.745 31.4922ZM91.305 8.95604C91.323 8.94462 91.269 8.73834 91.2482 8.74151C90.7407 8.80587 90.8496 9.22027 91.305 8.95604ZM119.865 30.0052C119.671 29.7443 119.423 30.171 119.666 30.4936C119.859 30.7533 120.104 30.3298 119.865 30.0052ZM113.037 42.4752C113.053 42.493 113.189 42.4322 113.116 42.322C112.88 41.9674 112.774 42.1756 113.037 42.4752ZM125.581 28.61C124.718 28.7787 123.715 27.1508 124.666 27.0915C124.84 27.0797 124.479 27.757 124.733 27.8556C125.2 28.0339 125.122 26.8521 125.689 27.3282C125.79 27.4161 125.634 28.6035 125.58 28.6129C125.58 28.6119 125.58 28.6109 125.581 28.61ZM100.246 44.9846C100.252 45.0053 100.458 45.0176 100.462 44.9968C100.554 44.4947 100.142 44.4695 100.246 44.9846ZM116.897 35.2481C116.941 35.232 116.913 34.7381 116.87 34.7302C116.029 34.6027 116.079 35.5712 116.897 35.2481ZM96.3273 36.9224C96.2366 36.3667 96.4897 36.1282 96.9904 36.5591C96.7627 36.6616 96.5507 36.7978 96.3273 36.9224Z" fill="var(--stroke-0, #3B60FF)"/>
</g>
</svg>
