<svg preserveAspectRatio="none" width="100%" height="100%" overflow="visible" style="display: block;" viewBox="0 0 175.98 111.896" fill="none" xmlns="http://www.w3.org/2000/svg">
<g id="toast">
<path id="Vector 6" d="M61.2785 54.0995C61.0598 53.8134 61.0238 52.9983 61.1719 52.5674C61.1725 52.566 61.173 52.5645 61.1736 52.5631C61.1654 52.5398 61.1689 52.4639 61.1613 52.4404C61.2099 52.283 61.4663 52.34 61.5097 52.2375C61.5968 52.0405 61.4666 51.8951 61.5825 51.7417C61.6223 51.6919 62.0294 51.7457 62.0619 51.6951C62.2378 51.426 62.1386 51.2046 62.2319 50.9774C62.4836 50.3776 62.6722 49.8562 62.8321 49.3341L62.823 49.5435C62.9264 49.3517 62.9738 48.9985 63.0148 48.5337C63.0448 48.1962 63.3761 47.7118 63.2135 47.2895C63.194 47.2393 62.8377 47.2705 62.8083 47.2609C62.3585 47.1031 63.0783 47.1566 63.1752 47.0595C63.5588 46.6701 63.6282 46.2535 63.5574 45.8455C63.5271 45.6708 62.8004 45.7133 63.2227 45.6127C63.2513 45.6062 63.6155 45.7175 63.6636 45.6806C63.7713 45.597 63.7461 45.3957 63.7943 45.3257C63.8881 45.1936 63.8908 45.1688 63.9329 45.0339C63.9629 44.9445 64.0346 44.864 64.1011 44.7778C64.1915 44.6297 64.2828 44.474 64.3403 44.2646C64.3662 44.1744 63.9598 44.1091 63.9832 43.9296C63.9909 43.7634 64.3708 43.2604 64.7943 43.0703C65.1842 42.905 65.2067 43.2704 65.2998 43.291C65.6444 43.4177 66.1739 43.0762 67.0109 43.2586C67.8007 43.4629 68.112 43.6719 68.1831 43.7144C68.6684 44.2604 68.7044 44.4927 68.7725 44.7362C68.8212 44.968 68.8036 45.1544 68.7739 45.327C68.7208 45.4798 68.6558 45.6315 68.6717 45.7793C68.7017 46.0489 68.8836 46.318 68.8887 46.5699C68.8933 46.8701 68.711 47.1416 68.7796 47.4198C68.7864 47.4491 69.2356 47.3617 69.2448 47.3971C69.3422 47.7732 69.3404 48.1452 69.0916 48.5609C69.0662 48.6028 68.6628 48.6145 68.6139 48.6604C68.3219 48.9359 67.6076 49.4545 69.3491 49.2801C69.3236 49.3848 69.3002 49.5026 69.2035 49.6283C69.1504 49.705 69.0734 49.7818 68.9595 49.8593C68.7556 49.9981 68.3091 49.9868 68.5144 50.0691C68.5602 50.0878 68.9291 49.9817 68.9695 50.0157C69.1388 50.1575 69.0514 50.3649 69.2765 50.4957C69.3231 50.5221 69.6582 50.4505 69.7206 50.4489C70.2269 50.4398 69.4397 50.7245 69.386 50.7644C68.9867 51.0683 69.1891 51.1994 69.2153 51.4095C69.2212 51.4584 69.664 51.3209 69.686 51.3652C69.7938 51.5958 69.7984 51.8536 69.6375 52.1241C69.6006 52.1844 69.2061 52.2021 69.1687 52.2342C69.0084 52.3749 69.7422 52.2754 69.6025 52.4081C69.5739 52.4359 69.241 52.4792 69.2054 52.4894C68.6458 52.6491 69.4632 52.5681 69.4838 52.5816C69.7624 52.7479 68.9405 53.0206 69.0929 53.1995C69.112 53.2207 69.5219 53.0978 69.55 53.1619C69.6734 53.4404 69.7 53.7443 69.6311 54.0595C69.5955 54.236 69.5319 54.4268 69.4369 54.5984C69.3957 54.679 69.0726 54.6716 69.0343 54.6818C68.4371 54.8444 69.2577 54.7715 69.2918 54.7918C69.5388 54.9505 68.8756 55.2049 69.8636 55.2088C69.6215 56.0268 70.2432 56.7826 69.4032 57.6187C69.3934 57.629 68.9878 57.63 68.9701 57.6504C68.7529 57.8951 69.38 57.8213 70.1554 57.9612C70.3501 57.9982 69.4234 58.1473 69.3553 58.1581C69.105 58.2024 68.5013 58.1747 68.453 58.1886C68.0729 58.2991 70.0666 58.2465 70.0688 58.4027C70.0656 58.4075 69.6984 58.3906 69.662 58.4037C69.5478 58.4438 69.6938 58.482 69.5676 58.5207C69.2753 58.6107 68.3065 58.6305 68.8689 58.7653C68.9418 58.783 70.0736 58.7707 70.0175 58.9101C69.9946 58.9635 70.0059 59.2152 69.9288 59.2812C69.8523 59.3471 69.4906 59.2814 69.4746 59.2858C68.9838 59.4407 68.7877 59.3621 68.0705 59.3998C67.3559 59.4302 69.0486 59.5279 69.2346 59.5794C69.4202 59.6302 69.0122 59.7336 68.8714 59.7504C68.7307 59.7686 68.504 59.7073 68.4234 59.7269C67.8968 59.8483 69.252 59.8953 69.5123 59.9899C70.125 60.2359 68.8612 60.1909 68.7173 60.2994C68.678 60.3304 68.9654 60.3498 68.9857 60.3885C69.0608 60.5443 68.6617 60.5403 68.9719 60.7808C69.0256 60.8096 69.7091 61.1767 69.1479 61.107C69.0678 61.0943 68.7806 60.9651 68.6947 61.0011C68.5644 61.0603 68.4452 61.1775 68.4887 61.3242C68.5203 61.4335 69.0271 61.5779 68.8283 61.611C68.7409 61.6215 68.5188 61.3991 68.3816 61.4206C68.2473 61.4418 68.1363 61.6212 68.0722 61.697C68.0158 61.7689 68.3208 62.0171 68.3352 62.0402C68.414 62.184 68.284 62.5228 68.2498 62.5365C67.8418 62.8239 67.2625 62.8181 66.9252 62.6637C66.4809 62.4602 66.2095 62.1343 65.934 61.8334C65.8791 61.7651 65.8052 61.7085 65.7091 61.6742C65.6692 61.6593 65.4046 61.9774 65.3956 61.9782C65.1786 62.0114 66.0098 61.286 66.1925 60.9531C65.6279 61.5726 65.6906 61.4232 65.5568 61.4233C65.4914 61.4234 65.2872 61.677 65.2613 61.6982C64.8709 62.0074 65.2725 61.5108 65.3532 61.4078C65.6494 61.0283 65.222 61.4028 65.4202 61.149C65.6178 60.8981 65.9963 60.6085 65.9256 60.5487C65.698 60.7459 65.204 61.3589 65.0629 61.3991C64.5212 61.5473 64.5744 60.7138 64.4778 60.4999C64.3741 60.2825 64.2841 60.2578 64.2841 60.0842C64.2882 59.7711 63.8849 60.1998 63.5729 60.2274C63.2602 60.2509 64.468 59.4776 64.7042 59.2795C64.9427 59.0843 64.6731 59.2516 64.7969 59.1339C64.9215 59.0173 65.1208 58.9369 65.142 58.8568C65.1653 58.7806 64.6299 58.9653 64.3486 59.1224C63.7541 59.4583 63.1986 59.9174 63.3131 59.6306C63.3203 59.6142 63.6551 59.4394 63.667 59.3872C63.7554 58.9857 63.6272 58.7191 63.7331 58.3557C63.7486 58.3063 64.1387 58.1507 64.1524 58.1206C64.2999 57.8103 63.6987 58.1884 62.9287 58.3908C63.8916 57.9867 64.4434 57.6609 64.3912 57.5215C64.3593 57.4344 63.9438 57.6219 63.6214 57.6811C63.5238 57.6981 63.7891 57.5173 63.5846 57.5825C62.9148 57.7919 62.2067 58.1397 62.4301 57.8435C62.4411 57.8304 62.8106 57.7241 62.8225 57.689C62.9031 57.463 62.2036 57.6836 62.0518 57.5012C61.9998 57.4396 62.0387 57.3216 62.1013 57.1937C62.1825 57.0471 62.2992 56.8891 62.3127 56.7873C63.4438 56.4759 63.1443 56.4009 62.3466 56.5494C62.3503 56.4367 62.2753 56.3324 62.3569 56.2016C62.3845 56.1566 62.7194 56.0946 62.7538 56.0809C63.2938 55.8696 62.5205 56.0221 62.4845 56.0055C62.1302 55.8285 62.6622 55.4899 62.0397 55.3788C62.0174 55.3752 61.2184 55.5373 61.7849 55.3427C61.8241 55.3301 62.2036 55.3293 62.2068 55.2104C62.2094 55.0882 62.5939 54.7921 62.1932 54.7064C62.0967 54.6861 61.4274 54.7065 61.9217 54.5336C61.9889 54.5107 62.221 54.4811 62.3464 54.4434C62.7462 54.3241 61.9299 54.4384 62.6101 54.2638C63.2904 54.0892 63.7908 53.9051 63.2916 53.8281C63.2771 53.826 62.6256 53.8832 62.6288 53.8317C62.6347 53.7512 62.7552 53.6223 62.7415 53.5417C62.7347 53.5032 62.3349 53.5751 62.3267 53.5692C62.0698 53.3221 62.4118 53.0886 62.5513 52.7974C62.5777 52.7456 62.0176 52.6175 62.4508 52.4974C62.9127 52.3736 64.8131 52.4109 64.4705 52.2182C64.4612 52.2129 64.4503 52.2073 64.4376 52.2015C64.2461 52.1182 61.7189 52.0188 63.0258 51.823C62.6992 51.4687 63.3709 51.1469 62.9129 50.7868C62.8926 50.7707 62.1886 50.7099 62.1988 50.6718C62.2153 50.6154 62.5451 50.5899 62.5675 50.5504C62.6696 50.3844 62.391 50.2253 62.4385 50.064C62.4559 50.0029 62.7958 50.0324 62.8166 49.9598C62.8371 49.8873 62.39 49.8273 62.6092 49.7334C62.7762 49.6627 63.6946 49.614 63.8043 49.5192C62.9006 49.4889 62.9212 49.4217 62.6864 49.2928C62.6409 49.2681 62.3255 49.2832 62.2877 49.2709C62.127 49.2209 62.3891 49.1877 62.214 49.1388C62.172 49.127 61.8634 49.1163 61.8116 49.106C61.3595 49.0182 62.0578 48.9216 62.1794 48.9056C62.6412 48.8439 62.2412 48.7928 62.4242 48.739C62.6071 48.6859 62.8297 48.7836 62.942 48.7181C63.1742 48.5822 63.1318 48.3956 63.1524 48.2496C63.1587 48.1913 62.7451 48.2132 62.7365 48.2044C62.6373 48.079 63.081 47.9778 62.2642 47.8697C64.3887 47.89 62.062 47.7855 62.4955 47.6328C62.5305 47.6205 63.534 47.6566 63.6784 47.717C63.8228 47.7737 63.5052 47.8401 63.7314 47.9204C63.7844 47.9396 64.7194 48.0828 64.7758 48.0968C65.216 48.2182 63.7167 48.1671 63.6341 48.1689C62.743 48.1903 63.7502 48.3574 63.819 48.3896C64.1336 48.5464 63.918 48.6602 64.1424 48.7876C64.2875 48.8715 65.2692 48.9157 65.237 48.9745C65.1305 49.1727 63.758 49.2003 64.9401 49.429C65.1922 49.4779 66.267 49.4698 65.4185 49.59C65.365 49.5973 64.5895 49.6848 65.0764 49.761C65.1377 49.7706 65.4506 49.7788 65.4766 49.7899C65.6448 49.8639 65.3943 49.9036 65.5118 49.9822C65.6293 50.0608 65.8052 50.1552 65.6972 50.2386C65.6326 50.2888 65.0482 50.3434 64.9049 50.3656C64.4922 50.4281 65.1651 50.5164 64.6664 50.5511C64.1651 50.5868 63.4065 50.4861 63.0811 50.5983C63.8942 50.6161 64.7286 50.6397 65.5462 50.6597C65.5136 50.9088 65.2479 51.1515 65.283 51.3993C65.2882 51.4302 65.7255 51.4001 65.7423 51.4329C65.8114 51.5699 65.5 51.6884 65.6251 51.8281C65.7237 51.9341 66.1881 52.0442 66.3069 52.1448C66.1726 52.1567 66.0645 52.17 65.9774 52.1843C65.4616 52.2681 65.6861 52.3852 65.6175 52.4763C65.5898 52.5141 65.3415 52.5236 65.2618 52.5545C64.9677 52.6715 65.7864 52.5786 65.917 52.5973C66.4748 52.6696 64.618 52.804 64.676 52.9503C64.6786 52.9603 65.6748 52.9609 65.7373 52.9647C66.1454 52.9989 65.3947 53.01 65.3265 53.0652C65.2022 53.1662 64.9741 53.259 65.2758 53.3288C65.3652 53.3501 65.9872 53.3367 65.5218 53.4611C65.4609 53.4777 65.1356 53.5197 65.1175 53.5289C64.8179 53.6932 65.8378 53.5437 66.192 53.5493C66.5459 53.5539 65.8608 53.7674 65.6628 53.825C65.15 53.9714 65.4322 53.8224 65.3805 53.8281C64.7639 53.8969 64.8821 53.9562 64.8415 54.026C63.8485 54.2132 63.9248 54.293 64.8035 54.0977C64.8995 54.0765 64.7983 54.0466 64.8415 54.026C65.827 53.9052 65.9657 53.9578 65.0768 54.2382C64.6606 54.3712 64.1544 54.4233 64.3673 54.5399C64.4636 54.5925 65.1389 54.4227 65.3367 54.4416C65.7875 54.481 65.1935 54.7964 65.3269 54.9148C65.3752 54.9574 65.7337 54.8191 65.7794 54.8448C65.9013 54.9097 65.644 55.0597 65.8091 55.116C65.8246 55.121 66.206 55.0032 66.2181 55.0303C66.3169 55.2317 66.1204 55.4859 66.1774 55.7182C66.1958 55.7921 66.3155 55.8749 66.395 55.9617C66.4332 55.993 66.4597 56.0239 66.4537 56.0566C66.4236 56.2144 65.941 56.5885 66.1237 56.6663C66.2392 56.7123 66.6016 56.5441 66.8647 56.4695C67.371 56.3163 66.5507 56.7914 66.4278 56.8733C66.4238 56.8764 66.3086 56.8502 66.1383 56.9702C65.7605 57.1695 66.4261 56.8739 66.4278 56.8733C66.3459 56.922 66.3271 57.0915 66.4086 57.0825C66.4527 57.0773 66.7854 56.8982 66.8018 56.8982C67.1823 56.8992 67.3349 56.9695 67.2785 57.205C67.2738 57.2117 66.9189 57.4411 66.9125 57.4543C66.8166 57.6493 67.2829 57.4126 67.5741 57.2902C67.8665 57.1692 67.8151 57.2697 67.2843 57.7672C67.3966 57.7612 67.2139 58.0419 67.11 58.2185C67.0062 58.3952 67.6261 57.8541 67.6412 57.8467C68.1311 57.613 67.8444 57.9948 67.9284 58.1832C67.9657 58.2721 68.186 58.3195 68.3322 58.3338C68.4474 58.3433 68.3569 58.5228 68.5097 58.4975C68.5303 58.4942 68.7721 58.2188 68.7846 58.2112C69.1621 57.9649 68.5112 58.5817 68.4175 58.7132C68.0789 59.1933 67.8999 59.4498 68.1997 59.3585C68.2385 59.3472 68.5584 59.0758 68.855 58.8414C69.0181 58.5859 69.1366 58.3293 69.1093 58.2633C69.0254 58.0729 68.799 58.4812 68.7305 58.2965C68.724 58.2816 68.8858 58.0448 68.7845 57.9965C68.467 57.8482 68.1407 57.814 67.7682 57.7924C67.517 57.7717 67.2542 57.7621 66.901 57.791C66.7527 57.8072 66.8959 57.33 66.6556 57.3545C66.0895 57.412 65.4275 57.7019 65.0392 58.041C64.6385 58.38 64.4643 58.7148 64.4293 58.9565C64.4144 59.0778 64.7196 59.1891 64.787 59.258C65.2151 59.6443 64.4553 59.3223 64.4258 59.3461C63.8933 59.5805 64.681 59.69 64.344 59.484C64.3253 59.4685 63.4536 59.3037 64.2119 59.3573C64.2621 59.3631 65.0397 59.4039 64.514 59.3161C64.481 59.3112 64.0805 59.2968 64.1248 59.2604C64.1692 59.2207 63.9075 59.1388 64.3503 59.0978C64.4897 59.0863 65.2673 59.0685 64.6525 58.971C64.6099 58.9605 63.2162 58.8177 64.1809 58.8059C64.3397 58.8036 65.3601 58.8324 64.8384 58.7318C64.7372 58.7133 64.5092 58.7406 64.3677 58.6946C64.1494 58.6255 64.423 58.5354 63.9677 58.4529C63.8871 58.4375 63.1938 58.387 63.7186 58.3287C63.8007 58.3192 64.1417 58.3284 64.1793 58.3002C64.3596 58.164 64.1272 58.0303 64.3565 57.8802C64.437 57.8264 64.9884 57.8272 65.1332 57.7658C65.2781 57.7045 65.4138 57.5848 65.159 57.5413C64.9042 57.4989 64.0318 57.613 63.9566 57.535C63.6299 57.2005 64.1118 56.7967 64.1467 56.4109C64.152 56.3546 63.8446 56.4336 63.83 56.3539C63.7747 56.0539 63.417 55.5837 64.039 55.2372C64.5369 54.9542 64.9781 55.1488 65.1694 54.9599C65.2496 54.8775 64.4593 54.9288 64.2535 54.9415C64.2264 54.9416 64.2093 54.9409 64.2052 54.939C63.8493 54.7854 64.272 54.5695 64.1048 54.4074C64.0701 54.3739 63.6681 54.4785 63.6431 54.4492C63.5541 54.3504 63.7172 54.2045 63.6665 54.1049C63.6428 54.0606 63.3326 54.1208 63.3494 54.0735C63.3863 53.9613 63.5021 53.8482 63.7773 53.6989C63.8024 53.6853 64.2004 53.6823 64.202 53.6036C64.2036 53.4763 64.4658 53.2744 64.1444 53.1835C64.0478 53.1567 63.3358 53.2764 63.812 53.1028C63.9114 53.0665 64.7701 52.9441 64.0138 52.9659C63.888 52.9689 62.8623 52.9666 63.4891 52.7698C63.6541 52.718 64.3428 52.5378 64.2242 52.507C64.2055 52.5033 63.8282 52.5974 63.7837 52.5625C63.6335 52.4387 63.6472 52.2791 63.5007 52.1512C63.4609 52.1174 63.0766 52.2475 63.0299 52.195C62.9008 52.0506 62.9643 51.83 63.0583 51.6479C63.0937 51.5806 63.4281 51.5605 63.4628 51.5496C64.0285 51.3727 63.2401 51.4776 63.1903 51.4634C62.8912 51.3724 63.2375 51.1958 63.1155 51.0826C63.0829 51.0515 62.7157 51.1479 62.6812 51.1471C62.3429 51.1346 63.0215 51.0626 63.0861 51.0012C63.169 50.9225 63.2026 50.8517 63.2073 50.7838C63.2103 50.6881 63.1724 50.6009 63.1303 50.518C63.1015 50.4627 62.6817 50.6079 62.6608 50.5569C62.5287 50.2546 62.5151 49.9161 62.7081 49.5748C62.7452 49.5106 63.085 49.496 63.1596 49.4726C63.6817 49.3118 62.9354 49.302 62.8619 49.2837C62.5265 49.2039 62.8158 49.113 62.7455 49.0113C62.3957 48.5092 62.5195 47.837 62.5926 47.359C62.6713 46.8263 62.8835 46.4025 62.8574 45.9632C62.863 45.979 62.8621 46.0077 62.8649 46.0842C62.8674 46.1196 62.4193 46.1757 62.4177 46.215C62.4227 46.3219 62.4373 46.4609 62.5692 46.783C62.6418 46.9489 62.7363 47.164 62.9862 47.5101C63.2472 47.8365 63.6588 48.4286 64.8249 48.9078C65.7837 49.2954 66.9049 49.2222 67.5597 49.0003C68.2391 48.7822 68.6143 48.5086 68.8804 48.3016C69.3963 47.8752 69.5515 47.6106 69.6911 47.4094C69.9388 47.0154 69.9922 46.8452 70.0749 46.7116C70.077 46.716 70.0795 46.7204 70.0822 46.7249C70.089 46.7362 70.499 46.8539 70.5246 46.8732C70.5801 46.9131 70.5526 46.9255 70.4157 46.9123C70.3495 46.9069 69.9975 46.8056 69.9374 46.8048C69.7962 46.8053 69.7581 46.8404 69.8197 46.8867C69.847 46.9054 70.2804 46.9577 70.283 46.9728C70.3124 47.0801 70.3761 47.1439 69.8267 47.4669C69.7891 47.4885 68.9052 47.5596 69.0783 47.6016C69.324 47.5893 69.6127 47.57 69.8752 47.5541C70.0097 47.9248 69.9285 48.5882 69.8329 49.601C69.8198 49.6559 69.8376 49.8283 69.8207 49.8822C69.7919 49.9939 69.7675 50.1051 69.7514 50.216C69.7475 50.2429 70.2193 50.2298 70.2143 50.2819C70.186 50.5837 70.2989 50.8684 69.8221 51.1194C69.7755 51.144 68.9501 51.1005 69.0723 51.1862C69.0945 51.202 69.2015 51.3236 69.3805 51.3542C69.4075 51.3584 69.7934 51.3464 69.8041 51.3805C69.8505 51.5446 69.7993 51.7004 69.6358 51.7071L69.6254 51.6025C69.5998 51.6258 69.5702 51.6398 69.537 51.65C69.4994 51.6612 69.0917 51.7111 69.0617 51.7215C68.8509 51.7878 69.1681 51.7866 68.8504 52.0302C68.6373 52.1965 67.9464 52.3631 67.2967 52.629C67.205 52.6666 67.2141 52.7488 66.8278 52.8755C65.8563 53.1942 64.7739 53.4839 63.7396 53.8278C63.517 53.9028 63.8012 53.9625 63.2348 54.0529C63.1968 54.059 62.9854 54.0142 62.7931 54.0432C62.6603 54.0638 62.2754 54.2192 62.1007 54.2304C61.9259 54.2404 62.2445 54.0967 62.0327 54.086C61.8177 54.0723 61.3756 54.2387 61.2785 54.0995ZM66.6724 59.0295C66.434 59.3521 67.4843 58.357 67.1878 58.5476C67.1723 58.558 66.6841 59.0137 66.6724 59.0295ZM64.1573 51.1407C63.5183 51.2379 64.4563 51.3152 64.9495 51.246C65.4423 51.1783 64.351 51.1116 64.1573 51.1407ZM63.7091 50.0604C63.2032 50.171 65.2539 50.2348 64.8422 50.0973C64.819 50.0893 63.7384 50.054 63.7091 50.0604ZM67.0212 52.3882C67.0027 52.3937 66.9985 52.4507 67.0173 52.4473C67.4677 52.3528 67.4781 52.2475 67.0212 52.3882ZM63.2336 48.971C62.9548 49 63.2713 49.1206 63.6178 49.0851C63.8965 49.0571 63.5802 48.9354 63.2336 48.971ZM68.0209 60.1816C68.0424 60.1843 68.0693 60.1421 67.9488 60.1231C67.5611 60.0623 67.6605 60.1379 68.0209 60.1816ZM63.2976 47.1513C63.2023 47.4011 61.5009 47.4827 61.7109 47.182C61.7491 47.1285 62.2425 47.3371 62.3995 47.277C62.6854 47.1703 61.6296 47.0044 62.2114 46.9082C62.3167 46.8993 63.3063 47.1396 63.3 47.1519C63.2992 47.1517 63.2984 47.1515 63.2976 47.1513ZM65.4419 60.2573C65.4292 60.2718 65.4611 60.3313 65.4758 60.3191C65.8296 60.0244 65.7693 59.9085 65.4419 60.2573ZM68.9991 57.4589C69.0397 57.4532 69.0691 57.2965 69.0312 57.2936C68.277 57.2603 68.215 57.5673 68.9991 57.4589ZM62.3421 56.7764C61.8777 56.8309 61.8011 56.7574 62.3461 56.5499C62.3352 56.6275 62.3503 56.6996 62.3421 56.7764Z" fill="var(--stroke-0, #3B60FF)"/>
<path id="Vector 7" d="M107.429 50.5953C107.211 50.3092 107.175 49.4941 107.323 49.0633C107.323 49.0618 107.324 49.0604 107.324 49.0589C107.316 49.0357 107.32 48.9597 107.312 48.9363C107.361 48.7789 107.617 48.8359 107.661 48.7334C107.748 48.5363 107.617 48.3909 107.733 48.2376C107.773 48.1877 108.18 48.2416 108.213 48.1909C108.389 47.9218 108.289 47.7005 108.383 47.4733C108.634 46.8734 108.823 46.3521 108.983 45.8299L108.974 46.0393C109.077 45.8475 109.125 45.4943 109.166 45.0295C109.196 44.692 109.527 44.2076 109.364 43.7854C109.345 43.7352 108.989 43.7664 108.959 43.7568C108.509 43.5989 109.229 43.6524 109.326 43.5553C109.71 43.166 109.779 42.7493 109.708 42.3414C109.678 42.1667 108.951 42.2092 109.374 42.1085C109.402 42.1021 109.766 42.2134 109.814 42.1764C109.922 42.0929 109.897 41.8916 109.945 41.8216C110.039 41.6894 110.042 41.6647 110.084 41.5298C110.114 41.4403 110.185 41.3599 110.252 41.2737C110.342 41.1256 110.434 40.9698 110.491 40.7605C110.517 40.6702 110.111 40.6049 110.134 40.4255C110.142 40.2592 110.522 39.7562 110.945 39.5662C111.335 39.4008 111.358 39.7662 111.451 39.7868C111.795 39.9136 112.325 39.572 113.162 39.7545C113.952 39.9587 114.263 40.1678 114.334 40.2103C114.819 40.7563 114.855 40.9886 114.923 41.2321C114.972 41.4639 114.955 41.6503 114.925 41.8229C114.872 41.9756 114.807 42.1274 114.823 42.2752C114.853 42.5447 115.034 42.8139 115.04 43.0658C115.044 43.366 114.862 43.6375 114.93 43.9157C114.937 43.945 115.386 43.8576 115.396 43.893C115.493 44.2691 115.491 44.6411 115.242 45.0568C115.217 45.0987 114.814 45.1104 114.765 45.1562C114.473 45.4318 113.758 45.9504 115.5 45.7759C115.474 45.8806 115.451 45.9985 115.354 46.1242C115.301 46.2008 115.224 46.2776 115.11 46.3552C114.906 46.494 114.46 46.4827 114.665 46.565C114.711 46.5836 115.08 46.4776 115.12 46.5116C115.29 46.6534 115.202 46.8608 115.427 46.9916C115.474 47.018 115.809 46.9464 115.871 46.9447C116.378 46.9357 115.591 47.2203 115.537 47.2603C115.138 47.5641 115.34 47.6952 115.366 47.9054C115.372 47.9543 115.815 47.8167 115.837 47.8611C115.945 48.0916 115.949 48.3495 115.788 48.6199C115.751 48.6802 115.357 48.6979 115.32 48.7301C115.159 48.8707 115.893 48.7713 115.753 48.904C115.725 48.9318 115.392 48.9751 115.356 48.9853C114.797 49.1449 115.614 49.064 115.635 49.0774C115.913 49.2437 115.091 49.5165 115.244 49.6953C115.263 49.7166 115.673 49.5936 115.701 49.6577C115.824 49.9363 115.851 50.2401 115.782 50.5553C115.746 50.7319 115.683 50.9227 115.588 51.0943C115.547 51.1749 115.223 51.1674 115.185 51.1777C114.588 51.3402 115.409 51.2673 115.443 51.2876C115.69 51.4463 115.026 51.7008 116.014 51.7047C115.772 52.5226 116.394 53.2784 115.554 54.1145C115.544 54.1249 115.139 54.1258 115.121 54.1462C114.904 54.3909 115.531 54.3172 116.306 54.457C116.501 54.494 115.574 54.6432 115.506 54.6539C115.256 54.6983 114.652 54.6705 114.604 54.6845C114.224 54.795 116.217 54.7424 116.22 54.8985C116.216 54.9033 115.849 54.8865 115.813 54.8995C115.699 54.9397 115.845 54.9778 115.718 55.0166C115.426 55.1065 114.457 55.1264 115.02 55.2611C115.093 55.2789 116.224 55.2666 116.168 55.406C116.146 55.4594 116.157 55.711 116.08 55.7771C116.003 55.843 115.641 55.7772 115.625 55.7816C115.135 55.9365 114.939 55.858 114.221 55.8956C113.507 55.9261 115.199 56.0238 115.385 56.0752C115.571 56.1261 115.163 56.2295 115.022 56.2462C114.882 56.2644 114.655 56.2031 114.574 56.2227C114.048 56.3442 115.403 56.3912 115.663 56.4858C116.276 56.7317 115.012 56.6868 114.868 56.7952C114.829 56.8262 115.116 56.8457 115.137 56.8844C115.212 57.0402 114.813 57.0361 115.123 57.2766C115.176 57.3054 115.86 57.6726 115.299 57.6029C115.219 57.5902 114.932 57.4609 114.846 57.497C114.715 57.5561 114.596 57.6734 114.64 57.8201C114.671 57.9294 115.178 58.0737 114.979 58.1069C114.892 58.1173 114.67 57.8949 114.532 57.9164C114.398 57.9377 114.287 58.1171 114.223 58.1929C114.167 58.2647 114.472 58.5129 114.486 58.5361C114.565 58.6799 114.435 59.0187 114.401 59.0323C113.993 59.3198 113.413 59.314 113.076 59.1596C112.632 58.956 112.36 58.6301 112.085 58.3292C112.03 58.2609 111.956 58.2044 111.86 58.17C111.82 58.1551 111.555 58.4732 111.546 58.4741C111.329 58.5072 112.161 57.7819 112.343 57.4489C111.779 58.0685 111.841 57.9191 111.708 57.9192C111.642 57.9193 111.438 58.1728 111.412 58.194C111.022 58.5032 111.423 58.0066 111.504 57.9036C111.8 57.5241 111.373 57.8986 111.571 57.6449C111.769 57.394 112.147 57.1044 112.077 57.0446C111.849 57.2418 111.355 57.8547 111.214 57.8949C110.672 58.0431 110.725 57.2096 110.629 56.9957C110.525 56.7784 110.435 56.7536 110.435 56.5801C110.439 56.267 110.036 56.6956 109.724 56.7233C109.411 56.7467 110.619 55.9734 110.855 55.7753C111.094 55.5802 110.824 55.7475 110.948 55.6298C111.072 55.5132 111.272 55.4328 111.293 55.3527C111.316 55.2764 110.781 55.4612 110.499 55.6183C109.905 55.9542 109.349 56.4133 109.464 56.1265C109.471 56.1101 109.806 55.9352 109.818 55.8831C109.906 55.4815 109.778 55.215 109.884 54.8515C109.899 54.8021 110.29 54.6466 110.303 54.6165C110.451 54.3061 109.85 54.6842 109.08 54.8866C110.042 54.4826 110.594 54.1568 110.542 54.0173C110.51 53.9302 110.095 54.1177 109.772 54.177C109.675 54.194 109.94 54.0132 109.735 54.0783C109.066 54.2877 108.358 54.6356 108.581 54.3393C108.592 54.3263 108.961 54.2199 108.973 54.1848C109.054 53.9588 108.355 54.1794 108.203 53.9971C108.151 53.9355 108.19 53.8174 108.252 53.6895C108.333 53.5429 108.45 53.385 108.464 53.2832C109.595 52.9718 109.295 52.8967 108.497 53.0453C108.501 52.9326 108.426 52.8283 108.508 52.6975C108.535 52.6524 108.87 52.5905 108.905 52.5768C109.445 52.3654 108.671 52.518 108.635 52.5013C108.281 52.3244 108.813 51.9857 108.191 51.8747C108.168 51.871 107.369 52.0331 107.936 51.8386C107.975 51.8259 108.354 51.8252 108.358 51.7062C108.36 51.5841 108.745 51.288 108.344 51.2023C108.248 51.182 107.578 51.2023 108.073 51.0294C108.14 51.0065 108.372 50.9769 108.497 50.9392C108.897 50.8199 108.081 50.9343 108.761 50.7596C109.441 50.5851 109.942 50.401 109.442 50.3239C109.428 50.3218 108.776 50.379 108.78 50.3275C108.786 50.247 108.906 50.1181 108.892 50.0376C108.886 49.9991 108.486 50.0709 108.478 50.065C108.221 49.818 108.563 49.5844 108.702 49.2933C108.729 49.2415 108.169 49.1133 108.602 48.9933C109.064 48.8694 110.964 48.9067 110.621 48.7141C110.612 48.7087 110.601 48.7031 110.588 48.6974C110.397 48.6141 107.87 48.5146 109.177 48.3188C108.85 47.9645 109.522 47.6427 109.064 47.2826C109.043 47.2666 108.34 47.2057 108.35 47.1676C108.366 47.1113 108.696 47.0858 108.718 47.0463C108.82 46.8803 108.542 46.7212 108.589 46.5599C108.607 46.4988 108.947 46.5283 108.968 46.4556C108.988 46.3831 108.541 46.3231 108.76 46.2293C108.927 46.1586 109.846 46.1099 109.955 46.0151C109.051 45.9847 109.072 45.9176 108.837 45.7887C108.792 45.764 108.476 45.779 108.439 45.7668C108.278 45.7167 108.54 45.6835 108.365 45.6347C108.323 45.6228 108.014 45.6122 107.962 45.6019C107.51 45.514 108.209 45.4174 108.33 45.4015C108.792 45.3397 108.392 45.2886 108.575 45.2348C108.758 45.1817 108.981 45.2794 109.093 45.2139C109.325 45.078 109.283 44.8914 109.303 44.7454C109.31 44.6872 108.896 44.709 108.887 44.7003C108.788 44.5749 109.232 44.4736 108.415 44.3655C110.54 44.3859 108.213 44.2814 108.646 44.1287C108.681 44.1164 109.685 44.1525 109.829 44.2128C109.974 44.2695 109.656 44.3359 109.882 44.4162C109.935 44.4354 110.87 44.5786 110.927 44.5927C111.367 44.714 109.868 44.663 109.785 44.6648C108.894 44.6861 109.901 44.8533 109.97 44.8854C110.284 45.0422 110.069 45.1561 110.293 45.2835C110.438 45.3674 111.42 45.4115 111.388 45.4704C111.281 45.6685 109.909 45.6961 111.091 45.9248C111.343 45.9737 112.418 45.9656 111.569 46.0859C111.516 46.0932 110.74 46.1807 111.227 46.2569C111.289 46.2665 111.602 46.2747 111.628 46.2858C111.796 46.3597 111.545 46.3995 111.663 46.478C111.78 46.5566 111.956 46.651 111.848 46.7345C111.783 46.7846 111.199 46.8392 111.056 46.8614C110.643 46.9239 111.316 47.0123 110.817 47.0469C110.316 47.0827 109.557 46.9819 109.232 47.0942C110.045 47.112 110.879 47.1355 111.697 47.1556C111.664 47.4047 111.399 47.6474 111.434 47.8951C111.439 47.9261 111.876 47.8959 111.893 47.9288C111.962 48.0658 111.651 48.1843 111.776 48.3239C111.875 48.43 112.339 48.54 112.458 48.6407C112.324 48.6525 112.215 48.6658 112.128 48.6802C111.613 48.764 111.837 48.881 111.768 48.9721C111.741 49.0099 111.492 49.0195 111.413 49.0503C111.119 49.1674 111.937 49.0745 112.068 49.0932C112.626 49.1655 110.769 49.2998 110.827 49.4462C110.829 49.4562 111.826 49.4568 111.888 49.4605C112.296 49.4948 111.546 49.5059 111.477 49.5611C111.353 49.662 111.125 49.7549 111.427 49.8247C111.516 49.846 112.138 49.8325 111.673 49.9569C111.612 49.9735 111.286 50.0155 111.268 50.0247C110.969 50.189 111.989 50.0396 112.343 50.0451C112.697 50.0497 112.012 50.2632 111.814 50.3208C111.301 50.4672 111.583 50.3182 111.531 50.324C110.915 50.3927 111.033 50.4521 110.992 50.5219C109.999 50.7091 110.076 50.7889 110.954 50.5936C111.05 50.5724 110.949 50.5424 110.992 50.5219C111.978 50.401 112.117 50.4537 111.228 50.7341C110.811 50.8671 110.305 50.9191 110.518 51.0357C110.615 51.0884 111.29 50.9186 111.488 50.9374C111.938 50.9769 111.344 51.2923 111.478 51.4106C111.526 51.4533 111.885 51.3149 111.93 51.3406C112.052 51.4055 111.795 51.5556 111.96 51.6119C111.975 51.6168 112.357 51.499 112.369 51.5261C112.468 51.7276 112.271 51.9817 112.328 52.214C112.347 52.2879 112.466 52.3708 112.546 52.4576C112.584 52.4889 112.611 52.5197 112.605 52.5525C112.575 52.7102 112.092 53.0844 112.275 53.1622C112.39 53.2082 112.752 53.0399 113.016 52.9654C113.522 52.8121 112.702 53.2872 112.579 53.3692C112.575 53.3723 112.459 53.3461 112.289 53.4661C111.911 53.6654 112.577 53.3698 112.579 53.3692C112.497 53.4178 112.478 53.5874 112.559 53.5783C112.604 53.5732 112.936 53.3941 112.953 53.3941C113.333 53.3951 113.486 53.4654 113.429 53.7008C113.425 53.7075 113.07 53.9369 113.063 53.9502C112.968 54.1452 113.434 53.9085 113.725 53.786C114.017 53.6651 113.966 53.7655 113.435 54.263C113.548 54.257 113.365 54.5378 113.261 54.7144C113.157 54.8911 113.777 54.35 113.792 54.3425C114.282 54.1088 113.995 54.4907 114.079 54.679C114.117 54.768 114.337 54.8153 114.483 54.8297C114.598 54.8391 114.508 55.0187 114.661 54.9933C114.681 54.99 114.923 54.7147 114.935 54.7071C115.313 54.4608 114.662 55.0776 114.568 55.2091C114.23 55.6892 114.051 55.9457 114.351 55.8543C114.389 55.8431 114.709 55.5717 115.006 55.3372C115.169 55.0818 115.287 54.8251 115.26 54.7591C115.176 54.5688 114.95 54.977 114.881 54.7924C114.875 54.7774 115.037 54.5406 114.935 54.4924C114.618 54.3441 114.292 54.3098 113.919 54.2882C113.668 54.2675 113.405 54.258 113.052 54.2868C112.904 54.3031 113.047 53.8258 112.806 53.8504C112.24 53.9079 111.578 54.1978 111.19 54.5369C110.789 54.8758 110.615 55.2107 110.58 55.4523C110.565 55.5737 110.87 55.685 110.938 55.7539C111.366 56.1401 110.606 55.8182 110.577 55.842C110.044 56.0763 110.832 56.1859 110.495 55.9799C110.476 55.9643 109.604 55.7995 110.363 55.8532C110.413 55.8589 111.191 55.8997 110.665 55.8119C110.632 55.8071 110.231 55.7927 110.276 55.7563C110.32 55.7166 110.058 55.6347 110.501 55.5936C110.641 55.5821 111.418 55.5644 110.803 55.4669C110.761 55.4563 109.367 55.3136 110.332 55.3017C110.491 55.2994 111.511 55.3282 110.989 55.2277C110.888 55.2091 110.66 55.2364 110.519 55.1905C110.3 55.1213 110.574 55.0313 110.119 54.9487C110.038 54.9333 109.345 54.8829 109.869 54.8245C109.952 54.815 110.293 54.8243 110.33 54.7961C110.51 54.6599 110.278 54.5262 110.507 54.3761C110.588 54.3223 111.139 54.323 111.284 54.2617C111.429 54.2004 111.565 54.0806 111.31 54.0372C111.055 53.9948 110.183 54.1088 110.107 54.0308C109.781 53.6964 110.263 53.2925 110.298 52.9067C110.303 52.8504 109.996 52.9295 109.981 52.8498C109.926 52.5497 109.568 52.0796 110.19 51.7331C110.688 51.45 111.129 51.6446 111.32 51.4558C111.4 51.3734 110.61 51.4246 110.404 51.4374C110.377 51.4374 110.36 51.4367 110.356 51.4349C110 51.2812 110.423 51.0653 110.256 50.9032C110.221 50.8697 109.819 50.9743 109.794 50.9451C109.705 50.8463 109.868 50.7004 109.817 50.6008C109.794 50.5565 109.483 50.6166 109.5 50.5694C109.537 50.4572 109.653 50.3441 109.928 50.1948C109.953 50.1812 110.351 50.1782 110.353 50.0995C110.354 49.9722 110.617 49.7702 110.295 49.6793C110.199 49.6525 109.487 49.7722 109.963 49.5986C110.062 49.5623 110.921 49.4399 110.165 49.4618C110.039 49.4648 109.013 49.4624 109.64 49.2657C109.805 49.2139 110.494 49.0337 110.375 49.0028C110.356 48.9991 109.979 49.0932 109.935 49.0584C109.784 48.9345 109.798 48.7749 109.652 48.6471C109.612 48.6133 109.227 48.7434 109.181 48.6909C109.052 48.5464 109.115 48.3258 109.209 48.1437C109.245 48.0765 109.579 48.0563 109.614 48.0455C110.179 47.8686 109.391 47.9735 109.341 47.9593C109.042 47.8682 109.388 47.6917 109.266 47.5785C109.234 47.5474 108.867 47.6438 108.832 47.6429C108.494 47.6305 109.172 47.5585 109.237 47.497C109.32 47.4183 109.353 47.3475 109.358 47.2797C109.361 47.1839 109.323 47.0967 109.281 47.0139C109.252 46.9586 108.833 47.1037 108.812 47.0527C108.68 46.7505 108.666 46.4119 108.859 46.0707C108.896 46.0064 109.236 45.9919 109.31 45.9684C109.833 45.8076 109.086 45.7978 109.013 45.7796C108.677 45.6998 108.967 45.6089 108.896 45.5072C108.547 45.005 108.67 44.3328 108.743 43.8548C108.822 43.3222 109.034 42.8983 109.008 42.4591C109.014 42.4749 109.013 42.5035 109.016 42.5801C109.018 42.6155 108.57 42.6715 108.569 42.7108C108.574 42.8177 108.588 42.9568 108.72 43.2789C108.793 43.4447 108.887 43.6599 109.137 44.0059C109.398 44.3324 109.81 44.9244 110.976 45.4036C111.935 45.7912 113.056 45.7181 113.711 45.4961C114.39 45.2781 114.765 45.0044 115.031 44.7975C115.547 44.371 115.702 44.1064 115.842 43.9053C116.09 43.5113 116.143 43.3411 116.226 43.2074C116.228 43.2118 116.23 43.2163 116.233 43.2208C116.24 43.232 116.65 43.3497 116.675 43.3691C116.731 43.4089 116.704 43.4213 116.567 43.4081C116.5 43.4028 116.148 43.3014 116.088 43.3006C115.947 43.3011 115.909 43.3362 115.971 43.3825C115.998 43.4013 116.431 43.4535 116.434 43.4686C116.463 43.576 116.527 43.6397 115.978 43.9628C115.94 43.9843 115.056 44.0554 115.229 44.0975C115.475 44.0852 115.764 44.0658 116.026 44.05C116.161 44.4207 116.079 45.0841 115.984 46.0969C115.971 46.1518 115.988 46.3242 115.972 46.378C115.943 46.4897 115.918 46.601 115.902 46.7118C115.898 46.7388 116.37 46.7257 116.365 46.7778C116.337 47.0796 116.45 47.3643 115.973 47.6153C115.926 47.6399 115.101 47.5964 115.223 47.682C115.245 47.6979 115.352 47.8195 115.531 47.85C115.558 47.8542 115.944 47.8423 115.955 47.8764C116.001 48.0405 115.95 48.1963 115.787 48.2029L115.776 48.0983C115.751 48.1216 115.721 48.1357 115.688 48.1459C115.65 48.1571 115.243 48.2069 115.213 48.2173C115.002 48.2836 115.319 48.2824 115.001 48.5261C114.788 48.6923 114.097 48.8589 113.448 49.1249C113.356 49.1624 113.365 49.2447 112.979 49.3714C112.007 49.6901 110.925 49.9797 109.89 50.3237C109.668 50.3986 109.952 50.4583 109.386 50.5488C109.348 50.5549 109.136 50.5101 108.944 50.5391C108.811 50.5596 108.426 50.7151 108.252 50.7262C108.077 50.7363 108.395 50.5926 108.184 50.5818C107.969 50.5681 107.527 50.7345 107.429 50.5953ZM112.823 55.5254C112.585 55.8479 113.635 54.8529 113.339 55.0434C113.323 55.0538 112.835 55.5096 112.823 55.5254ZM110.308 47.6366C109.669 47.7338 110.607 47.8111 111.1 47.7418C111.593 47.6742 110.502 47.6075 110.308 47.6366ZM109.86 46.5562C109.354 46.6668 111.405 46.7307 110.993 46.5932C110.97 46.5852 109.889 46.5498 109.86 46.5562ZM113.172 48.8841C113.154 48.8895 113.149 48.9465 113.168 48.9431C113.619 48.8487 113.629 48.7433 113.172 48.8841ZM109.384 45.4668C109.106 45.4959 109.422 45.6165 109.769 45.5809C110.047 45.553 109.731 45.4312 109.384 45.4668ZM114.172 56.6775C114.193 56.6801 114.22 56.6379 114.1 56.619C113.712 56.5581 113.811 56.6338 114.172 56.6775ZM109.449 43.6471C109.353 43.8969 107.652 43.9785 107.862 43.6778C107.9 43.6244 108.393 43.8329 108.55 43.7728C108.836 43.6661 107.781 43.5003 108.362 43.4041C108.468 43.3952 109.457 43.6355 109.451 43.6477C109.45 43.6475 109.449 43.6473 109.449 43.6471ZM111.593 56.7532C111.58 56.7676 111.612 56.8271 111.627 56.815C111.981 56.5203 111.92 56.4044 111.593 56.7532ZM115.15 53.9547C115.191 53.949 115.22 53.7924 115.182 53.7895C114.428 53.7561 114.366 54.0632 115.15 53.9547ZM108.493 53.2722C108.029 53.3268 107.952 53.2532 108.497 53.0457C108.486 53.1234 108.501 53.1954 108.493 53.2722Z" fill="var(--stroke-0, #3B60FF)"/>
<path id="Vector 8" d="M98.8221 58.7467C98.8305 58.9303 98.6195 59.1909 98.3407 59.4051C98.2573 59.4664 98.1509 59.3369 98.0895 59.3701C97.9762 59.4294 97.9776 59.5394 97.9121 59.5293C97.9125 59.5243 97.9087 59.5242 97.9047 59.5239C97.8749 59.5211 97.6853 59.3512 97.6588 59.3515C97.5159 59.3535 97.5158 59.4582 97.4184 59.4932C97.1803 59.5777 96.9783 59.6753 96.7895 59.779C96.7881 59.7827 96.7779 59.7898 96.7765 59.7934C96.529 59.9565 96.3123 60.0803 96.102 60.1825C95.9628 60.2507 95.69 60.1733 95.6457 60.3347C95.6405 60.3538 95.784 60.5245 95.7928 60.5409C95.9263 60.7929 95.6647 60.4266 95.6045 60.3975C95.3659 60.2828 95.2535 60.341 95.2193 60.4736C95.2053 60.5303 95.5053 60.8588 95.3209 60.6863C95.3084 60.6747 95.1765 60.4779 95.1516 60.465C95.0954 60.436 95.0787 60.501 95.0507 60.4985C94.9959 60.4927 94.992 60.4986 94.96 60.519C94.9545 60.5222 94.9479 60.5242 94.9406 60.5253C94.892 60.5298 94.8013 60.4922 94.7929 60.558C94.7913 60.5745 94.9508 60.7578 94.9618 60.8014C94.9729 60.8449 94.9221 60.8581 94.8738 60.8232C94.8255 60.7883 94.7144 60.6332 94.6852 60.6005C94.4399 60.324 94.706 60.7641 94.7075 60.7789C94.7273 61.036 94.4443 60.8872 94.3219 60.9779C94.2289 61.0476 94.1741 61.2034 94.0593 61.2617C93.9214 61.3306 93.7402 61.2851 93.6086 61.3779C93.5941 61.3876 93.7418 61.6325 93.7232 61.6454C93.6989 61.6622 93.6735 61.6781 93.6473 61.6928C93.6181 61.7218 93.5245 61.7229 93.3331 61.6416C93.3111 61.6321 93.1967 61.4086 93.1667 61.3864C92.9842 61.2566 92.6042 60.9094 93.1028 61.8805C93.0182 61.881 92.9132 61.8901 92.7481 61.7296C92.6421 61.6262 92.5496 61.3662 92.5594 61.493C92.5612 61.5214 92.6872 61.725 92.6807 61.752C92.6525 61.866 92.5402 61.8356 92.5211 61.9811C92.5171 62.0113 92.6122 62.2031 92.6242 62.2401C92.7179 62.541 92.4391 62.1006 92.413 62.071C92.2019 61.8584 92.1768 61.9872 92.081 62.0162C92.0587 62.0227 92.1856 62.2822 92.1668 62.2985C92.0683 62.3792 91.9386 62.3962 91.7931 62.3064C91.7606 62.2857 91.7131 62.0444 91.6943 62.0224C91.6143 61.9275 91.7312 62.3752 91.6546 62.2926C91.6389 62.2757 91.5896 62.0718 91.5817 62.0501C91.5623 61.9961 91.5488 61.9631 91.5397 61.946C91.4957 61.8539 91.5759 62.2096 91.5735 62.2201C91.5399 62.3892 91.3516 61.8864 91.2972 61.9792C91.2907 61.9909 91.3794 62.2418 91.3567 62.259C91.2061 62.375 90.9909 62.354 90.7647 62.1852C90.7296 62.1594 90.7083 61.9601 90.7013 61.9365C90.5945 61.5668 90.6826 62.0738 90.6768 62.0947C90.6299 62.2467 90.4861 61.835 90.5448 62.4468C90.1971 62.2942 89.9042 62.6732 89.5598 62.1444C89.5556 62.1383 89.547 61.885 89.5388 61.8739C89.441 61.7371 89.4828 62.129 89.441 62.613C89.4296 62.7346 89.3565 62.1557 89.3522 62.1132C89.3318 61.9569 89.3327 61.5797 89.3268 61.5495C89.2805 61.3122 89.3298 62.5576 89.2703 62.5597C89.2685 62.5577 89.2697 62.3282 89.2642 62.3055C89.2474 62.2344 89.2349 62.3259 89.2184 62.2473C89.1802 62.0654 89.1603 61.4601 89.1182 61.8132C89.1126 61.859 89.1325 62.5658 89.0799 62.533C89.0582 62.5194 88.969 62.5318 88.9438 62.4858C88.9188 62.4399 88.9371 62.2122 88.9353 62.2023C88.871 61.9007 88.897 61.776 88.87 61.3297C88.8454 60.8851 88.8404 61.9448 88.8255 62.0629C88.8105 62.1806 88.7671 61.9313 88.7576 61.8447C88.748 61.758 88.7652 61.6136 88.7562 61.5645C88.6974 61.2435 88.7142 62.0896 88.6869 62.2572C88.6205 62.6538 88.6028 61.867 88.5587 61.7882C88.5464 61.767 88.5502 61.9462 88.5378 61.9625C88.4874 62.0245 88.4724 61.7784 88.4094 62.0004C88.3996 62.0366 88.3312 62.5063 88.3214 62.1585C88.3202 62.1083 88.3421 61.9134 88.3247 61.8685C88.2979 61.8011 88.2508 61.7554 88.2152 61.8187C88.189 61.8655 88.1948 62.1893 88.1718 62.0873C88.1616 62.0418 88.1982 61.855 88.1784 61.7852C88.1589 61.7155 88.0961 61.7193 88.0734 61.7241C88.05 61.7291 88.0442 61.9741 88.0411 61.9904C88.0228 62.0838 87.968 62.1979 87.9639 62.1973C87.7539 62.2105 87.6122 61.7819 87.4031 61.8957C87.3869 61.9043 87.3678 62.1619 87.365 62.1659C87.3006 62.2674 87.4196 61.5902 87.4106 61.3579C87.3554 61.8789 87.3452 61.7822 87.3018 61.8349C87.2808 61.8607 87.2664 62.0633 87.2623 62.0837C87.1989 62.3864 87.2277 61.989 87.2329 61.9077C87.2519 61.6083 87.189 61.9571 87.2024 61.757C87.2155 61.5585 87.2778 61.2695 87.2439 61.2691C87.211 61.4539 87.1757 61.9433 87.1395 62.0188C87.001 62.3044 86.8604 61.8974 86.7872 61.8464C86.7119 61.7953 86.6806 61.8256 86.6448 61.7518C86.5797 61.6182 86.5562 61.9822 86.478 62.1387C86.3991 62.2949 86.5617 61.4148 86.5835 61.2236C86.6056 61.0326 86.5673 61.2269 86.5745 61.121C86.5817 61.0152 86.6213 60.8891 86.6062 60.8466C86.6011 60.8322 86.5849 60.8608 86.5641 60.9125C86.5245 61.0129 86.4673 61.2001 86.4413 61.3302C86.3578 61.7482 86.3137 62.1939 86.2805 62.0294C86.2787 62.0197 86.3272 61.7893 86.3183 61.7638C86.2473 61.5687 86.1457 61.5399 86.0755 61.3645C86.066 61.34 86.1247 61.0847 86.1198 61.0676C86.0696 60.8883 86.0193 61.3275 85.8827 61.8006C86.0134 61.1615 86.0625 60.7648 86.0042 60.7496C85.9688 60.7401 85.9204 61.0209 85.8575 61.2132C85.8385 61.2711 85.8507 61.0741 85.8196 61.2045C85.7173 61.6306 85.646 62.1163 85.6177 61.9114C85.6167 61.9017 85.6741 61.6688 85.667 61.6525C85.6222 61.5462 85.5205 61.9929 85.4365 62.0315C85.3702 62.0618 85.3316 61.7668 85.2797 61.7078C85.4485 60.9942 85.3556 61.1447 85.2117 61.63C85.176 61.6 85.1251 61.6168 85.1032 61.5391C85.0957 61.5126 85.1572 61.3091 85.1612 61.2865C85.2257 60.9315 85.0858 61.4034 85.0719 61.4197C84.9289 61.576 84.9534 61.196 84.7635 61.5203C84.7569 61.5321 84.6087 62.0195 84.6884 61.6553C84.6942 61.6303 84.7889 61.4166 84.7519 61.387C84.7139 61.3571 84.7174 61.0728 84.589 61.2796C84.5585 61.3295 84.3944 61.7111 84.4654 61.3944C84.4752 61.3514 84.5249 61.214 84.5449 61.135C84.6089 60.8834 84.437 61.3688 84.5553 60.9471C84.6734 60.5254 84.7435 60.2034 84.5917 60.4699C84.5872 60.4777 84.4386 60.858 84.4231 60.8456C84.3987 60.8256 84.3887 60.7315 84.3593 60.7234C84.3452 60.7196 84.2654 60.9603 84.2614 60.9637C84.1157 61.0608 84.1279 60.823 84.0682 60.6921C84.0583 60.668 83.8696 60.9634 83.9426 60.6973C84.0247 60.4067 84.5598 59.2834 84.3681 59.5223C84.2951 59.6195 83.5847 61.0301 83.8719 60.2611C83.81 60.3 83.7733 60.2865 83.7465 60.2551C83.6858 60.1836 83.68 60.0212 83.5041 60.1539C83.493 60.1624 83.2637 60.5389 83.2537 60.5266C83.2395 60.5075 83.3298 60.3222 83.3235 60.3031C83.2994 60.2185 83.1626 60.3432 83.1235 60.2891C83.1086 60.269 83.2219 60.0886 83.2044 60.0648C83.187 60.0412 83.0302 60.2742 83.0665 60.1386C83.0943 60.0354 83.3602 59.5272 83.363 59.4514C83.0753 59.9378 83.0595 59.915 82.9448 60.0205C82.9226 60.041 82.8306 60.2151 82.815 60.2336C82.7489 60.3123 82.8186 60.1641 82.7486 60.251C82.7318 60.2718 82.6334 60.4378 82.6141 60.4642C82.446 60.695 82.629 60.2988 82.6611 60.23C82.7826 59.9683 82.6426 60.1771 82.6812 60.0686C82.7197 59.96 82.8203 59.8554 82.8329 59.7832C82.8588 59.6336 82.7829 59.6248 82.7398 59.5892C82.7219 59.576 82.6044 59.8058 82.5988 59.809C82.5273 59.8428 82.6247 59.5824 82.346 60.014C82.9835 58.8499 82.2581 60.1117 82.336 59.8504C82.3425 59.8293 82.6461 59.2802 82.7098 59.2104C82.7739 59.141 82.7027 59.3263 82.7991 59.2162C82.8213 59.1901 83.1507 58.7015 83.1734 58.6735C83.35 58.4543 82.8816 59.2666 82.8573 59.312C82.5965 59.8034 82.9567 59.2804 82.9894 59.2489C83.1391 59.1043 83.1118 59.2414 83.224 59.1415C83.2966 59.077 83.6124 58.5502 83.6228 58.5782C83.6569 58.6706 83.2438 59.4218 83.6827 58.8182C83.7761 58.6893 84.104 58.1034 83.8822 58.5853C83.868 58.6156 83.6581 59.0523 83.832 58.8002C83.8539 58.7684 83.9526 58.5994 83.9641 58.5871C84.0391 58.5078 83.9748 58.6508 84.0354 58.5996C84.096 58.5485 84.1787 58.4677 84.1711 58.5398C84.1666 58.583 84.0057 58.9109 83.9693 58.9928C83.8639 59.2286 84.0936 58.8743 83.954 59.1529C83.8146 59.4334 83.5544 59.8323 83.4931 60.0296C83.7424 59.5867 83.9997 59.1329 84.2506 58.6875C84.3126 58.7425 84.3025 58.9239 84.3746 58.9356C84.3837 58.9365 84.5003 58.6892 84.5126 58.6836C84.522 58.6793 84.5274 58.6822 84.5303 58.6895C84.5469 58.7229 84.5218 58.8411 84.5792 58.7986C84.6345 58.7573 84.7867 58.5089 84.8439 58.4548C84.6218 58.9927 84.7498 58.8335 84.7613 58.8961C84.7658 58.918 84.7043 59.0606 84.6933 59.111C84.6539 59.2978 84.8367 58.8171 84.8763 58.746C85.0429 58.4413 84.6057 59.5194 84.6678 59.5132C84.6716 59.5136 84.9288 58.9483 84.9459 58.9135C85.0618 58.6884 84.8721 59.1164 84.8722 59.1655C84.8722 59.2552 84.8433 59.4026 84.9425 59.2455C84.9722 59.1991 85.127 58.844 85.0466 59.1328C85.0362 59.1706 84.9663 59.3633 84.9645 59.3754C84.9393 59.5787 85.1526 58.9709 85.244 58.7716C85.3347 58.5722 85.2255 59.0045 85.1933 59.1287C85.1083 59.4498 85.1342 59.2584 85.123 59.289C84.9881 59.6521 85.0362 59.5979 85.0471 59.6358C84.8536 60.237 84.8978 60.2114 85.0593 59.6728C85.077 59.614 85.0424 59.6647 85.0471 59.6358C85.2588 59.0532 85.3079 58.9857 85.1699 59.5492C85.1057 59.8134 84.9955 60.1106 85.0837 60.0166C85.1234 59.9741 85.2402 59.5551 85.2943 59.4476C85.4164 59.2019 85.3622 59.6084 85.4294 59.5607C85.4531 59.5432 85.4996 59.3091 85.5177 59.2891C85.5654 59.2353 85.5466 59.4151 85.6017 59.3351C85.6067 59.3275 85.6633 59.0848 85.6737 59.0842C85.7525 59.075 85.7778 59.2457 85.856 59.2687C85.8938 59.2798 85.9923 59.1612 86.0258 59.1968C86.0836 59.2571 86.0984 59.6302 86.1785 59.5563C86.2299 59.509 86.2689 59.2627 86.3182 59.0993C86.4123 58.7824 86.3594 59.3723 86.3517 59.4637C86.3514 59.4667 86.3055 59.5179 86.3007 59.6471C86.2627 59.9112 86.3511 59.4648 86.3517 59.4637C86.3459 59.5226 86.4064 59.5912 86.429 59.5468C86.4412 59.5226 86.4785 59.2894 86.484 59.2811C86.6141 59.0897 86.7149 59.0459 86.7934 59.1702C86.7943 59.1752 86.7501 59.4356 86.7529 59.444C86.7629 59.4771 86.7765 59.4795 86.7923 59.4617C86.8379 59.4125 86.9 59.2076 86.9559 59.0734C87.0319 58.8911 87.0578 58.9599 87.0191 59.4125C87.0617 59.3611 87.0864 59.5672 87.0989 59.6918C87.1119 59.8165 87.1876 59.308 87.1916 59.2983C87.3157 58.9872 87.3207 59.2848 87.3987 59.3412C87.4356 59.3689 87.5203 59.3044 87.5706 59.2538C87.6095 59.2129 87.6155 59.3349 87.6548 59.2619C87.6601 59.2522 87.6823 59.0243 87.6846 59.0157C87.7491 58.7475 87.6692 59.3015 87.6648 59.4016C87.649 59.7656 87.6433 59.9598 87.708 59.7949C87.7231 59.7572 87.839 58.9593 87.8612 58.9142C87.8905 58.8572 87.8518 59.1435 87.8833 59.0765C87.8859 59.071 87.9038 58.8937 87.9176 58.903C87.981 58.9438 88.0498 59.0545 88.1205 59.0426C88.1302 59.0417 88.1423 58.7591 88.1565 58.7531C88.2255 58.7254 88.2912 58.741 88.3447 58.8772C88.3578 58.9117 88.3346 59.1084 88.334 59.1673C88.3313 59.5234 88.3952 59.01 88.4001 59.0004C88.5258 58.7596 88.5884 59.2307 88.7109 59.0122C88.7185 58.9994 88.7773 58.4472 88.786 58.9224C88.7863 58.954 88.7967 59.4403 88.8219 59.1085C88.8234 59.0878 88.816 58.8375 88.8371 58.8634C88.8588 58.8892 88.8931 58.7227 88.9211 58.9977C88.9293 59.0844 88.9515 59.5692 88.9805 59.1828C88.984 59.1559 89.02 58.2822 89.039 58.8848C89.042 58.984 89.0456 59.6218 89.0765 59.2944C89.082 59.2309 89.0688 59.0888 89.0839 58.9998C89.1063 58.8625 89.1427 59.0327 89.1649 58.7478C89.1692 58.6974 89.1758 58.2641 89.203 58.5919C89.2074 58.6433 89.2098 58.8562 89.2197 58.8797C89.2682 58.9924 89.3067 58.848 89.3582 58.9925C89.377 59.0432 89.3897 59.3873 89.4131 59.4783C89.4365 59.5692 89.4787 59.6552 89.4852 59.4969C89.4912 59.3386 89.4304 58.7931 89.4508 58.7474C89.5343 58.5494 89.6604 58.859 89.7697 58.8904C89.7856 58.8952 89.7444 58.7029 89.7645 58.696C89.8413 58.6697 89.9272 58.4659 90.0917 58.8562C90.2264 59.1684 90.2027 59.4345 90.2831 59.5557C90.324 59.6129 90.2049 58.9856 90.2052 58.9649C90.2129 58.7534 90.3206 59.0177 90.355 58.9193C90.362 58.899 90.2861 58.6515 90.2927 58.637C90.3144 58.5851 90.3792 58.6873 90.4086 58.6576C90.4216 58.6438 90.3677 58.4538 90.386 58.4647C90.4291 58.4885 90.4832 58.5599 90.5681 58.7286C90.5759 58.744 90.6173 58.9872 90.6478 58.9884C90.6761 58.9891 90.723 59.0418 90.7597 59.0499C90.775 59.0593 90.784 59.0436 90.7725 58.9629C90.7648 58.9061 90.6375 58.4732 90.7399 58.7678C90.7612 58.8294 90.9154 59.3489 90.7966 58.8956C90.78 58.8193 90.6064 58.2119 90.7454 58.5945C90.7822 58.6952 90.9362 59.1112 90.9226 59.042C90.92 59.0312 90.8352 58.8041 90.8335 58.7796C90.828 58.6976 90.8582 58.7137 90.8495 58.6353C90.8465 58.6141 90.7452 58.3846 90.7427 58.3608C90.735 58.2954 90.7788 58.346 90.8313 58.408C90.8508 58.4313 90.9354 58.6211 90.9455 58.6414C91.1145 58.9682 90.9053 58.518 90.8947 58.4909C90.8354 58.3269 90.955 58.5276 90.9472 58.4618C90.945 58.4444 90.8293 58.2379 90.8204 58.2187C90.7326 58.0318 90.9266 58.4101 90.9563 58.4473C91.0407 58.5525 91.0602 58.5197 91.0729 58.4773C91.0775 58.4614 90.9279 58.2309 90.9333 58.2195C90.9615 58.1484 91.047 58.1268 91.2237 58.1964C91.2572 58.21 91.3552 58.3978 91.384 58.4367C91.5846 58.71 91.3894 58.29 91.3781 58.2456C91.3239 58.0447 91.44 58.1932 91.4714 58.1349C91.5345 58.0181 91.6554 57.926 91.8197 57.852C91.8053 57.8655 91.8467 57.9158 91.8962 57.9385C92.0037 57.9875 92.22 58.0803 92.3314 57.9284C92.3388 57.9188 92.1579 57.7032 92.162 57.6922C92.2231 57.5597 92.4118 57.5507 92.5119 57.3734C92.5205 57.3592 92.3421 57.1599 92.351 57.1296C92.3557 57.1126 92.3636 57.098 92.3747 57.0864C92.3986 57.0592 92.4434 57.0563 92.5056 57.088C92.5465 57.1087 92.6608 57.3086 92.6992 57.3258C92.7887 57.3661 92.8399 57.3517 92.8515 57.2899C92.856 57.2631 92.6698 57.0619 92.6883 57.0443C92.8111 56.9193 92.8957 56.797 93.2155 56.9937C93.2373 57.0073 93.5895 57.435 93.5387 57.3396C93.4434 57.2189 93.3299 57.078 93.2273 56.9497C93.3002 56.7905 93.4752 56.8218 93.5382 56.8314L93.5211 56.8504C93.5407 56.8384 93.5593 56.8254 93.5764 56.811C93.5828 56.8055 93.3531 56.6222 93.3641 56.6109C93.4279 56.5448 93.419 56.4296 93.7023 56.5437C93.7302 56.5547 94.1281 56.884 94.0854 56.8125C94.0775 56.7996 94.0504 56.7232 93.969 56.6454C93.9566 56.6338 93.7631 56.4899 93.7655 56.4755C93.773 56.4405 93.7937 56.416 93.8279 56.4017C93.8926 56.3566 93.8611 56.4878 93.9064 56.5785C93.919 56.6047 94.1483 56.7212 94.1603 56.7392C94.2502 56.8564 94.0816 56.7652 94.3079 56.8262C94.4625 56.8628 94.8705 57.0373 95.2844 57.1786C95.3428 57.1984 95.3619 57.1763 95.5997 57.2658C96.198 57.4901 96.8446 57.7581 97.4829 57.9959C97.6204 58.0472 97.4944 57.934 97.8129 58.0938C97.8343 58.1044 97.9277 58.1893 98.0351 58.2448C98.1095 58.283 98.3559 58.3626 98.4484 58.4182C98.5403 58.4749 98.3319 58.4129 98.4356 58.4899C98.5404 58.5681 98.8188 58.6648 98.8221 58.7467ZM87.1588 60.249C87.154 60.4975 87.2788 59.6019 87.2199 59.8122C87.2169 59.8235 87.159 60.2368 87.1588 60.249ZM83.9804 59.5246C83.8252 59.8937 84.1169 59.3843 84.2394 59.1008C84.3643 58.8189 84.0284 59.4131 83.9804 59.5246ZM83.5095 59.5953C83.3913 59.8902 84.0352 58.7813 83.8669 58.9835C83.8573 58.9949 83.5164 59.5782 83.5095 59.5953ZM95.3606 57.3191C95.3717 57.3237 95.3893 57.3125 95.3787 57.3072C95.1182 57.186 95.0851 57.2038 95.3606 57.3191ZM83.0065 59.6677C82.9304 59.8242 83.0677 59.6728 83.1624 59.4782C83.2387 59.3217 83.1012 59.473 83.0065 59.6677ZM88.5741 61.3471C88.5741 61.3606 88.5909 61.3734 88.5933 61.2972C88.6011 61.052 88.575 61.1203 88.5741 61.3471ZM82.3884 59.3296C82.4704 59.4273 81.9952 60.376 81.9716 60.2267C81.966 60.1991 82.1657 59.9477 82.1912 59.8529C82.2318 59.6771 81.9026 60.2553 82.0303 59.921C82.0486 59.8572 82.3819 59.3203 82.3892 59.3283C82.3889 59.3287 82.3886 59.3291 82.3884 59.3296ZM87.0297 61.3275C87.0287 61.3395 87.0515 61.354 87.0536 61.3423C87.1046 61.0595 87.0595 61.0302 87.0297 61.3275ZM89.6126 61.8932C89.6158 61.9185 89.6757 61.938 89.6764 61.9144C89.6692 61.4442 89.554 61.403 89.6126 61.8932ZM85.2832 61.6885C85.19 61.9632 85.1475 61.988 85.2117 61.6304C85.234 61.6556 85.2603 61.6648 85.2832 61.6885Z" fill="var(--stroke-0, #3B60FF)"/>
<path id="Vector 15" d="M51.904 106.898C51.4289 104.667 51.1304 101.696 51.0209 99.3844C50.9862 98.6575 51.2964 98.9901 51.2857 98.4849C51.2826 98.316 51.2718 98.1398 51.2583 97.9757C51.1959 97.2106 51.0363 96.4837 51.0439 95.7005C51.0482 95.3858 51.5115 95.7208 51.5066 95.3923C51.4766 93.59 51.1691 91.9176 51.0532 90.0877C50.9983 89.2128 50.9427 88.3374 50.8945 87.4388C50.7597 84.2615 50.5549 81.4706 50.0809 78.4816C49.7067 75.9274 49.0005 73.2877 48.5627 70.2896C48.2812 68.2505 47.8451 66.2169 47.3533 64.0841C47.269 63.7174 47.1859 63.3382 47.1036 62.9496C46.9137 62.0698 46.7614 61.1462 46.6299 60.2388C46.5643 59.7894 46.503 59.3405 46.4408 58.9494C46.4101 58.756 46.3781 58.5774 46.3528 58.4569C46.3388 58.3471 46.2767 58.2591 46.4339 58.5133C46.5958 58.761 46.8812 58.9307 46.9727 58.9553C47.0742 58.9887 47.0321 58.9616 46.9278 58.956C46.7114 58.9374 46.2964 58.9745 45.882 59.0583C45.583 59.1189 45.8146 59.4595 45.7622 59.4973C44.9286 60.0986 45.1002 59.3214 44.432 59.344C42.5896 59.4017 40.552 59.8888 38.002 59.697C36.5678 59.5678 35.2607 58.9319 34.3203 58.2616C33.1493 57.3699 33.758 58.8787 32.9664 57.5794C32.9178 57.4917 33.4404 57.4607 33.2046 57.1655C32.6611 56.499 31.7059 55.4074 31.3942 54.9443C31.0218 54.397 30.8467 54.141 30.6283 53.8469C30.4442 53.5993 30.2478 53.3241 29.9993 52.9117C29.1282 51.458 28.7349 49.6729 28.26 48.1839C28.1579 47.8642 27.8775 48.3956 27.6811 47.8886C27.4793 47.378 27.2283 46.0002 27.2413 45.5321C27.2498 45.0606 27.5963 45.1978 27.6525 45.1047C28.0155 44.526 27.4783 43.596 27.1757 43.102C27.0755 42.9239 27.0023 42.7936 26.9894 42.742C26.0417 38.7556 27.1751 35.349 27.7801 32.0944C27.8733 31.5913 27.9599 31.0865 28.0369 30.5841C28.4874 27.8478 29.9955 25.7243 31.3963 24.1577C32.0266 23.4637 32.6619 22.8625 33.296 22.3028C34.7835 20.9968 36.2568 19.8445 37.919 18.575C38.1696 18.3858 37.5935 18.2238 37.9 17.9928C40.338 16.065 43.6289 14.6491 45.7115 13.588C46.7486 12.9896 47.623 12.6913 48.4851 12.3785C48.8545 12.2489 48.5648 12.8317 48.9432 12.7255C49.8908 12.4576 51.0592 12.1827 52.1412 11.7604C53.7594 11.1283 55.2062 10.3849 55.595 9.08627C57.1324 8.547 58.9998 7.93037 60.4787 7.78839C61.4311 7.69758 60.7315 8.42379 61.7415 7.86353C61.9682 7.73869 61.5231 7.47581 61.8753 7.31622C63.3646 6.64291 65.0818 6.2038 66.5439 5.51684C66.8393 5.37677 66.647 5.06697 66.7153 4.97795C67.3024 4.24567 68.7902 4.67242 69.0807 4.64747C71.2619 4.4534 72.7098 3.83078 74.6278 3.28563C75.0713 3.16028 74.4151 2.85497 74.8385 2.71773C75.031 2.65602 75.2253 2.59486 75.4214 2.53431C77.5122 1.88736 79.73 1.43861 81.8508 1.26806C82.3675 1.22812 81.9685 1.70738 82.2177 1.70925C83.31 1.7186 83.4329 0.927448 84.4861 0.948442C84.7075 0.952806 84.6312 1.31297 84.6758 1.34541C85.3665 1.85614 85.7941 0.952903 85.9528 0.915441C87.9368 0.430313 89.2957 1.20313 91.2054 0.936069C91.4334 0.903803 90.8838 0.503133 91.529 0.439385C92.2489 0.368485 92.9758 0.308178 93.7075 0.257272C97.368 0.00400543 101.137 0.0391316 104.693 0.310203C105.356 0.360805 104.884 0.692779 104.926 0.733175C105.607 1.36484 106.044 0.514676 106.261 0.482762C107.971 0.253346 109.548 0.988283 110.73 0C112.35 0.11281 113.968 0.197682 115.59 0.291815C121.166 0.658711 126.979 0.806074 132.28 3.35246C132.364 3.39295 132.07 3.734 132.237 3.81267C134.237 4.80579 134.06 4.0652 135.759 3.94643C136.192 3.92231 136.791 5.27777 136.843 5.38293C137.052 5.77384 136.444 6.17062 136.53 6.2685C137.239 7.05485 138.012 5.14139 139.194 5.71952C139.229 5.74064 138.908 6.00584 138.99 6.08807C139.086 6.18421 139.199 6.24666 139.317 6.30129C139.522 6.39683 139.734 6.46998 139.89 6.64041C140.477 7.28228 140.23 8.27285 141.56 8.37162C141.732 8.39029 142.124 7.24128 143.166 7.96349C143.586 8.23057 145.426 9.54571 145.845 10.0528C146.274 10.533 145.693 10.5223 145.717 10.5649C146.603 12.0714 145.992 11.7967 145.994 12.8702C145.942 13.928 147.138 12.6417 147.513 12.794C147.898 12.9429 148.262 14.2178 148.268 14.5446C148.291 14.873 147.901 14.6724 147.959 14.9379C148.267 16.6686 149.082 15.2196 149.589 15.6299C149.806 15.8156 149.953 16.0229 150.048 16.2319C150.567 17.4603 149.778 18.5415 149.726 19.5262C149.704 19.8612 149.991 19.5804 150.026 19.8798C150.141 21.0845 149.687 21.752 149.905 23.1098C149.944 23.3262 150.568 24.5213 149.88 25.1149C149.782 25.1968 149.511 24.8694 149.354 25.3409C149.121 26.0481 148.786 27.3204 148.714 28.1079C148.662 28.6913 149.333 28.1648 149.004 28.8392C148.864 29.125 148.709 28.5416 148.477 28.9739C148.465 28.997 148.452 29.0229 148.44 29.0517C148.203 29.6469 147.651 31.1324 147.378 31.6699C147.122 32.2121 147.628 32.1019 147.631 32.1572C147.644 32.4993 147.224 33.6276 147.163 33.7132C146.023 35.635 144.566 37.1925 143.369 38.7052C141.555 40.9905 139.537 42.7989 137.645 44.9044C137.385 45.1885 137.867 45.3094 137.831 45.3559C137.019 46.4134 136.959 44.8759 136.042 45.2459C136.741 45.7723 136.248 46.0397 135.645 46.7502C135.356 47.0911 135.762 47.1669 135.757 47.2194C135.627 48.0482 134.837 47.8862 134.659 47.8689C134.613 47.8644 134.571 47.8638 134.533 47.8664C134.005 47.9083 134.015 48.5573 133.601 48.5168C133.16 48.4733 133.338 47.6551 132.689 48.2512C132.712 48.6477 133.744 48.809 133.33 49.3578C132.197 50.9001 129.588 52.7109 128.221 54.1933C127.957 54.4188 127.843 55.0316 127.856 55.4743C127.965 57.2867 128.306 57.9581 128.46 59.1174C128.78 61.2592 129.182 60.3368 129.729 61.6594C129.795 61.828 129.826 61.9722 129.83 62.0917C129.849 62.8438 128.624 62.5854 128.376 62.7937C128.094 63.0331 128.452 63.1795 128.322 63.4407C128.193 63.7026 127.888 63.2414 127.924 63.7974C127.958 64.3586 128.818 65.7167 129.184 65.8351C129.959 66.0897 130.54 65.2756 130.59 66.7444C130.592 66.829 130.155 66.6465 130.183 66.9665C130.324 68.4571 130.562 69.9699 130.743 71.4856C130.867 72.5332 131.004 73.5954 131.1 74.6425C131.132 74.995 130.646 74.7707 130.66 74.9767C130.802 77.0954 131.371 76.2144 132.396 77.1847C131.287 77.148 130.767 77.9059 131.088 79.4769C131.282 80.4245 131.708 80.16 132.162 80.7038C132.298 80.8645 132.123 81.5991 132.365 81.6737C133.158 81.9211 133.817 81.1259 133.845 82.806C133.845 82.8799 133.409 82.7373 133.438 82.9869C133.622 84.6003 134.404 84.6321 134.862 86.3196C135.221 87.6404 135.288 90.124 135.548 91.6635C134.356 91.8903 134.942 93.2725 135.887 93.6779C135.998 94.2864 136.147 94.9214 136.266 95.5472C136.343 95.9525 136.403 96.3571 136.427 96.7498C136.448 97.0997 136.063 96.9332 136.033 96.983C135.556 97.7273 136.413 98.0498 136.471 98.2784C136.919 100.133 136.567 101.8 136.368 103.5C136.298 104.229 135.774 104.998 135.176 105.448C135.121 105.495 135.203 106.441 134.246 106.063C134.206 106.025 134.941 105.456 133.731 105.71C132.503 105.927 130.496 105.372 128.978 105.617C128.611 105.679 127.626 106.265 126.962 105.654C126.873 105.571 127.005 105.343 126.881 105.194C126.479 104.719 126.142 105.538 125.694 104.763C125.249 103.992 124.183 103.318 122.631 103.738C122.582 103.75 122.195 104.405 121.737 104.389C121.45 104.378 121.117 104.356 120.778 104.343C120.225 104.323 119.629 104.295 119.152 104.316C118.777 104.333 119.033 104.742 118.969 104.752C116.463 105.081 114.66 104.758 111.964 104.666C111.47 104.649 110.066 105.255 109.099 104.826C108.038 104.356 109.068 102.274 106.668 102.821C105.701 103.039 104.531 105.677 102.75 104.368C101.746 104.494 100.749 104.529 99.7741 104.534C97.4395 104.558 95.1526 104.682 92.8451 105.366C92.6972 105.409 92.3276 106.202 91.9693 106.245C91.4372 106.307 91.0988 106.012 90.7177 106.042C89.8344 106.106 89.0086 106.273 88.1767 106.404C87.5082 106.51 86.838 106.609 86.1505 106.636C85.5664 106.659 85.7445 106.295 85.0507 106.319C84.3542 106.342 83.9175 106.832 82.9614 106.659C82.2422 106.526 81.4799 105.615 80.5363 105.548C80.544 106.484 79.8958 106.495 78.7505 106.791C78.5272 106.849 78.783 107.163 78.6779 107.207C78.6725 107.21 78.6672 107.212 78.6619 107.214C78.2524 107.387 77.844 107.144 77.4549 107.341C77.3578 107.389 77.3648 107.708 77.2881 107.765C76.6239 108.264 75.4634 107.596 75.2626 107.48C74.4974 107.038 74.17 107.468 73.5905 107.306C73.0128 107.144 73.8547 106.873 73.1834 106.789C71.7942 106.616 70.0243 106.746 68.6228 106.796C68.0635 106.818 68.4646 107.226 68.385 107.239C67.2346 107.4 66.0448 107.003 65.4445 107.882C64.5368 105.729 64.7583 108.127 63.0862 107.773C62.9566 107.744 62.7322 106.717 63.2285 106.538C63.7207 106.36 64.4955 106.646 65.1767 106.375C65.3375 106.312 66.2332 105.295 66.3586 105.23C67.3445 104.723 67.558 106.266 67.616 106.348C68.2615 107.238 69.3623 106.139 69.6615 106.053C71.0315 105.659 72.217 105.825 73.3654 105.537C74.1158 105.351 74.1465 104.333 74.7417 104.338C76.4393 104.352 77.2324 105.37 78.5599 104.843C78.7903 104.754 79.0172 104.622 79.2831 104.433C79.6683 104.154 79.2263 103.063 80.6848 103.87C80.7792 103.921 81.8693 104.668 82.4547 104.132C82.5288 104.064 82.5098 103.741 82.6088 103.709C83.2704 103.498 83.7398 103.73 84.4592 103.564C85.1828 103.397 86.0444 103.157 86.8729 103.203C87.2076 103.222 87.6237 103.473 87.9478 103.674C88.0925 103.775 88.2192 103.862 88.2986 103.903C88.9852 104.266 89.612 103.483 90.0889 103.938C90.5781 104.394 89.856 105.287 91.0155 105.463C90.9386 104.625 90.9106 103.758 90.8555 102.911C93.264 102.598 95.75 102.43 98.4249 102.186C98.7586 102.156 98.3827 101.729 98.7468 101.687C99.0604 101.653 99.3745 101.639 99.6853 101.641C100.758 101.651 101.779 101.807 102.93 101.676C104.054 101.547 105.267 101.04 106.438 100.893C107.176 101.838 108.906 101.471 110.167 101.528C110.609 101.547 110.586 101.805 110.902 101.881C112.093 102.161 111.517 101.325 111.838 101.183C113.213 100.576 113.383 102.497 115.023 102.402C115.111 102.398 116.139 101.34 116.283 101.272C117.196 100.825 116.446 101.624 117.03 101.68C118.093 101.783 118.841 102.002 120.063 101.65C120.2 101.61 120.407 101.488 120.645 101.377C121.119 101.191 121.727 101.062 122.202 101.383C122.305 101.451 122.236 101.788 122.319 101.811C123.769 102.206 123.862 101.165 124.721 100.874C125.578 100.589 126.711 101.455 126.927 101.691C127.502 102.306 126.414 101.871 126.371 101.92C125.895 102.513 126.787 102.499 127.439 102.625C127.422 103.674 128.351 103.71 128.115 102.75C128.088 102.645 127.567 102.687 127.439 102.625C128.134 101.669 129.129 101.65 130.111 102.683C130.576 103.158 130.093 103.681 131.6 103.532C132.263 103.445 132.012 102.73 132.508 102.509C132.901 102.321 133.302 102.229 133.428 102.218C133.491 102.218 133.455 102.253 133.357 102.404C133.259 102.55 133.187 102.812 133.208 102.914C133.323 102.551 133.401 102.188 133.408 101.843C133.413 101.375 132.98 101.789 132.967 101.476C132.921 100.66 133.205 99.92 132.977 99.0679C132.955 98.9923 132.563 99.2165 132.533 98.9563C132.427 98.1166 132.319 97.29 132.183 96.4318C131.976 95.1671 131.789 93.8984 131.49 92.507C131.237 91.3353 130.56 89.2946 130.342 88.0737C129.962 85.9555 129.994 83.2435 129.472 81.4745C129.133 80.3183 128.785 80.6641 128.404 80.2152C127.668 79.3543 128.268 77.429 128.37 77.1696C128.372 77.1584 128.676 78.1586 128.772 77.5718C129.139 77.1678 128.374 77.1809 128.37 77.1696C128.432 76.996 128.116 74.947 127.962 74.5578C127.876 74.3438 127.517 74.5428 127.48 74.4303C127.238 73.692 127.019 72.9514 126.823 72.1883C126.34 70.3352 125.905 68.455 125.607 66.4138C125.605 66.3633 126.048 66.3468 126.036 66.2293C125.913 64.8502 125.385 63.95 124.905 62.8776C124.82 62.7252 124.733 62.5663 124.647 62.3969C124.123 61.3703 123.952 60.3493 124.484 59.3738C124.143 58.4049 124.077 56.7151 124.253 55.4781C124.432 54.2775 123.753 53.7855 123.753 53.6345C123.829 52.9613 124.075 52.1859 124.535 51.496C125.926 49.3358 127.124 48.8996 128.727 47.5085C129.495 46.8624 130.796 45.5943 131.592 44.7283C131.708 44.6035 131.821 44.48 131.919 44.3722C132.546 43.6754 133.09 43.4285 133.618 42.735C133.689 42.6416 133.34 42.453 133.355 42.4179C133.718 41.4263 134.04 42.4062 134.298 42.3845C135.23 42.3046 135.78 42.212 136.43 41.1318C136.582 40.8807 136.176 39.3733 136.452 38.9568C136.815 38.4135 137.007 38.9142 137.369 38.3348C137.4 38.2853 137.173 38.0996 137.451 37.8003C138.062 37.1377 138.698 36.4434 139.172 35.8309C139.993 34.7323 140.718 33.8895 141.324 33.0298C141.483 32.8081 140.901 32.8127 141.12 32.4916C142.145 30.9917 143.023 29.5413 143.613 28.4155C143.759 28.138 144.013 28.4185 144.127 28.3817C144.348 28.3035 144.43 28.1565 144.433 28.0015C144.471 27.5392 144.179 27.038 144.189 26.9443C144.486 23.712 145.727 20.9211 145.036 18.783C145.017 18.7262 144.626 18.505 144.518 18.5312C144.311 18.2163 144.224 17.9333 144.427 17.6143C144.465 17.5686 144.958 16.7469 144.265 16.6685C144.224 16.669 144.014 17.1113 143.797 16.6865C143.571 16.2521 142.9 15.8345 142.699 14.9996C142.647 14.7446 142.747 13.725 141.729 13.7344C141.652 13.7203 139.885 14.2053 140.076 13.1517C140.105 12.9782 140.755 12.1241 139.619 12.0648C139.403 12.058 139.576 12.4329 139.075 12.3089C138.401 12.146 137.723 11.5593 136.827 11.4299C136.691 11.4044 136.553 11.3871 136.414 11.3803C136.21 11.3741 135.157 11.6536 134.838 10.8911C134.788 10.7715 135.109 10.537 134.831 10.3566C133.498 9.49111 132.063 9.08014 130.843 8.38469C130.402 8.13795 130.836 7.68465 130.376 7.37079C129.921 7.05568 128.908 6.61753 128.288 6.74055C127.679 6.86506 128.07 7.88379 127.243 7.77398C123.656 7.33143 119.8 6.49639 115.827 6.19969C115.388 6.16816 115.531 6.34947 115.284 6.43183C115.199 6.46165 115.065 6.47886 114.836 6.46979C111.65 6.32887 106.069 6.58228 103.257 5.93962C100.997 5.41923 103.828 4.95649 102.099 4.75825C101.262 4.66485 100.386 5.74166 100.188 5.78018C98.2442 6.16949 96.8717 5.75537 95.1301 5.98946C94.7711 6.03852 95.1471 6.44639 94.8429 6.48359C94.5943 6.5151 94.3383 6.53237 94.0862 6.5416C93.2692 6.57191 92.4405 6.52188 91.6824 6.60307C91.2342 6.65233 91.3421 6.9718 90.9295 6.97793C89.9427 6.99743 89.073 6.93515 88.0969 6.72564C88.0073 6.7067 88.551 6.24338 87.8281 6.30151C86.6637 6.39724 85.1866 6.27279 83.924 6.78584C83.549 6.94044 83.6571 7.67521 82.748 7.30977C82.5585 7.23528 82.6145 6.30926 81.7963 7.25189C81.6483 7.40681 80.2926 8.75188 79.3752 8.28911C79.1315 8.16544 78.4288 7.58427 78.0016 7.81783C77.9455 7.85194 78.2924 8.17389 77.9307 8.31143C77.6749 8.40761 77.4171 8.49924 77.1547 8.58995C76.0431 8.9706 74.8878 9.301 73.7863 9.73588C73.4176 9.88234 74.0994 10.1107 73.5483 10.3159C72.0375 10.8793 70.0827 11.3779 68.5496 11.7384C67.9839 11.8706 68.2584 11.4204 68.2075 11.3975C67.3672 11.0308 67.2458 11.9359 67.0455 12.0525C65.8081 12.7644 64.6771 12.7427 63.4991 13.2643C63.1721 13.4082 63.5406 13.6935 63.4853 13.75C62.9089 14.3157 63.1866 13.4714 62.7282 13.5522C61.4281 13.7827 60.086 14.3126 58.8968 14.8292C58.4593 15.0202 59.124 15.2478 58.7295 15.4148C57.3644 16.0015 55.9531 16.5878 54.6974 17.1211C53.6451 17.5805 52.5781 17.9821 51.5929 18.3077C51.1407 18.4565 51.2707 18.0161 51.1482 17.9833C50.2846 17.753 49.8155 18.8198 49.7385 18.9485C49.5737 19.1572 49.4743 19.2637 49.4082 19.3136C48.82 19.7055 48.3119 19.8443 47.6952 20.2129C43.9004 22.2672 40.7724 24.3602 37.7864 27.0471C37.5017 27.2989 37.2322 27.5456 36.9804 27.7856C35.327 29.3408 34.3101 30.7678 34.0996 31.6402C33.5228 34.3342 32.9267 36.6436 32.8992 38.9893C32.8965 39.2692 33.3684 39.0013 33.3734 39.2376C33.3911 40.2027 33.4609 41.115 33.6088 42.019C34.0166 44.5302 34.3891 46.8956 35.1713 48.5522C35.2621 48.7417 35.5533 48.3018 35.7082 48.5815C35.9218 48.9571 36.1349 49.3182 36.2524 49.5405C36.4797 49.8735 36.6766 50.1899 36.8376 50.477C37.0742 50.8971 36.3855 50.621 36.6286 51.0367C37.1789 51.9933 37.8347 52.7871 38.2832 53.0313C38.4528 53.1195 38.517 52.6073 38.678 52.7169C38.8555 52.8202 38.7709 52.7434 38.6969 52.7368C39.2197 52.8028 40.8399 52.5567 42.5645 52.2548C43.4631 52.1107 44.4186 51.9461 45.7052 51.8867C46.3609 51.8673 47.0959 51.847 48.1675 52.0542C49.154 52.2392 51.0937 52.8979 52.2254 54.761C52.8448 55.8374 52.8563 56.2796 52.9614 56.7042C53.0577 57.2216 52.2297 57.7452 52.5383 58.3946C52.7977 58.3957 53.0906 58.335 53.3616 58.3045C53.5895 59.3497 53.7902 60.2534 54.0302 61.1762C54.6763 63.679 55.3091 66.349 55.7005 69.1193C56.0222 71.4869 56.7328 74.2104 57.2394 77.1656C57.2898 77.4563 57.3388 77.7438 57.3871 78.0321C57.4361 78.3257 57.8271 77.7371 57.9233 78.303C58.4096 81.0896 58.8016 84.0414 58.7586 86.6909C58.7536 87.1285 58.7442 87.5925 58.7233 88.0576C58.7107 88.379 57.8424 88.3042 58.0747 89.2245C58.1158 89.386 58.3899 90.7806 58.6173 91.1253C58.6509 91.1713 59.0168 90.8687 59.0814 91.3209C59.3382 93.1525 59.5383 95.0615 59.6627 96.9566C59.7131 97.7533 59.76 98.5667 59.7951 99.3714C59.813 99.7964 59.3309 99.407 59.3403 99.711C59.4115 101.874 60.0796 104.159 60.0154 106.262C59.9719 107.669 59.1685 107.278 58.5699 108.119C58.4854 108.239 58.6057 109.091 58.1981 109.2C57.1733 109.483 55.9642 109.255 54.8795 109.604C54.645 109.679 55.0942 110.795 54.4021 110.203C54.3546 110.159 54.0272 109.355 53.7981 109.179C53.6395 109.058 53.2589 109.386 53.0379 109.117C52.8181 108.855 53.1206 108.474 52.8404 108.021C52.5584 107.571 52.1101 107.856 51.904 106.898ZM127.316 50.9401C128.177 50.6591 127.23 49.4944 126.836 50.3882C126.819 50.433 127.272 50.9561 127.316 50.9401ZM95.9375 103.617C97.0299 104.142 97.6355 103.11 96.8466 102.682C96.0468 102.26 95.6007 103.46 95.9375 103.617ZM85.7461 105.348C86.9463 105.786 86.9647 103.658 85.7674 104.172C85.6988 104.201 85.6754 105.322 85.7461 105.348ZM57.8421 104.764C57.8242 104.779 57.8979 105.392 57.9198 105.405C58.4389 105.659 58.2908 104.429 57.8421 104.764ZM75.4841 106.378C75.8602 106.648 76.9021 106.272 76.431 105.935C76.0534 105.664 75.012 106.041 75.4841 106.378ZM148.998 19.5881C149.022 19.5769 149.017 19.1351 148.89 19.1551C148.491 19.2126 148.632 19.7944 148.998 19.5881ZM57.9376 107.314C60.5587 107.17 62.1999 108.852 59.4037 108.832C58.8943 108.832 60.452 108.199 59.8001 108.086C58.5837 107.878 57.9283 109.056 56.6413 108.581C56.4183 108.496 57.7869 107.319 57.942 107.311C57.9405 107.312 57.939 107.313 57.9376 107.314ZM128.907 51.8912C128.932 51.8926 129.387 51.4811 129.386 51.4564C129.303 50.8778 128.37 51.7212 128.907 51.8912ZM130.536 3.2301C130.52 3.1734 129.109 2.76549 129.054 2.80027C128.156 3.36935 130.924 4.16914 130.536 3.2301ZM135.522 91.6946C136.13 92.2422 136.359 93.0251 135.887 93.6747C135.776 93.0185 135.634 92.3485 135.522 91.6946Z" fill="var(--stroke-0, #3B60FF)"/>
<path id="Vector 16" d="M19.5147 86.3502C19.4301 87.2033 21.6025 86.1781 21.8281 86.9357C22.0988 87.7282 21.3135 88.7137 22.2401 89.2082C23.1574 89.6851 23.417 91.002 24.1071 90.8988C24.789 90.7876 23.8672 92.0363 24.6172 92.1783C25.3647 92.315 25.5704 92.7167 25.763 93.4773C25.8325 93.7477 26.0343 94.1003 26.3141 94.44L26.29 94.4234C26.7638 95.0072 27.5582 95.4455 27.9917 95.1537C28.2381 94.996 28.3679 95.0257 28.4786 95.1417C28.4838 95.1411 28.4997 95.145 28.505 95.1444C28.9754 95.3827 29.2894 95.9209 29.5728 96.1168C29.7069 96.2132 29.8085 96.3348 29.8825 96.4574C29.9138 96.5094 29.9197 96.611 29.908 96.7091C29.908 96.7092 29.908 96.7093 29.9079 96.7093C29.8934 96.8316 29.8514 96.9485 29.8023 96.9583C29.5608 97.0053 29.1889 97.1607 28.7182 97.5491C28.4846 97.7412 28.3267 97.8188 28.2038 97.8374L28.2301 97.8401C27.6295 97.8553 27.4117 97.3938 26.4614 97.3133C25.7292 97.2354 25.0848 97.279 24.5006 97.1144C24.4926 97.1061 24.4609 97.0904 24.4531 97.0819C24.0484 96.9703 23.6805 96.7419 23.3793 96.225C22.7061 95.0414 21.0435 96.7064 20.4366 94.5225C19.8933 92.3429 18.1725 94.0744 16.5154 92.8527C15.2241 91.8821 14.5284 89.7493 14.117 88.2092C14.0445 87.8837 13.9552 87.5999 13.8304 87.3895C13.258 86.4592 12.2779 84.7934 12.2956 82.966C12.2953 81.8764 11.9674 80.7712 11.8288 79.662C11.7431 79.0038 11.7183 78.3411 11.9046 77.6976C12.3817 76.0433 12.9727 73.713 13.3963 72.6288C13.8198 71.5431 13.9145 71.2838 13.5654 70.2784C13.3649 69.6978 13.4811 68.8893 14.0706 68.1689C14.3695 67.8082 14.8082 67.8798 15.0324 68.2048C15.3615 68.6896 15.1799 69.1148 15.7383 69.3459C16.8545 69.807 17.2838 70.0026 16.6855 70.6939C16.0873 71.3847 17.5441 71.6112 17.3993 72.0027C17.2546 72.396 16.4044 72.4372 17.1665 74.3393C17.9292 76.2447 18.1567 77.3005 18.3555 78.0267C18.4384 78.3275 18.3732 78.7799 18.2938 79.2931C18.1793 79.9503 18.0573 80.7023 18.2925 81.2658C18.6534 82.268 18.9512 83.9284 19.7819 84.5932C20.0825 84.8307 20.1414 85.046 20.09 85.2748C19.9622 85.5268 19.594 85.8637 19.5147 86.3502Z" fill="var(--stroke-0, #3B60FF)"/>
<path id="Vector 17" d="M17.9629 105.228C18.6464 105.83 19.4133 103.535 20.2595 103.926C21.1157 104.314 21.187 105.568 22.23 105.334C23.0976 105.136 23.9456 105.717 24.4662 105.608C24.521 105.587 24.5697 105.538 24.6067 105.454C24.8064 104.927 25.0109 106.474 25.4996 106.028C25.9608 105.577 26.3639 105.666 27.0599 105.987C27.5082 106.195 28.454 106.214 29.2023 106.01C29.5778 105.909 29.8802 105.716 29.9993 105.44C30.218 104.929 30.6951 105.079 31.1821 105.219L31.1582 105.232C31.4028 105.303 31.6215 105.384 31.7726 105.38C31.9088 105.379 32.0493 105.399 32.1838 105.427C32.2405 105.439 32.3224 105.499 32.3921 105.569C32.3922 105.569 32.3922 105.569 32.3923 105.569C32.4791 105.656 32.5451 105.762 32.5185 105.808C32.408 106.014 32.2203 106.371 32.0428 106.89C32.038 106.892 32.0255 106.901 32.0207 106.902C32.0066 106.943 31.9926 106.986 31.9785 107.029C31.5897 108.128 31.1419 107.337 30.2483 108.074C30.1079 108.184 29.9776 108.298 29.8518 108.413C29.2644 109.027 28.9121 109.708 27.7878 109.55C26.5374 109.326 26.6922 111.559 24.4092 110.767C24.3259 110.715 24.236 110.653 24.1419 110.58C22.473 109.233 22.2339 111.644 20.4881 111.873C18.7407 112.1 16.6816 110.56 15.6218 110.52C15.0034 110.5 14.2436 110.511 13.3862 110.364C12.8151 110.272 12.0905 110.066 11.4858 109.742C10.0478 108.982 7.95037 108.977 6.68152 107.694C6.39436 107.402 6.08627 107.083 5.77414 106.75C4.80939 105.682 3.76302 104.517 3.2602 103.81C2.60784 102.893 2.44842 102.678 1.45129 102.452C0.878065 102.322 0.287624 101.799 0.0309617 100.937C-0.0933016 100.509 0.170591 100.154 0.570219 100.14C1.14451 100.115 1.38563 100.489 1.87271 100.139C2.83973 99.4345 3.23155 99.1763 3.459 100.034C3.69246 100.895 4.65502 99.7808 4.88955 100.103C5.12305 100.423 4.70519 101.168 6.64039 101.489C7.36863 101.609 7.95877 101.73 8.45133 101.846C9.21623 102.011 9.71288 102.142 10.111 102.225C10.7349 102.356 11.6589 103.568 12.6981 103.631C13.2501 103.67 13.9388 103.879 14.7058 103.998C15.3667 104.106 16.0672 104.154 16.4969 104.003C17.4063 103.681 17.2927 104.623 17.9629 105.228Z" fill="var(--stroke-0, #3B60FF)"/>
<path id="Vector 18" d="M164.397 69.7536C163.85 70.2989 165.935 70.9273 165.698 71.828C165.688 71.8621 165.673 71.8957 165.652 71.9289C165.184 72.6577 163.945 72.5107 164.021 73.417C164.085 74.3514 162.999 74.9421 163.355 75.4706C163.703 76.0213 162.238 75.5228 162.361 76.1466C162.475 76.7788 162.144 77.0191 161.493 77.2159C160.984 77.3761 160.245 78.027 160.128 78.6059L160.145 78.5709C160.122 78.7281 160.151 78.8764 160.243 79.0045C160.39 79.207 160.364 79.3202 160.244 79.4221C160.015 79.6234 159.41 79.8494 159.179 79.9996C159.069 80.0772 158.938 80.1198 158.81 80.1397C158.756 80.1481 158.657 80.1243 158.565 80.0894C158.565 80.0894 158.565 80.0894 158.565 80.0893C158.45 80.0458 158.343 79.9857 158.34 79.95C158.325 79.7743 158.212 79.4887 157.858 79.105C157.66 78.8888 157.606 78.7413 157.627 78.6115C157.68 78.3126 158.081 78.2124 158.057 77.6002C158.064 77.5923 158.073 77.56 158.08 77.5525C158.08 77.5446 158.08 77.5366 158.08 77.5285C158.055 76.6478 157.488 75.9186 158.311 75.4681C159.142 74.9668 157.058 73.9882 158.62 73.4631C160.192 72.8198 157.89 72.0364 157.767 71.035C157.746 70.8623 157.769 70.6918 157.822 70.5183C158.046 69.9278 159.008 68.8354 158.924 68.2969C158.827 67.6314 158.538 66.7456 158.813 65.7688C159.09 64.7806 158.197 63.6491 158.651 62.521C158.677 62.4562 158.703 62.3894 158.73 62.321C159.161 61.1544 159.662 59.6295 160.036 58.8852C160.432 58.0956 160.52 57.9036 160.145 57.229C159.931 56.8415 160.022 56.2617 160.59 55.7118C160.733 55.5695 160.919 55.5038 161.094 55.5216C161.268 55.5159 161.433 55.5594 161.55 55.668C161.89 55.9764 161.722 56.2914 162.285 56.4085C163.409 56.6425 163.843 56.7546 163.265 57.2812C162.687 57.8119 164.144 57.8632 164.01 58.1505C163.875 58.4392 163.03 58.5265 163.832 59.8138C164.338 60.6261 164.622 61.2201 164.816 61.6703C164.931 61.9476 165.013 62.1702 165.09 62.3652C165.3 62.895 164.659 64.0787 164.971 64.949C165.294 65.8226 165.087 67.656 165.498 68.423C165.915 69.1991 164.962 69.1797 164.397 69.7536Z" fill="var(--stroke-0, #3B60FF)"/>
<path id="Vector 19" d="M172.989 88.1706C172.269 88.5933 174.278 89.9276 173.646 90.5835C173.295 90.9419 172.766 90.9749 172.349 91.0988C172.346 91.1211 172.305 91.1787 172.301 91.2009C171.97 91.2822 171.705 91.4247 171.636 91.8344C171.475 92.7679 170.299 93.1485 170.558 93.7406C170.814 94.3379 169.44 93.6217 169.466 94.2763C169.488 94.9337 169.138 95.1323 168.455 95.2955C167.772 95.4671 166.632 96.4825 166.81 97.2942C166.866 97.5353 166.786 97.7064 166.641 97.8198C166.638 97.8273 166.619 97.8441 166.616 97.8515C166.466 97.9502 166.159 98.0563 165.883 98.0835C165.604 98.1152 165.348 98.0957 165.187 98.1229C165.045 98.1466 164.903 98.1269 164.776 98.0881C164.722 98.0715 164.646 98.0051 164.581 97.9305C164.581 97.9305 164.581 97.9304 164.581 97.9304C164.5 97.8375 164.437 97.7323 164.454 97.697C164.533 97.5266 164.612 97.1863 164.45 96.6995C164.333 96.376 164.333 96.2555 164.44 96.1394L164.416 96.1701C164.56 96.0097 164.902 96.0051 164.948 95.4468C165.016 94.5653 164.523 93.7375 165.464 93.236C166.409 92.7141 164.498 91.4015 166.262 90.9068C167.882 90.4277 166.283 89.3241 166.192 88.2L166.13 88.3311C166.116 88.2316 166.116 88.1251 166.131 88.0233C166.311 86.823 168.077 85.8518 168.201 85.0888C168.325 84.3451 168.331 83.3242 168.887 82.3779C169.451 81.4152 168.911 79.9923 169.641 78.933C169.68 78.8759 169.72 78.8172 169.76 78.7569C170.484 77.6135 171.368 76.0945 171.922 75.3847C172.507 74.638 172.641 74.4526 172.447 73.633C172.335 73.162 172.569 72.5686 173.247 72.1148C173.586 71.8901 174.015 71.9881 174.193 72.2826C174.452 72.7106 174.21 73.0083 174.727 73.2759C175.76 73.8133 176.154 74.038 175.459 74.47C174.764 74.9003 176.163 75.3242 175.96 75.5998C175.755 75.8779 174.916 75.7569 175.359 77.3531C175.641 78.3686 175.761 79.087 175.831 79.6245C175.867 79.952 175.885 80.2152 175.906 80.4462C175.965 81.0888 175.009 82.2108 175.044 83.2383C175.093 84.2813 174.311 86.1826 174.461 87.1003C174.616 88.0308 173.71 87.7314 172.989 88.1706Z" fill="var(--stroke-0, #3B60FF)"/>
</g>
</svg>
